<?xml version="1.0" encoding="UTF-8"?>
<svg xmlns="http://www.w3.org/2000/svg" xmlns:xlink="http://www.w3.org/1999/xlink" width="32px" height="32px" viewBox="0 0 32 32" version="1.1">
<g id="surface1">
<path style=" stroke:none;fill-rule:nonzero;fill:rgb(0%,0%,0%);fill-opacity:1;" d="M 15.722656 -0.0234375 C 15.957031 -0.0234375 16.191406 -0.0273438 16.425781 -0.0273438 C 17.730469 -0.0351562 19 0.109375 20.261719 0.472656 C 20.363281 0.5 20.363281 0.5 20.46875 0.53125 C 21.019531 0.6875 21.554688 0.863281 22.078125 1.089844 C 22.136719 1.113281 22.191406 1.136719 22.25 1.160156 C 23.582031 1.734375 24.785156 2.429688 25.921875 3.328125 C 25.980469 3.375 26.042969 3.421875 26.105469 3.472656 C 26.945312 4.140625 27.875 4.925781 28.480469 5.824219 C 28.480469 5.867188 28.480469 5.910156 28.480469 5.953125 C 28.523438 5.953125 28.566406 5.953125 28.609375 5.953125 C 28.691406 6.042969 28.691406 6.042969 28.78125 6.171875 C 28.832031 6.242188 28.832031 6.242188 28.886719 6.3125 C 28.921875 6.363281 28.957031 6.414062 28.996094 6.46875 C 29.035156 6.519531 29.070312 6.574219 29.109375 6.625 C 29.4375 7.09375 29.738281 7.566406 30.015625 8.0625 C 30.039062 8.105469 30.0625 8.144531 30.085938 8.183594 C 30.890625 9.59375 31.398438 11.125 31.761719 12.699219 C 31.769531 12.742188 31.78125 12.785156 31.789062 12.828125 C 31.945312 13.550781 32.019531 14.269531 32.023438 15.003906 C 32.023438 15.085938 32.023438 15.164062 32.023438 15.246094 C 32.023438 15.410156 32.023438 15.578125 32.023438 15.742188 C 32.023438 15.992188 32.027344 16.242188 32.027344 16.492188 C 32.035156 17.484375 31.957031 18.421875 31.742188 19.390625 C 31.726562 19.46875 31.710938 19.542969 31.695312 19.621094 C 31.65625 19.792969 31.613281 19.960938 31.566406 20.132812 C 31.550781 20.191406 31.535156 20.25 31.519531 20.3125 C 31.089844 21.863281 30.449219 23.359375 29.566406 24.703125 C 29.539062 24.746094 29.515625 24.789062 29.484375 24.832031 C 29.085938 25.445312 28.648438 26.011719 28.160156 26.558594 C 28.128906 26.59375 28.101562 26.625 28.070312 26.660156 C 27.480469 27.320312 26.871094 27.925781 26.175781 28.480469 C 26.125 28.523438 26.074219 28.5625 26.023438 28.609375 C 25.261719 29.234375 24.421875 29.746094 23.550781 30.207031 C 23.511719 30.230469 23.46875 30.25 23.429688 30.273438 C 21.476562 31.308594 19.234375 32.015625 17.011719 32.023438 C 16.933594 32.023438 16.855469 32.023438 16.777344 32.023438 C 16.613281 32.023438 16.449219 32.023438 16.285156 32.023438 C 16.042969 32.023438 15.796875 32.027344 15.554688 32.027344 C 11.855469 32.046875 8.15625 30.597656 5.40625 28.117188 C 5.320312 28.039062 5.230469 27.960938 5.140625 27.878906 C 4.472656 27.289062 3.882812 26.675781 3.347656 25.964844 C 3.269531 25.863281 3.195312 25.765625 3.117188 25.667969 C 2.691406 25.121094 2.332031 24.535156 1.984375 23.9375 C 1.957031 23.890625 1.933594 23.847656 1.90625 23.804688 C 0.753906 21.796875 0 19.351562 -0.015625 17.03125 C -0.015625 16.953125 -0.015625 16.871094 -0.015625 16.789062 C -0.0195312 16.621094 -0.0195312 16.453125 -0.0195312 16.285156 C -0.0195312 16.117188 -0.0195312 15.945312 -0.0234375 15.777344 C -0.0351562 14.691406 0.0195312 13.667969 0.257812 12.609375 C 0.28125 12.496094 0.28125 12.496094 0.304688 12.378906 C 0.34375 12.207031 0.386719 12.039062 0.433594 11.867188 C 0.457031 11.777344 0.457031 11.777344 0.480469 11.6875 C 1.128906 9.339844 2.289062 7.195312 3.902344 5.375 C 3.960938 5.3125 4.015625 5.25 4.070312 5.183594 C 4.847656 4.316406 5.710938 3.5625 6.65625 2.878906 C 6.695312 2.851562 6.734375 2.824219 6.773438 2.792969 C 8.515625 1.550781 10.488281 0.757812 12.5625 0.273438 C 12.617188 0.257812 12.671875 0.246094 12.726562 0.234375 C 12.902344 0.195312 13.074219 0.160156 13.246094 0.128906 C 13.34375 0.109375 13.34375 0.109375 13.441406 0.0898438 C 14.199219 -0.03125 14.960938 -0.0234375 15.722656 -0.0234375 Z M 15.722656 -0.0234375 "/>
<path style=" stroke:none;fill-rule:nonzero;fill:rgb(96.862745%,96.862745%,96.862745%);fill-opacity:1;" d="M 6.078125 11.519531 C 6.144531 11.582031 6.144531 11.582031 6.207031 11.648438 C 6.199219 11.808594 6.199219 11.808594 6.144531 11.96875 C 5.992188 12.085938 5.871094 12.097656 5.683594 12.125 C 5.328125 12.175781 4.976562 12.253906 4.628906 12.335938 C 4.542969 12.355469 4.457031 12.371094 4.375 12.390625 C 3.785156 12.519531 3.277344 12.695312 2.753906 12.992188 C 2.964844 12.941406 3.175781 12.875 3.382812 12.808594 C 4.597656 12.433594 4.597656 12.433594 4.929688 12.542969 C 4.449219 12.859375 4.003906 13.105469 3.464844 13.300781 C 2.738281 13.578125 2.054688 14.027344 1.664062 14.71875 C 1.71875 14.660156 1.773438 14.597656 1.828125 14.535156 C 2.324219 14.039062 3.050781 13.542969 3.710938 13.3125 C 3.753906 13.332031 3.796875 13.355469 3.839844 13.375 C 3.777344 13.398438 3.714844 13.417969 3.648438 13.441406 C 3.605469 13.523438 3.5625 13.609375 3.519531 13.695312 C 3.304688 14.003906 3.101562 14.140625 2.773438 14.316406 C 2.144531 14.671875 1.699219 15.269531 1.5 15.960938 C 1.488281 15.996094 1.480469 16.027344 1.472656 16.0625 C 1.507812 16 1.507812 16 1.546875 15.9375 C 1.9375 15.289062 2.417969 14.75 3.007812 14.273438 C 3.007812 14.628906 2.878906 15.015625 2.648438 15.292969 C 2.574219 15.363281 2.496094 15.429688 2.417969 15.5 C 2 15.921875 1.789062 16.464844 1.785156 17.050781 C 1.785156 17.148438 1.789062 17.246094 1.792969 17.34375 C 1.800781 17.292969 1.808594 17.242188 1.816406 17.191406 C 1.949219 16.53125 2.179688 15.890625 2.6875 15.425781 C 2.6875 15.59375 2.6875 15.761719 2.6875 15.9375 C 2.644531 15.9375 2.605469 15.9375 2.558594 15.9375 C 2.550781 15.980469 2.542969 16.027344 2.535156 16.070312 C 2.496094 16.257812 2.496094 16.257812 2.429688 16.425781 C 2.355469 16.675781 2.347656 16.910156 2.347656 17.167969 C 2.347656 17.214844 2.347656 17.265625 2.347656 17.3125 C 2.359375 17.796875 2.46875 18.195312 2.6875 18.625 C 2.675781 18.574219 2.660156 18.519531 2.644531 18.46875 C 2.449219 17.660156 2.386719 16.808594 2.625 16 C 2.777344 16.152344 2.8125 16.277344 2.882812 16.480469 C 3.253906 17.390625 4.054688 17.929688 4.929688 18.304688 C 5.679688 18.566406 6.585938 18.535156 7.308594 18.207031 C 7.367188 18.175781 7.425781 18.144531 7.488281 18.113281 C 7.542969 18.082031 7.597656 18.054688 7.65625 18.027344 C 8.398438 17.609375 8.941406 17.058594 9.441406 16.382812 C 9.542969 16.246094 9.648438 16.109375 9.75 15.972656 C 9.9375 15.726562 10.121094 15.480469 10.304688 15.230469 C 10.367188 15.359375 10.433594 15.488281 10.496094 15.617188 C 10.5 15.539062 10.5 15.539062 10.503906 15.464844 C 10.511719 15.367188 10.511719 15.367188 10.519531 15.269531 C 10.527344 15.171875 10.527344 15.171875 10.535156 15.070312 C 10.542969 15.019531 10.550781 14.964844 10.558594 14.910156 C 10.601562 14.890625 10.644531 14.871094 10.6875 14.847656 C 10.710938 14.996094 10.730469 15.144531 10.753906 15.296875 C 10.773438 15.296875 10.792969 15.296875 10.816406 15.296875 C 10.816406 15.242188 10.820312 15.191406 10.820312 15.132812 C 10.824219 15.066406 10.828125 14.996094 10.832031 14.925781 C 10.835938 14.855469 10.839844 14.785156 10.839844 14.714844 C 10.878906 14.527344 10.878906 14.527344 11.136719 14.335938 C 11.136719 14.546875 11.136719 14.757812 11.136719 14.976562 C 11.148438 14.917969 11.15625 14.859375 11.167969 14.800781 C 11.191406 14.6875 11.191406 14.6875 11.214844 14.570312 C 11.230469 14.496094 11.246094 14.421875 11.261719 14.34375 C 11.332031 14.128906 11.386719 14.0625 11.585938 13.953125 C 11.574219 13.988281 11.566406 14.023438 11.554688 14.0625 C 11.542969 14.113281 11.53125 14.160156 11.519531 14.210938 C 11.507812 14.261719 11.496094 14.308594 11.484375 14.359375 C 11.449219 14.566406 11.453125 14.765625 11.457031 14.976562 C 11.480469 14.871094 11.480469 14.871094 11.503906 14.761719 C 11.523438 14.671875 11.546875 14.578125 11.566406 14.484375 C 11.578125 14.4375 11.589844 14.390625 11.597656 14.34375 C 11.667969 14.050781 11.753906 13.859375 11.96875 13.632812 C 12.011719 13.652344 12.050781 13.675781 12.097656 13.695312 C 12.0625 13.777344 12.0625 13.777344 12.027344 13.855469 C 11.996094 13.925781 11.964844 13.996094 11.9375 14.066406 C 11.90625 14.136719 11.875 14.207031 11.847656 14.277344 C 11.765625 14.460938 11.765625 14.460938 11.777344 14.65625 C 11.792969 14.605469 11.808594 14.558594 11.828125 14.507812 C 12.023438 13.992188 12.25 13.527344 12.738281 13.234375 C 13.511719 12.941406 14.597656 13.058594 15.359375 13.3125 C 15.414062 13.328125 15.464844 13.34375 15.519531 13.359375 C 15.667969 13.414062 15.761719 13.457031 15.871094 13.566406 C 15.949219 13.78125 15.984375 13.984375 16 14.207031 C 16.003906 14.128906 16.011719 14.050781 16.015625 13.96875 C 16.027344 13.78125 16.054688 13.707031 16.171875 13.558594 C 16.332031 13.429688 16.464844 13.367188 16.660156 13.300781 C 16.746094 13.269531 16.746094 13.269531 16.835938 13.238281 C 17.550781 13.035156 18.71875 12.9375 19.390625 13.3125 C 19.921875 13.679688 20.140625 14.308594 20.289062 14.910156 C 20.222656 14.410156 20.089844 14.007812 19.839844 13.566406 C 19.988281 13.605469 19.988281 13.605469 20.160156 13.695312 C 20.257812 13.878906 20.257812 13.878906 20.335938 14.101562 C 20.375 14.207031 20.375 14.207031 20.414062 14.320312 C 20.46875 14.496094 20.511719 14.667969 20.542969 14.847656 C 20.558594 14.515625 20.519531 14.265625 20.414062 13.953125 C 20.734375 14.214844 20.804688 14.445312 20.863281 14.847656 C 20.863281 14.679688 20.863281 14.511719 20.863281 14.335938 C 20.988281 14.394531 20.988281 14.394531 21.121094 14.527344 C 21.152344 14.675781 21.164062 14.820312 21.171875 14.972656 C 21.175781 15.109375 21.175781 15.109375 21.246094 15.230469 C 21.269531 15.105469 21.289062 14.980469 21.3125 14.847656 C 21.355469 14.867188 21.394531 14.890625 21.441406 14.910156 C 21.441406 15.164062 21.441406 15.417969 21.441406 15.679688 C 21.480469 15.679688 21.523438 15.679688 21.566406 15.679688 C 21.589844 15.53125 21.609375 15.382812 21.632812 15.230469 C 21.921875 15.5 22.140625 15.804688 22.367188 16.128906 C 22.96875 16.957031 23.589844 17.640625 24.511719 18.113281 C 24.578125 18.144531 24.640625 18.179688 24.707031 18.214844 C 25.480469 18.566406 26.40625 18.550781 27.199219 18.261719 C 28.015625 17.902344 28.699219 17.390625 29.113281 16.582031 C 29.246094 16.207031 29.28125 15.820312 29.3125 15.425781 C 29.558594 15.640625 29.6875 15.875 29.832031 16.164062 C 29.855469 16.210938 29.878906 16.253906 29.898438 16.300781 C 30.074219 16.660156 30.175781 17.007812 30.207031 17.40625 C 30.261719 16.738281 30.15625 16.1875 29.71875 15.660156 C 29.625 15.554688 29.53125 15.449219 29.4375 15.34375 C 29.191406 15.0625 29.003906 14.773438 28.929688 14.398438 C 28.949219 14.359375 28.96875 14.316406 28.992188 14.273438 C 29.636719 14.832031 30.152344 15.390625 30.59375 16.128906 C 30.34375 15.378906 29.878906 14.640625 29.167969 14.257812 C 29.09375 14.222656 29.09375 14.222656 29.019531 14.183594 C 28.730469 14.035156 28.570312 13.835938 28.382812 13.574219 C 28.296875 13.453125 28.207031 13.351562 28.097656 13.246094 C 28.949219 13.574219 29.628906 14.089844 30.335938 14.65625 C 29.660156 13.847656 28.921875 13.421875 27.945312 13.050781 C 27.660156 12.941406 27.445312 12.789062 27.199219 12.609375 C 27.023438 12.527344 27.023438 12.527344 26.878906 12.480469 C 27.117188 12.402344 27.226562 12.441406 27.46875 12.5 C 27.585938 12.53125 27.585938 12.53125 27.703125 12.558594 C 27.746094 12.570312 27.785156 12.582031 27.828125 12.59375 C 27.949219 12.625 28.074219 12.652344 28.195312 12.683594 C 28.582031 12.78125 28.953125 12.882812 29.3125 13.054688 C 28.582031 12.550781 27.761719 12.410156 26.90625 12.234375 C 26.550781 12.160156 26.199219 12.082031 25.855469 11.96875 C 25.816406 11.816406 25.816406 11.816406 25.792969 11.648438 C 25.957031 11.484375 26.019531 11.496094 26.246094 11.492188 C 27.609375 11.519531 29.035156 12.398438 30.007812 13.296875 C 30.738281 14.058594 31.210938 14.925781 31.238281 15.996094 C 31.203125 17.425781 30.59375 18.703125 29.621094 19.730469 C 28.589844 20.703125 27.121094 21.238281 25.714844 21.203125 C 24.199219 21.089844 22.53125 20.449219 21.246094 19.648438 C 21.195312 19.617188 21.140625 19.585938 21.082031 19.550781 C 20.839844 19.390625 20.699219 19.285156 20.609375 19 C 20.574219 18.808594 20.554688 18.625 20.542969 18.433594 C 20.601562 18.484375 20.660156 18.535156 20.71875 18.589844 C 21.347656 19.140625 21.347656 19.140625 22.078125 19.519531 C 21.988281 19.441406 21.988281 19.441406 21.898438 19.363281 C 21.152344 18.730469 21.152344 18.730469 20.828125 18.390625 C 20.09375 17.617188 19.25 17.148438 18.261719 16.761719 C 18.023438 16.667969 17.785156 16.570312 17.546875 16.46875 C 17.507812 16.453125 17.464844 16.433594 17.425781 16.417969 C 17.136719 16.292969 16.933594 16.140625 16.703125 15.9375 C 16.746094 15.914062 16.789062 15.894531 16.832031 15.871094 C 16.964844 15.917969 17.09375 15.972656 17.222656 16.027344 C 17.328125 16.074219 17.328125 16.074219 17.4375 16.121094 C 17.492188 16.144531 17.542969 16.167969 17.601562 16.191406 C 17.535156 16.15625 17.46875 16.125 17.402344 16.089844 C 17.3125 16.042969 17.226562 15.996094 17.140625 15.953125 C 17.097656 15.929688 17.054688 15.90625 17.007812 15.882812 C 16.660156 15.703125 16.34375 15.53125 16.171875 15.160156 C 16.152344 15.117188 16.128906 15.074219 16.109375 15.027344 C 16.0625 14.910156 16.0625 14.910156 16.0625 14.785156 C 16.023438 14.785156 15.980469 14.785156 15.9375 14.785156 C 15.925781 14.839844 15.925781 14.839844 15.910156 14.898438 C 15.796875 15.335938 15.617188 15.519531 15.230469 15.742188 C 14.957031 15.898438 14.679688 16.046875 14.398438 16.191406 C 14.464844 16.164062 14.464844 16.164062 14.535156 16.132812 C 14.589844 16.109375 14.648438 16.085938 14.707031 16.058594 C 14.765625 16.035156 14.824219 16.011719 14.882812 15.984375 C 15.039062 15.9375 15.039062 15.9375 15.230469 16 C 14.734375 16.375 14.1875 16.589844 13.613281 16.8125 C 12.527344 17.234375 11.691406 17.863281 10.878906 18.695312 C 10.527344 19.054688 10.136719 19.351562 9.726562 19.648438 C 10.257812 19.386719 10.691406 19.070312 11.136719 18.6875 C 11.242188 18.601562 11.347656 18.515625 11.457031 18.433594 C 11.460938 18.730469 11.433594 18.984375 11.328125 19.265625 C 11.066406 19.523438 10.761719 19.675781 10.433594 19.839844 C 10.34375 19.886719 10.253906 19.933594 10.164062 19.984375 C 8.457031 20.859375 6.511719 21.492188 4.609375 20.992188 C 3.898438 20.765625 3.261719 20.449219 2.6875 19.96875 C 2.644531 19.933594 2.597656 19.898438 2.550781 19.863281 C 1.53125 19.042969 0.914062 17.664062 0.769531 16.382812 C 0.683594 15.367188 1.082031 14.410156 1.699219 13.621094 C 2.617188 12.582031 4.617188 11.164062 6.078125 11.519531 Z M 6.078125 11.519531 "/>
<path style=" stroke:none;fill-rule:nonzero;fill:rgb(96.078431%,96.078431%,96.078431%);fill-opacity:1;" d="M 16.640625 9.601562 C 17.28125 9.601562 17.28125 9.601562 17.417969 9.703125 C 17.460938 9.777344 17.460938 9.777344 17.503906 9.851562 C 17.539062 9.910156 17.574219 9.964844 17.609375 10.023438 C 17.648438 10.097656 17.6875 10.167969 17.726562 10.238281 C 17.785156 10.335938 17.839844 10.429688 17.898438 10.523438 C 18.058594 10.789062 18.210938 11.058594 18.367188 11.328125 C 18.390625 10.757812 18.410156 10.1875 18.433594 9.601562 C 18.601562 9.601562 18.769531 9.601562 18.945312 9.601562 C 18.945312 10.507812 18.945312 11.417969 18.945312 12.351562 C 18.367188 12.351562 18.367188 12.351562 18.214844 12.214844 C 18.160156 12.121094 18.160156 12.121094 18.105469 12.023438 C 18.066406 11.953125 18.023438 11.886719 17.980469 11.816406 C 17.941406 11.742188 17.902344 11.671875 17.859375 11.597656 C 17.816406 11.523438 17.777344 11.453125 17.730469 11.378906 C 17.65625 11.246094 17.578125 11.113281 17.5 10.980469 C 17.433594 10.859375 17.355469 10.738281 17.28125 10.625 C 17.257812 11.195312 17.238281 11.765625 17.214844 12.351562 C 17.027344 12.351562 16.835938 12.351562 16.640625 12.351562 C 16.640625 11.445312 16.640625 10.535156 16.640625 9.601562 Z M 16.640625 9.601562 "/>
<path style=" stroke:none;fill-rule:nonzero;fill:rgb(7.843137%,7.843137%,7.843137%);fill-opacity:1;" d="M 2.816406 16.894531 C 2.921875 17.058594 2.972656 17.15625 3.027344 17.335938 C 3.042969 17.382812 3.058594 17.429688 3.070312 17.480469 C 3.097656 17.554688 3.097656 17.554688 3.121094 17.632812 C 3.503906 18.8125 4.191406 19.78125 5.28125 20.414062 C 5.535156 20.519531 5.742188 20.507812 6.015625 20.480469 C 5.976562 20.460938 5.933594 20.441406 5.890625 20.421875 C 5.09375 20.027344 4.488281 19.398438 3.96875 18.6875 C 4.160156 18.6875 4.160156 18.6875 4.289062 18.804688 C 4.335938 18.855469 4.386719 18.910156 4.4375 18.964844 C 5.003906 19.546875 5.738281 20.269531 6.570312 20.382812 C 6.824219 20.347656 7.003906 20.269531 7.230469 20.160156 C 7.195312 20.164062 7.160156 20.164062 7.125 20.167969 C 6.527344 20.1875 6.019531 19.984375 5.566406 19.585938 C 5.566406 19.519531 5.566406 19.457031 5.566406 19.390625 C 5.617188 19.417969 5.664062 19.445312 5.714844 19.472656 C 6.488281 19.875 7.152344 20.03125 8 19.777344 C 8.019531 19.753906 8.042969 19.734375 8.0625 19.710938 C 7.984375 19.710938 7.90625 19.707031 7.828125 19.703125 C 7.722656 19.699219 7.621094 19.695312 7.515625 19.691406 C 7.4375 19.691406 7.4375 19.691406 7.359375 19.6875 C 7.019531 19.671875 6.769531 19.609375 6.464844 19.457031 C 6.464844 19.433594 6.464844 19.414062 6.464844 19.390625 C 6.507812 19.394531 6.550781 19.394531 6.59375 19.394531 C 7.691406 19.445312 7.691406 19.445312 8.769531 19.265625 C 8.832031 19.199219 8.832031 19.199219 8.894531 19.136719 C 8.800781 19.167969 8.800781 19.167969 8.703125 19.199219 C 8.519531 19.207031 8.339844 19.210938 8.15625 19.210938 C 8.105469 19.210938 8.054688 19.214844 8.003906 19.214844 C 7.875 19.214844 7.746094 19.207031 7.617188 19.199219 C 7.574219 19.15625 7.53125 19.117188 7.488281 19.070312 C 7.523438 19.066406 7.558594 19.0625 7.597656 19.058594 C 8.652344 18.933594 9.503906 18.78125 10.34375 18.09375 C 10.574219 17.90625 10.816406 17.738281 11.0625 17.574219 C 11.101562 17.550781 11.140625 17.523438 11.179688 17.496094 C 11.4375 17.328125 11.695312 17.164062 11.96875 17.023438 C 12.03125 17.054688 12.03125 17.054688 12.097656 17.089844 C 11.992188 17.160156 11.992188 17.160156 11.890625 17.230469 C 11.441406 17.542969 10.992188 17.859375 10.5625 18.199219 C 10.527344 18.226562 10.492188 18.257812 10.457031 18.285156 C 10.296875 18.410156 10.140625 18.539062 9.980469 18.664062 C 9.445312 19.097656 8.902344 19.507812 8.320312 19.875 C 8.273438 19.90625 8.222656 19.9375 8.175781 19.96875 C 7.117188 20.621094 6.140625 20.898438 4.910156 20.613281 C 4.648438 20.535156 4.394531 20.449219 4.140625 20.347656 C 4.097656 20.332031 4.054688 20.316406 4.011719 20.296875 C 3.71875 20.175781 3.71875 20.175781 3.648438 20.03125 C 3.894531 20.074219 4.125 20.144531 4.363281 20.226562 C 4.609375 20.320312 4.609375 20.320312 4.863281 20.351562 C 4.824219 20.328125 4.785156 20.300781 4.746094 20.273438 C 3.734375 19.597656 3.175781 18.773438 2.878906 17.601562 C 2.867188 17.554688 2.855469 17.511719 2.84375 17.464844 C 2.800781 17.273438 2.8125 17.089844 2.816406 16.894531 Z M 2.816406 16.894531 "/>
<path style=" stroke:none;fill-rule:nonzero;fill:rgb(6.666667%,6.666667%,6.666667%);fill-opacity:1;" d="M 29.121094 16.894531 C 29.140625 16.894531 29.164062 16.894531 29.183594 16.894531 C 29.199219 17.257812 29.164062 17.5625 29.046875 17.90625 C 29.035156 17.953125 29.019531 17.996094 29.003906 18.042969 C 28.675781 19.007812 28.050781 19.785156 27.199219 20.351562 C 27.234375 20.339844 27.269531 20.328125 27.304688 20.316406 C 27.457031 20.261719 27.613281 20.210938 27.769531 20.15625 C 27.820312 20.136719 27.875 20.117188 27.929688 20.097656 C 27.984375 20.082031 28.035156 20.0625 28.085938 20.046875 C 28.136719 20.03125 28.183594 20.011719 28.230469 19.996094 C 28.351562 19.96875 28.351562 19.96875 28.480469 20.03125 C 27.414062 20.617188 26.300781 20.914062 25.105469 20.609375 C 23.839844 20.210938 22.75 19.222656 21.730469 18.417969 C 21.175781 17.980469 20.617188 17.550781 20.03125 17.152344 C 20.074219 17.132812 20.117188 17.109375 20.160156 17.089844 C 20.316406 17.171875 20.464844 17.257812 20.613281 17.351562 C 20.65625 17.378906 20.703125 17.410156 20.75 17.4375 C 21.042969 17.625 21.316406 17.832031 21.585938 18.050781 C 22.472656 18.769531 23.390625 18.988281 24.511719 19.070312 C 24.382812 19.199219 24.382812 19.199219 24.257812 19.214844 C 24.207031 19.214844 24.15625 19.214844 24.105469 19.210938 C 24.050781 19.210938 23.996094 19.210938 23.941406 19.210938 C 23.882812 19.210938 23.828125 19.210938 23.769531 19.207031 C 23.683594 19.207031 23.683594 19.207031 23.59375 19.207031 C 23.453125 19.203125 23.308594 19.203125 23.167969 19.199219 C 23.542969 19.332031 23.867188 19.398438 24.265625 19.398438 C 24.339844 19.398438 24.414062 19.398438 24.492188 19.398438 C 24.566406 19.398438 24.644531 19.398438 24.722656 19.394531 C 24.800781 19.394531 24.878906 19.394531 24.960938 19.394531 C 25.152344 19.394531 25.34375 19.394531 25.535156 19.390625 C 25.160156 19.695312 24.667969 19.722656 24.195312 19.707031 C 24.066406 19.691406 23.9375 19.671875 23.808594 19.648438 C 24.519531 19.96875 25.113281 19.957031 25.855469 19.710938 C 26.074219 19.617188 26.285156 19.507812 26.496094 19.390625 C 26.347656 19.726562 26.097656 19.894531 25.769531 20.03125 C 25.402344 20.152344 25.085938 20.179688 24.703125 20.160156 C 25.101562 20.328125 25.402344 20.441406 25.828125 20.296875 C 26.394531 20.042969 26.824219 19.652344 27.277344 19.238281 C 27.460938 19.074219 27.652344 18.914062 27.839844 18.753906 C 27.839844 19.015625 27.699219 19.125 27.527344 19.308594 C 27.496094 19.34375 27.464844 19.375 27.433594 19.410156 C 27.003906 19.863281 26.554688 20.226562 25.984375 20.480469 C 26.609375 20.550781 26.949219 20.273438 27.429688 19.902344 C 28.371094 19.117188 28.792969 18.050781 29.121094 16.894531 Z M 29.121094 16.894531 "/>
<path style=" stroke:none;fill-rule:nonzero;fill:rgb(93.333333%,93.333333%,93.333333%);fill-opacity:1;" d="M 26.246094 11.492188 C 27.609375 11.519531 29.03125 12.402344 30.007812 13.296875 C 30.304688 13.609375 30.644531 13.984375 30.785156 14.398438 C 30.722656 14.539062 30.722656 14.539062 30.65625 14.65625 C 30.625 14.617188 30.589844 14.574219 30.558594 14.535156 C 30.183594 14.09375 29.804688 13.800781 29.3125 13.503906 C 29.289062 13.546875 29.269531 13.589844 29.246094 13.632812 C 29.1875 13.601562 29.125 13.574219 29.058594 13.542969 C 28.976562 13.503906 28.890625 13.464844 28.808594 13.425781 C 28.765625 13.402344 28.71875 13.382812 28.675781 13.363281 C 28.433594 13.246094 28.1875 13.140625 27.9375 13.046875 C 27.652344 12.9375 27.441406 12.789062 27.199219 12.609375 C 27.023438 12.527344 27.023438 12.527344 26.878906 12.480469 C 27.117188 12.402344 27.226562 12.441406 27.46875 12.5 C 27.546875 12.519531 27.625 12.539062 27.703125 12.558594 C 27.746094 12.570312 27.785156 12.582031 27.828125 12.59375 C 27.949219 12.625 28.074219 12.652344 28.195312 12.683594 C 28.582031 12.78125 28.953125 12.882812 29.3125 13.054688 C 28.582031 12.550781 27.761719 12.410156 26.90625 12.234375 C 26.550781 12.160156 26.199219 12.082031 25.855469 11.96875 C 25.816406 11.816406 25.816406 11.816406 25.792969 11.648438 C 25.957031 11.484375 26.019531 11.496094 26.246094 11.492188 Z M 26.246094 11.492188 "/>
<path style=" stroke:none;fill-rule:nonzero;fill:rgb(95.294118%,95.294118%,95.294118%);fill-opacity:1;" d="M 13.871094 9.578125 C 13.917969 9.578125 13.960938 9.578125 14.007812 9.574219 C 14.347656 9.570312 14.519531 9.644531 14.785156 9.855469 C 14.703125 10.089844 14.675781 10.160156 14.464844 10.304688 C 14.410156 10.273438 14.359375 10.242188 14.304688 10.207031 C 14.03125 10.089844 13.863281 10.09375 13.566406 10.113281 C 13.484375 10.179688 13.484375 10.179688 13.5 10.339844 C 13.5 10.390625 13.503906 10.441406 13.503906 10.496094 C 13.714844 10.585938 13.921875 10.648438 14.140625 10.707031 C 14.445312 10.796875 14.625 10.910156 14.847656 11.136719 C 14.949219 11.34375 14.941406 11.550781 14.910156 11.777344 C 14.738281 12.117188 14.539062 12.25 14.207031 12.414062 C 13.753906 12.46875 13.382812 12.398438 12.992188 12.160156 C 12.878906 12.054688 12.878906 12.054688 12.800781 11.96875 C 12.894531 11.667969 12.894531 11.667969 13.0625 11.5625 C 13.105469 11.550781 13.144531 11.535156 13.183594 11.519531 C 13.234375 11.574219 13.28125 11.625 13.332031 11.679688 C 13.578125 11.890625 13.820312 11.867188 14.132812 11.851562 C 14.179688 11.847656 14.222656 11.84375 14.273438 11.839844 C 14.273438 11.691406 14.273438 11.542969 14.273438 11.390625 C 14.207031 11.371094 14.140625 11.351562 14.074219 11.332031 C 13.984375 11.304688 13.898438 11.277344 13.8125 11.246094 C 13.769531 11.234375 13.726562 11.222656 13.679688 11.207031 C 13.363281 11.105469 13.109375 10.976562 12.90625 10.699219 C 12.839844 10.484375 12.832031 10.335938 12.863281 10.113281 C 13.144531 9.679688 13.367188 9.585938 13.871094 9.578125 Z M 13.871094 9.578125 "/>
<path style=" stroke:none;fill-rule:nonzero;fill:rgb(95.294118%,95.294118%,95.294118%);fill-opacity:1;" d="M 6.078125 11.519531 C 6.144531 11.582031 6.144531 11.582031 6.207031 11.648438 C 6.199219 11.808594 6.199219 11.808594 6.144531 11.96875 C 5.992188 12.085938 5.871094 12.097656 5.683594 12.125 C 5.328125 12.175781 4.976562 12.253906 4.628906 12.335938 C 4.542969 12.355469 4.457031 12.371094 4.375 12.390625 C 3.785156 12.519531 3.277344 12.695312 2.753906 12.992188 C 2.792969 12.980469 2.832031 12.96875 2.871094 12.957031 C 3.046875 12.921875 3.117188 12.964844 3.265625 13.054688 C 3.199219 13.085938 3.136719 13.117188 3.074219 13.148438 C 2.988281 13.191406 2.90625 13.230469 2.824219 13.273438 C 2.78125 13.292969 2.742188 13.3125 2.699219 13.332031 C 2.523438 13.421875 2.378906 13.492188 2.238281 13.632812 C 2.238281 13.695312 2.238281 13.757812 2.238281 13.824219 C 2.125 13.925781 2.125 13.925781 1.972656 14.035156 C 1.71875 14.222656 1.53125 14.40625 1.34375 14.65625 C 1.257812 14.480469 1.269531 14.371094 1.328125 14.1875 C 1.871094 13.039062 3.253906 12.222656 4.398438 11.796875 C 5.550781 11.390625 5.550781 11.390625 6.078125 11.519531 Z M 6.078125 11.519531 "/>
<path style=" stroke:none;fill-rule:nonzero;fill:rgb(95.294118%,95.294118%,95.294118%);fill-opacity:1;" d="M 29.3125 15.871094 C 29.605469 16.136719 29.703125 16.484375 29.722656 16.867188 C 29.726562 16.96875 29.726562 17.070312 29.722656 17.171875 C 29.722656 17.226562 29.722656 17.277344 29.722656 17.332031 C 29.714844 17.757812 29.632812 18.113281 29.441406 18.496094 C 29.417969 18.542969 29.390625 18.59375 29.367188 18.640625 C 29.347656 18.679688 29.332031 18.714844 29.3125 18.753906 C 29.25 18.730469 29.183594 18.710938 29.121094 18.6875 C 29.078125 18.730469 29.035156 18.773438 28.992188 18.816406 C 28.949219 18.816406 28.90625 18.816406 28.863281 18.816406 C 28.832031 18.855469 28.804688 18.898438 28.773438 18.941406 C 28.671875 19.070312 28.671875 19.070312 28.480469 19.136719 C 28.566406 18.914062 28.660156 18.703125 28.765625 18.488281 C 29 17.964844 29.152344 17.472656 29.121094 16.894531 C 29.078125 16.894531 29.035156 16.894531 28.992188 16.894531 C 29.007812 16.847656 29.027344 16.796875 29.042969 16.742188 C 29.140625 16.453125 29.226562 16.164062 29.3125 15.871094 Z M 29.3125 15.871094 "/>
<path style=" stroke:none;fill-rule:nonzero;fill:rgb(99.607843%,99.607843%,99.607843%);fill-opacity:1;" d="M 15.425781 9.601562 C 15.59375 9.601562 15.761719 9.601562 15.9375 9.601562 C 15.9375 10.507812 15.9375 11.417969 15.9375 12.351562 C 15.765625 12.351562 15.597656 12.351562 15.425781 12.351562 C 15.425781 11.445312 15.425781 10.535156 15.425781 9.601562 Z M 15.425781 9.601562 "/>
<path style=" stroke:none;fill-rule:nonzero;fill:rgb(92.156863%,92.156863%,92.156863%);fill-opacity:1;" d="M 3.710938 13.3125 C 3.753906 13.332031 3.796875 13.355469 3.839844 13.375 C 3.777344 13.398438 3.714844 13.417969 3.648438 13.441406 C 3.605469 13.523438 3.5625 13.609375 3.519531 13.695312 C 3.304688 14.003906 3.101562 14.140625 2.773438 14.316406 C 2.34375 14.558594 2.0625 14.886719 1.8125 15.308594 C 1.726562 15.425781 1.726562 15.425781 1.535156 15.488281 C 1.425781 15.648438 1.425781 15.648438 1.34375 15.808594 C 1.265625 15.707031 1.265625 15.707031 1.214844 15.550781 C 1.332031 15.332031 1.332031 15.332031 1.40625 15.222656 C 1.480469 15.101562 1.480469 15.101562 1.5 14.941406 C 1.617188 14.433594 2.515625 13.96875 2.945312 13.695312 C 3.191406 13.550781 3.441406 13.410156 3.710938 13.3125 Z M 3.710938 13.3125 "/>
<path style=" stroke:none;fill-rule:nonzero;fill:rgb(94.901961%,94.901961%,94.901961%);fill-opacity:1;" d="M 26.878906 12.414062 C 27.320312 12.503906 27.761719 12.59375 28.199219 12.695312 C 28.257812 12.707031 28.3125 12.722656 28.371094 12.734375 C 28.738281 12.820312 29.050781 12.925781 29.375 13.121094 C 29.40625 13.214844 29.40625 13.214844 29.441406 13.3125 C 29.558594 13.398438 29.558594 13.398438 29.699219 13.480469 C 30.039062 13.695312 30.277344 13.964844 30.527344 14.273438 C 30.292969 14.273438 30.265625 14.226562 30.101562 14.066406 C 29.855469 13.84375 29.597656 13.667969 29.3125 13.503906 C 29.289062 13.546875 29.269531 13.589844 29.246094 13.632812 C 29.1875 13.601562 29.125 13.574219 29.058594 13.542969 C 28.976562 13.503906 28.890625 13.464844 28.808594 13.425781 C 28.765625 13.402344 28.71875 13.382812 28.675781 13.363281 C 28.433594 13.246094 28.1875 13.140625 27.9375 13.046875 C 27.652344 12.9375 27.441406 12.789062 27.199219 12.609375 C 27.023438 12.527344 27.023438 12.527344 26.878906 12.480469 C 26.878906 12.457031 26.878906 12.4375 26.878906 12.414062 Z M 26.878906 12.414062 "/>
<path style=" stroke:none;fill-rule:nonzero;fill:rgb(92.941176%,92.941176%,92.941176%);fill-opacity:1;" d="M 28.097656 13.246094 C 29.023438 13.601562 29.800781 14.183594 30.527344 14.847656 C 30.496094 14.941406 30.496094 14.941406 30.464844 15.039062 C 30.546875 15.171875 30.632812 15.296875 30.71875 15.425781 C 30.71875 15.464844 30.71875 15.507812 30.71875 15.550781 C 30.65625 15.574219 30.59375 15.59375 30.527344 15.617188 C 30.417969 15.511719 30.320312 15.40625 30.226562 15.289062 C 29.8125 14.769531 29.417969 14.363281 28.820312 14.054688 C 28.628906 13.921875 28.511719 13.753906 28.378906 13.5625 C 28.292969 13.445312 28.203125 13.347656 28.097656 13.246094 Z M 28.097656 13.246094 "/>
<path style=" stroke:none;fill-rule:nonzero;fill:rgb(97.254902%,97.254902%,97.254902%);fill-opacity:1;" d="M 26.289062 11.507812 C 26.355469 11.507812 26.421875 11.507812 26.492188 11.503906 C 26.742188 11.523438 26.929688 11.582031 27.125 11.742188 C 27.199219 11.839844 27.199219 11.839844 27.199219 11.96875 C 27.304688 11.96875 27.410156 11.96875 27.519531 11.96875 C 27.519531 12.011719 27.519531 12.050781 27.519531 12.097656 C 27.589844 12.105469 27.664062 12.113281 27.734375 12.121094 C 27.96875 12.160156 27.96875 12.160156 28.097656 12.289062 C 27.96875 12.414062 27.96875 12.414062 27.847656 12.421875 C 27.417969 12.378906 27.015625 12.273438 26.597656 12.15625 C 26.367188 12.089844 26.367188 12.089844 26.121094 12.066406 C 26.054688 12.054688 25.988281 12.042969 25.921875 12.03125 C 25.792969 11.839844 25.792969 11.839844 25.8125 11.703125 C 25.902344 11.457031 26.042969 11.507812 26.289062 11.507812 Z M 26.289062 11.507812 "/>
<path style=" stroke:none;fill-rule:nonzero;fill:rgb(94.901961%,94.901961%,94.901961%);fill-opacity:1;" d="M 2.625 16 C 2.777344 16.152344 2.816406 16.28125 2.886719 16.488281 C 2.910156 16.550781 2.933594 16.617188 2.957031 16.683594 C 2.972656 16.730469 2.992188 16.78125 3.007812 16.832031 C 2.945312 16.863281 2.945312 16.863281 2.878906 16.894531 C 2.867188 17.21875 2.902344 17.480469 2.996094 17.789062 C 3.019531 17.867188 3.042969 17.941406 3.066406 18.023438 C 3.144531 18.269531 3.230469 18.511719 3.328125 18.753906 C 3.234375 18.785156 3.234375 18.785156 3.136719 18.816406 C 3.050781 18.625 2.96875 18.4375 2.878906 18.238281 C 2.902344 18.386719 2.921875 18.535156 2.945312 18.6875 C 2.714844 18.542969 2.640625 18.433594 2.574219 18.171875 C 2.417969 17.472656 2.417969 16.691406 2.625 16 Z M 2.625 16 "/>
<path style=" stroke:none;fill-rule:nonzero;fill:rgb(94.509804%,94.509804%,94.509804%);fill-opacity:1;" d="M 3.007812 14.273438 C 3.007812 14.636719 2.871094 15.019531 2.644531 15.300781 C 2.566406 15.375 2.492188 15.449219 2.410156 15.519531 C 2.289062 15.621094 2.289062 15.621094 2.160156 15.796875 C 2.046875 15.9375 2.046875 15.9375 1.855469 16.0625 C 1.835938 16.023438 1.8125 15.980469 1.792969 15.9375 C 1.730469 16.105469 1.664062 16.273438 1.601562 16.449219 C 1.527344 16.339844 1.527344 16.339844 1.472656 16.191406 C 1.726562 15.414062 2.386719 14.773438 3.007812 14.273438 Z M 3.007812 14.273438 "/>
<path style=" stroke:none;fill-rule:nonzero;fill:rgb(94.901961%,94.901961%,94.901961%);fill-opacity:1;" d="M 28.929688 14.273438 C 29.585938 14.660156 30.28125 15.390625 30.527344 16.128906 C 30.464844 16.128906 30.402344 16.128906 30.335938 16.128906 C 30.230469 15.9375 30.125 15.746094 30.015625 15.550781 C 30.046875 15.621094 30.046875 15.621094 30.074219 15.691406 C 30.140625 15.859375 30.179688 16.015625 30.207031 16.191406 C 30.164062 16.214844 30.125 16.234375 30.078125 16.257812 C 30.058594 16.214844 30.035156 16.175781 30.015625 16.136719 C 29.84375 15.835938 29.671875 15.578125 29.433594 15.328125 C 29.167969 15.042969 28.929688 14.671875 28.929688 14.273438 Z M 28.929688 14.273438 "/>
<path style=" stroke:none;fill-rule:nonzero;fill:rgb(5.098039%,5.098039%,5.098039%);fill-opacity:1;" d="M 2.816406 16.894531 C 2.921875 17.058594 2.972656 17.15625 3.027344 17.335938 C 3.042969 17.382812 3.058594 17.429688 3.070312 17.480469 C 3.097656 17.554688 3.097656 17.554688 3.121094 17.632812 C 3.429688 18.585938 3.902344 19.335938 4.671875 19.988281 C 4.785156 20.082031 4.890625 20.183594 4.992188 20.289062 C 4.929688 20.320312 4.929688 20.320312 4.863281 20.351562 C 3.796875 19.660156 3.191406 18.828125 2.878906 17.601562 C 2.867188 17.554688 2.855469 17.511719 2.84375 17.464844 C 2.800781 17.273438 2.8125 17.089844 2.816406 16.894531 Z M 2.816406 16.894531 "/>
<path style=" stroke:none;fill-rule:nonzero;fill:rgb(90.588235%,90.588235%,90.588235%);fill-opacity:1;" d="M 25.984375 19.328125 C 26.046875 19.308594 26.109375 19.285156 26.175781 19.265625 C 26.21875 19.285156 26.261719 19.304688 26.304688 19.328125 C 26.054688 19.691406 25.832031 19.800781 25.40625 19.902344 C 25.328125 19.925781 25.328125 19.925781 25.242188 19.949219 C 24.777344 20.007812 24.371094 19.964844 23.9375 19.777344 C 23.820312 19.671875 23.820312 19.671875 23.742188 19.585938 C 23.785156 19.589844 23.828125 19.597656 23.867188 19.601562 C 24.347656 19.660156 24.8125 19.652344 25.28125 19.519531 C 25.386719 19.425781 25.386719 19.425781 25.472656 19.328125 C 25.816406 19.242188 25.816406 19.242188 25.984375 19.328125 Z M 25.984375 19.328125 "/>
<path style=" stroke:none;fill-rule:nonzero;fill:rgb(94.901961%,94.901961%,94.901961%);fill-opacity:1;" d="M 4.929688 12.542969 C 3.570312 13.441406 3.570312 13.441406 2.878906 13.441406 C 2.792969 13.460938 2.707031 13.480469 2.625 13.503906 C 2.773438 13.332031 2.898438 13.269531 3.117188 13.203125 C 3.167969 13.1875 3.21875 13.171875 3.273438 13.15625 C 3.3125 13.144531 3.351562 13.132812 3.390625 13.121094 C 3.371094 13.054688 3.351562 12.992188 3.328125 12.929688 C 3.390625 12.90625 3.453125 12.886719 3.519531 12.863281 C 3.542969 12.820312 3.5625 12.78125 3.585938 12.734375 C 3.695312 12.695312 3.695312 12.695312 3.835938 12.664062 C 3.886719 12.652344 3.9375 12.640625 3.988281 12.628906 C 4.070312 12.613281 4.070312 12.613281 4.152344 12.597656 C 4.203125 12.582031 4.257812 12.570312 4.3125 12.558594 C 4.710938 12.472656 4.710938 12.472656 4.929688 12.542969 Z M 4.929688 12.542969 "/>
<path style=" stroke:none;fill-rule:nonzero;fill:rgb(8.627451%,8.627451%,8.627451%);fill-opacity:1;" d="M 27.328125 12.289062 C 27.394531 12.300781 27.394531 12.300781 27.464844 12.3125 C 28.097656 12.433594 28.703125 12.5625 29.246094 12.929688 C 29.289062 12.992188 29.332031 13.054688 29.375 13.121094 C 29.320312 13.101562 29.265625 13.082031 29.207031 13.0625 C 28.710938 12.898438 28.207031 12.761719 27.699219 12.636719 C 27.597656 12.613281 27.597656 12.613281 27.492188 12.585938 C 27.351562 12.554688 27.210938 12.519531 27.070312 12.488281 C 27.007812 12.472656 26.941406 12.457031 26.878906 12.441406 C 26.820312 12.425781 26.761719 12.410156 26.703125 12.398438 C 26.558594 12.351562 26.558594 12.351562 26.433594 12.222656 C 26.695312 12.09375 27.050781 12.234375 27.328125 12.289062 Z M 27.328125 12.289062 "/>
<path style=" stroke:none;fill-rule:nonzero;fill:rgb(9.803922%,9.803922%,9.803922%);fill-opacity:1;" d="M 5.183594 12.289062 C 5.214844 12.351562 5.214844 12.351562 5.246094 12.414062 C 5.039062 12.507812 4.847656 12.566406 4.621094 12.601562 C 3.941406 12.714844 3.273438 12.886719 2.625 13.121094 C 3.015625 12.636719 3.667969 12.484375 4.246094 12.359375 C 4.308594 12.34375 4.371094 12.332031 4.4375 12.316406 C 4.957031 12.203125 4.957031 12.203125 5.183594 12.289062 Z M 5.183594 12.289062 "/>
<path style=" stroke:none;fill-rule:nonzero;fill:rgb(5.882353%,5.882353%,5.882353%);fill-opacity:1;" d="M 2.6875 15.296875 C 2.710938 15.296875 2.730469 15.296875 2.753906 15.296875 C 2.753906 15.570312 2.753906 15.84375 2.753906 16.128906 C 2.6875 16.160156 2.6875 16.160156 2.625 16.191406 C 2.550781 16.5 2.546875 16.8125 2.542969 17.128906 C 2.542969 17.179688 2.542969 17.230469 2.542969 17.28125 C 2.546875 17.65625 2.601562 17.992188 2.714844 18.351562 C 2.753906 18.496094 2.753906 18.496094 2.6875 18.6875 C 2.636719 18.589844 2.582031 18.488281 2.53125 18.386719 C 2.503906 18.332031 2.472656 18.277344 2.445312 18.21875 C 2.183594 17.636719 2.214844 16.8125 2.433594 16.21875 C 2.472656 16.125 2.515625 16.03125 2.558594 15.9375 C 2.601562 15.9375 2.644531 15.9375 2.6875 15.9375 C 2.683594 15.894531 2.675781 15.855469 2.671875 15.8125 C 2.660156 15.734375 2.660156 15.734375 2.652344 15.652344 C 2.644531 15.597656 2.636719 15.546875 2.632812 15.492188 C 2.628906 15.449219 2.625 15.40625 2.625 15.359375 C 2.644531 15.339844 2.667969 15.316406 2.6875 15.296875 Z M 2.6875 15.296875 "/>
<path style=" stroke:none;fill-rule:nonzero;fill:rgb(5.882353%,5.882353%,5.882353%);fill-opacity:1;" d="M 3.902344 13.121094 C 3.902344 13.183594 3.902344 13.246094 3.902344 13.3125 C 3.839844 13.34375 3.777344 13.371094 3.710938 13.402344 C 2.933594 13.777344 2.238281 14.203125 1.601562 14.785156 C 1.824219 14.113281 2.460938 13.742188 3.046875 13.421875 C 3.648438 13.121094 3.648438 13.121094 3.902344 13.121094 Z M 3.902344 13.121094 "/>
<path style=" stroke:none;fill-rule:nonzero;fill:rgb(5.098039%,5.098039%,5.098039%);fill-opacity:1;" d="M 28.097656 13.121094 C 28.414062 13.15625 28.667969 13.257812 28.945312 13.40625 C 28.984375 13.429688 29.027344 13.453125 29.070312 13.476562 C 29.601562 13.773438 30.03125 14.175781 30.398438 14.65625 C 30.378906 14.699219 30.359375 14.742188 30.335938 14.785156 C 30.253906 14.691406 30.253906 14.691406 30.171875 14.601562 C 29.589844 14.019531 28.824219 13.617188 28.097656 13.246094 C 28.097656 13.207031 28.097656 13.164062 28.097656 13.121094 Z M 28.097656 13.121094 "/>
<path style=" stroke:none;fill-rule:nonzero;fill:rgb(6.666667%,6.666667%,6.666667%);fill-opacity:1;" d="M 3.007812 14.078125 C 3.050781 14.101562 3.09375 14.121094 3.136719 14.144531 C 3.0625 14.367188 2.992188 14.390625 2.804688 14.511719 C 2.210938 14.929688 1.8125 15.566406 1.472656 16.191406 C 1.40625 16.019531 1.40625 15.945312 1.464844 15.769531 C 1.820312 15.042969 2.304688 14.484375 3.007812 14.078125 Z M 3.007812 14.078125 "/>
<path style=" stroke:none;fill-rule:nonzero;fill:rgb(3.921569%,3.921569%,3.921569%);fill-opacity:1;" d="M 29.375 16 C 29.609375 16.191406 29.679688 16.414062 29.710938 16.710938 C 29.71875 16.863281 29.71875 17.011719 29.71875 17.164062 C 29.71875 17.246094 29.71875 17.246094 29.71875 17.328125 C 29.710938 17.785156 29.65625 18.257812 29.335938 18.609375 C 29.304688 18.636719 29.277344 18.660156 29.246094 18.6875 C 29.375 18.046875 29.375 18.046875 29.410156 17.898438 C 29.449219 17.667969 29.449219 17.4375 29.449219 17.203125 C 29.449219 17.15625 29.449219 17.109375 29.449219 17.058594 C 29.445312 16.703125 29.421875 16.355469 29.375 16 Z M 29.375 16 "/>
<path style=" stroke:none;fill-rule:nonzero;fill:rgb(9.411765%,9.411765%,9.411765%);fill-opacity:1;" d="M 29.246094 15.296875 C 29.332031 15.296875 29.417969 15.296875 29.503906 15.296875 C 30.046875 15.855469 30.304688 16.480469 30.292969 17.25 C 30.273438 17.40625 30.273438 17.40625 30.144531 17.535156 C 30.132812 17.441406 30.132812 17.441406 30.121094 17.347656 C 30.027344 16.710938 29.847656 15.960938 29.375 15.488281 C 29.332031 15.550781 29.292969 15.613281 29.246094 15.679688 C 29.246094 15.554688 29.246094 15.425781 29.246094 15.296875 Z M 29.246094 15.296875 "/>
<path style=" stroke:none;fill-rule:nonzero;fill:rgb(8.235294%,8.235294%,8.235294%);fill-opacity:1;" d="M 29.054688 14.207031 C 29.761719 14.453125 30.210938 15.097656 30.527344 15.742188 C 30.59375 15.941406 30.628906 16.113281 30.65625 16.320312 C 30.511719 16.136719 30.390625 15.945312 30.273438 15.742188 C 30.089844 15.453125 29.886719 15.195312 29.652344 14.945312 C 29.621094 14.910156 29.59375 14.878906 29.5625 14.847656 C 29.4375 14.710938 29.3125 14.59375 29.164062 14.484375 C 29.128906 14.457031 29.09375 14.429688 29.054688 14.398438 C 29.054688 14.335938 29.054688 14.273438 29.054688 14.207031 Z M 29.054688 14.207031 "/>
<path style=" stroke:none;fill-rule:nonzero;fill:rgb(6.27451%,6.27451%,6.27451%);fill-opacity:1;" d="M 2.496094 15.425781 C 2.515625 15.488281 2.539062 15.550781 2.558594 15.617188 C 2.492188 15.75 2.492188 15.75 2.386719 15.902344 C 2.0625 16.421875 1.894531 16.925781 1.855469 17.535156 C 1.671875 17.257812 1.691406 17.027344 1.726562 16.703125 C 1.839844 16.238281 2.039062 15.839844 2.367188 15.488281 C 2.410156 15.46875 2.453125 15.445312 2.496094 15.425781 Z M 2.496094 15.425781 "/>
<path style=" stroke:none;fill-rule:nonzero;fill:rgb(92.156863%,92.156863%,92.156863%);fill-opacity:1;" d="M 26.878906 12.414062 C 27.027344 12.445312 27.171875 12.472656 27.316406 12.503906 C 27.464844 12.53125 27.613281 12.5625 27.757812 12.589844 C 27.839844 12.605469 27.921875 12.621094 28.003906 12.636719 C 28.082031 12.652344 28.15625 12.664062 28.234375 12.679688 C 28.296875 12.699219 28.355469 12.71875 28.414062 12.734375 C 28.4375 12.800781 28.457031 12.863281 28.480469 12.929688 C 28.394531 12.929688 28.3125 12.929688 28.222656 12.929688 C 28.289062 12.96875 28.351562 13.011719 28.414062 13.054688 C 28.375 13.097656 28.332031 13.140625 28.289062 13.183594 C 27.972656 13.070312 27.675781 12.960938 27.402344 12.761719 C 27.226562 12.628906 27.085938 12.546875 26.878906 12.480469 C 26.878906 12.457031 26.878906 12.4375 26.878906 12.414062 Z M 26.878906 12.414062 "/>
<path style=" stroke:none;fill-rule:nonzero;fill:rgb(93.333333%,93.333333%,93.333333%);fill-opacity:1;" d="M 3.710938 13.3125 C 3.753906 13.332031 3.796875 13.355469 3.839844 13.375 C 3.777344 13.398438 3.714844 13.417969 3.648438 13.441406 C 3.605469 13.523438 3.5625 13.609375 3.519531 13.695312 C 3.183594 14.140625 3.183594 14.140625 2.945312 14.207031 C 2.769531 14.183594 2.769531 14.183594 2.625 14.144531 C 2.601562 14.082031 2.582031 14.015625 2.558594 13.953125 C 2.703125 13.871094 2.847656 13.785156 2.992188 13.703125 C 3.03125 13.679688 3.074219 13.65625 3.113281 13.632812 C 3.226562 13.566406 3.34375 13.503906 3.457031 13.441406 C 3.503906 13.414062 3.554688 13.382812 3.605469 13.355469 C 3.640625 13.339844 3.675781 13.328125 3.710938 13.3125 Z M 3.710938 13.3125 "/>
<path style=" stroke:none;fill-rule:nonzero;fill:rgb(93.72549%,93.72549%,93.72549%);fill-opacity:1;" d="M 19.328125 20.097656 C 19.414062 20.433594 19.414062 20.433594 19.324219 20.628906 C 19.15625 20.773438 19.035156 20.789062 18.816406 20.800781 C 18.753906 20.757812 18.6875 20.714844 18.625 20.671875 C 18.625 20.628906 18.625 20.585938 18.625 20.542969 C 18.746094 20.433594 18.746094 20.433594 18.902344 20.3125 C 18.980469 20.25 18.980469 20.25 19.0625 20.191406 C 19.199219 20.097656 19.199219 20.097656 19.328125 20.097656 Z M 19.328125 20.097656 "/>
<path style=" stroke:none;fill-rule:nonzero;fill:rgb(94.117647%,94.117647%,94.117647%);fill-opacity:1;" d="M 12.222656 20.03125 C 12.328125 20.03125 12.433594 20.03125 12.542969 20.03125 C 12.542969 20.070312 12.542969 20.109375 12.542969 20.152344 C 12.542969 20.203125 12.539062 20.253906 12.539062 20.308594 C 12.539062 20.359375 12.539062 20.410156 12.539062 20.464844 C 12.539062 20.617188 12.539062 20.617188 12.609375 20.800781 C 12.898438 20.898438 13.1875 20.914062 13.472656 20.800781 C 13.503906 20.777344 13.535156 20.757812 13.566406 20.734375 C 13.566406 20.800781 13.566406 20.863281 13.566406 20.929688 C 13.21875 21.046875 12.820312 21.050781 12.476562 20.910156 C 12.300781 20.753906 12.230469 20.652344 12.214844 20.414062 C 12.214844 20.285156 12.21875 20.160156 12.222656 20.03125 Z M 12.222656 20.03125 "/>
<path style=" stroke:none;fill-rule:nonzero;fill:rgb(95.294118%,95.294118%,95.294118%);fill-opacity:1;" d="M 19.585938 20.03125 C 19.648438 20.03125 19.710938 20.03125 19.777344 20.03125 C 19.804688 20.597656 19.804688 20.597656 19.585938 20.863281 C 19.378906 20.992188 19.214844 21.007812 18.976562 21.007812 C 18.914062 21.007812 18.855469 21.007812 18.792969 21.007812 C 18.621094 20.992188 18.515625 20.953125 18.367188 20.863281 C 18.410156 20.820312 18.453125 20.78125 18.496094 20.734375 C 18.558594 20.777344 18.621094 20.820312 18.6875 20.863281 C 18.8125 20.882812 18.8125 20.882812 18.945312 20.875 C 19.007812 20.875 19.007812 20.875 19.074219 20.875 C 19.214844 20.867188 19.214844 20.867188 19.390625 20.800781 C 19.402344 20.75 19.410156 20.699219 19.417969 20.648438 C 19.429688 20.582031 19.441406 20.519531 19.453125 20.453125 C 19.46875 20.355469 19.46875 20.355469 19.484375 20.257812 C 19.519531 20.097656 19.519531 20.097656 19.585938 20.03125 Z M 19.585938 20.03125 "/>
<path style=" stroke:none;fill-rule:nonzero;fill:rgb(94.509804%,94.509804%,94.509804%);fill-opacity:1;" d="M 12.671875 20.097656 C 12.964844 20.191406 13.148438 20.34375 13.375 20.542969 C 13.355469 20.605469 13.332031 20.671875 13.3125 20.734375 C 13.105469 20.789062 12.976562 20.820312 12.777344 20.738281 C 12.613281 20.53125 12.65625 20.355469 12.671875 20.097656 Z M 12.671875 20.097656 "/>
<path style=" stroke:none;fill-rule:nonzero;fill:rgb(99.215686%,99.215686%,99.215686%);fill-opacity:1;" d="M 19.96875 16.703125 C 20.25 16.785156 20.464844 16.894531 20.707031 17.058594 C 20.773438 17.105469 20.839844 17.148438 20.90625 17.195312 C 20.980469 17.246094 21.050781 17.292969 21.121094 17.34375 C 21.234375 17.421875 21.351562 17.503906 21.464844 17.582031 C 21.570312 17.65625 21.679688 17.730469 21.785156 17.804688 C 21.941406 17.917969 21.941406 17.917969 22.078125 17.984375 C 22.078125 18.027344 22.078125 18.070312 22.078125 18.113281 C 21.707031 18.003906 21.378906 17.863281 21.105469 17.582031 C 20.894531 17.378906 20.671875 17.226562 20.429688 17.070312 C 20.273438 16.972656 20.121094 16.871094 19.96875 16.769531 C 19.96875 16.746094 19.96875 16.726562 19.96875 16.703125 Z M 19.96875 16.703125 "/>
<path style=" stroke:none;fill-rule:nonzero;fill:rgb(92.54902%,92.54902%,92.54902%);fill-opacity:1;" d="M 11.777344 16.703125 C 11.816406 16.726562 11.859375 16.746094 11.902344 16.769531 C 11.902344 17.03125 11.832031 17.09375 11.648438 17.28125 C 11.460938 17.398438 11.269531 17.5 11.070312 17.601562 C 11.03125 17.558594 10.988281 17.515625 10.945312 17.472656 C 11.027344 17.449219 11.113281 17.429688 11.199219 17.40625 C 11.210938 17.339844 11.222656 17.269531 11.234375 17.199219 C 11.292969 16.992188 11.367188 16.910156 11.550781 16.800781 C 11.625 16.769531 11.699219 16.738281 11.777344 16.703125 Z M 11.777344 16.703125 "/>
<path style=" stroke:none;fill-rule:nonzero;fill:rgb(91.764706%,91.764706%,91.764706%);fill-opacity:1;" d="M 8.894531 19.070312 C 8.9375 19.09375 8.980469 19.113281 9.023438 19.136719 C 8.695312 19.4375 8.234375 19.441406 7.808594 19.457031 C 7.589844 19.417969 7.433594 19.355469 7.230469 19.265625 C 7.421875 19.15625 7.554688 19.121094 7.773438 19.125 C 7.851562 19.125 7.851562 19.125 7.933594 19.128906 C 7.988281 19.128906 8.042969 19.128906 8.101562 19.132812 C 8.210938 19.132812 8.320312 19.136719 8.429688 19.136719 C 8.5 19.140625 8.5 19.140625 8.574219 19.140625 C 8.71875 19.140625 8.71875 19.140625 8.894531 19.070312 Z M 8.894531 19.070312 "/>
<path style=" stroke:none;fill-rule:nonzero;fill:rgb(99.607843%,99.607843%,99.607843%);fill-opacity:1;" d="M 9.726562 18.175781 C 9.707031 18.238281 9.6875 18.300781 9.664062 18.367188 C 9.484375 18.453125 9.484375 18.453125 9.261719 18.535156 C 9.1875 18.5625 9.113281 18.589844 9.035156 18.617188 C 8.714844 18.726562 8.46875 18.757812 8.128906 18.753906 C 8.296875 18.640625 8.425781 18.578125 8.613281 18.511719 C 8.699219 18.484375 8.699219 18.484375 8.785156 18.453125 C 8.84375 18.433594 8.902344 18.414062 8.964844 18.390625 C 9.050781 18.359375 9.050781 18.359375 9.144531 18.328125 C 9.582031 18.175781 9.582031 18.175781 9.726562 18.175781 Z M 9.726562 18.175781 "/>
<path style=" stroke:none;fill-rule:nonzero;fill:rgb(91.764706%,91.764706%,91.764706%);fill-opacity:1;" d="M 23.105469 19.136719 C 23.28125 19.144531 23.457031 19.152344 23.632812 19.160156 C 23.683594 19.160156 23.730469 19.164062 23.78125 19.164062 C 24.238281 19.1875 24.238281 19.1875 24.449219 19.328125 C 24.148438 19.507812 23.886719 19.449219 23.550781 19.390625 C 23.324219 19.332031 23.324219 19.332031 23.167969 19.265625 C 23.148438 19.222656 23.125 19.179688 23.105469 19.136719 Z M 23.105469 19.136719 "/>
<path style=" stroke:none;fill-rule:nonzero;fill:rgb(89.411765%,89.411765%,89.411765%);fill-opacity:1;" d="M 29.183594 18.367188 C 29.226562 18.496094 29.269531 18.621094 29.3125 18.753906 C 29.25 18.730469 29.183594 18.710938 29.121094 18.6875 C 29.078125 18.730469 29.035156 18.773438 28.992188 18.816406 C 28.949219 18.816406 28.90625 18.816406 28.863281 18.816406 C 28.832031 18.855469 28.804688 18.898438 28.773438 18.941406 C 28.671875 19.070312 28.671875 19.070312 28.480469 19.136719 C 28.773438 18.367188 28.773438 18.367188 29.183594 18.367188 Z M 29.183594 18.367188 "/>
<path style=" stroke:none;fill-rule:nonzero;fill:rgb(14.901961%,14.901961%,14.901961%);fill-opacity:1;" d="M 3.648438 20.03125 C 3.960938 20.085938 4.246094 20.195312 4.542969 20.304688 C 4.757812 20.359375 4.90625 20.339844 5.121094 20.289062 C 5.121094 20.351562 5.121094 20.414062 5.121094 20.480469 C 5.023438 20.554688 5.023438 20.554688 4.863281 20.609375 C 4.683594 20.558594 4.519531 20.507812 4.347656 20.4375 C 4.300781 20.417969 4.253906 20.402344 4.207031 20.382812 C 3.976562 20.292969 3.816406 20.21875 3.648438 20.03125 Z M 3.648438 20.03125 "/>
<path style=" stroke:none;fill-rule:nonzero;fill:rgb(6.27451%,6.27451%,6.27451%);fill-opacity:1;" d="M 12.480469 20.160156 C 12.542969 20.160156 12.605469 20.160156 12.671875 20.160156 C 12.679688 20.230469 12.683594 20.300781 12.691406 20.375 C 12.707031 20.453125 12.722656 20.527344 12.734375 20.609375 C 12.957031 20.753906 13.054688 20.746094 13.3125 20.734375 C 13.289062 20.800781 13.269531 20.863281 13.246094 20.929688 C 12.972656 20.953125 12.839844 20.957031 12.613281 20.796875 C 12.449219 20.566406 12.453125 20.433594 12.480469 20.160156 Z M 12.480469 20.160156 "/>
<path style=" stroke:none;fill-rule:nonzero;fill:rgb(15.294118%,15.294118%,15.294118%);fill-opacity:1;" d="M 29.121094 16.894531 C 29.140625 16.894531 29.164062 16.894531 29.183594 16.894531 C 29.222656 17.398438 29.078125 17.832031 28.929688 18.304688 C 28.863281 18.28125 28.800781 18.261719 28.734375 18.238281 C 28.785156 17.945312 28.875 17.671875 28.964844 17.386719 C 28.980469 17.339844 28.992188 17.292969 29.007812 17.246094 C 29.046875 17.128906 29.082031 17.011719 29.121094 16.894531 Z M 29.121094 16.894531 "/>
<path style=" stroke:none;fill-rule:nonzero;fill:rgb(99.215686%,99.215686%,99.215686%);fill-opacity:1;" d="M 3.585938 12.863281 C 3.519531 12.90625 3.457031 12.949219 3.390625 12.992188 C 3.390625 13.035156 3.390625 13.078125 3.390625 13.121094 C 3.226562 13.207031 3.058594 13.292969 2.890625 13.375 C 2.84375 13.402344 2.796875 13.425781 2.75 13.449219 C 2.703125 13.472656 2.65625 13.496094 2.609375 13.519531 C 2.570312 13.542969 2.527344 13.5625 2.484375 13.585938 C 2.367188 13.632812 2.367188 13.632812 2.175781 13.632812 C 2.441406 13.394531 2.703125 13.226562 3.015625 13.0625 C 3.144531 13 3.144531 13 3.199219 12.863281 C 3.390625 12.800781 3.390625 12.800781 3.585938 12.863281 Z M 3.585938 12.863281 "/>
<path style=" stroke:none;fill-rule:nonzero;fill:rgb(86.666667%,86.666667%,86.666667%);fill-opacity:1;" d="M 1.921875 15.359375 C 1.960938 15.359375 2.003906 15.359375 2.046875 15.359375 C 1.984375 15.488281 1.921875 15.617188 1.855469 15.742188 C 1.941406 15.742188 2.023438 15.742188 2.113281 15.742188 C 2.046875 15.9375 2.046875 15.9375 1.855469 16.0625 C 1.835938 16.023438 1.8125 15.980469 1.792969 15.9375 C 1.730469 16.105469 1.664062 16.273438 1.601562 16.449219 C 1.527344 16.339844 1.527344 16.339844 1.472656 16.191406 C 1.546875 15.898438 1.734375 15.601562 1.921875 15.359375 Z M 1.921875 15.359375 "/>
<path style=" stroke:none;fill-rule:nonzero;fill:rgb(99.607843%,99.607843%,99.607843%);fill-opacity:1;" d="M 16.449219 14.59375 C 16.589844 14.730469 16.71875 14.875 16.84375 15.027344 C 17.070312 15.289062 17.316406 15.484375 17.601562 15.679688 C 17.558594 15.699219 17.515625 15.722656 17.472656 15.742188 C 16.601562 15.214844 16.601562 15.214844 16.457031 14.722656 C 16.453125 14.679688 16.449219 14.636719 16.449219 14.59375 Z M 16.449219 14.59375 "/>
<path style=" stroke:none;fill-rule:nonzero;fill:rgb(83.529412%,83.529412%,83.529412%);fill-opacity:1;" d="M 4.929688 12.542969 C 4.617188 12.789062 4.300781 12.910156 3.902344 12.929688 C 3.863281 12.886719 3.820312 12.84375 3.777344 12.800781 C 3.796875 12.757812 3.816406 12.714844 3.839844 12.671875 C 4.035156 12.617188 4.035156 12.617188 4.28125 12.5625 C 4.359375 12.546875 4.441406 12.527344 4.523438 12.511719 C 4.734375 12.480469 4.734375 12.480469 4.929688 12.542969 Z M 4.929688 12.542969 "/>
<path style=" stroke:none;fill-rule:nonzero;fill:rgb(9.803922%,9.803922%,9.803922%);fill-opacity:1;" d="M 11.96875 17.023438 C 12.011719 17.046875 12.050781 17.066406 12.097656 17.089844 C 11.921875 17.214844 11.746094 17.339844 11.566406 17.46875 C 11.519531 17.503906 11.46875 17.539062 11.417969 17.578125 C 11.367188 17.613281 11.320312 17.644531 11.269531 17.683594 C 11.203125 17.730469 11.203125 17.730469 11.136719 17.777344 C 11.007812 17.855469 10.898438 17.890625 10.753906 17.921875 C 10.828125 17.695312 10.875 17.671875 11.070312 17.554688 C 11.148438 17.503906 11.148438 17.503906 11.226562 17.457031 C 11.277344 17.425781 11.332031 17.394531 11.386719 17.359375 C 11.441406 17.328125 11.496094 17.292969 11.550781 17.257812 C 11.847656 17.078125 11.847656 17.078125 11.96875 17.023438 Z M 11.96875 17.023438 "/>
<path style=" stroke:none;fill-rule:nonzero;fill:rgb(99.607843%,99.607843%,99.607843%);fill-opacity:1;" d="M 22.015625 16.128906 C 22.175781 16.277344 22.296875 16.4375 22.421875 16.621094 C 22.621094 16.910156 22.828125 17.191406 23.039062 17.472656 C 22.566406 17.273438 22.230469 16.769531 22.015625 16.320312 C 22.015625 16.257812 22.015625 16.191406 22.015625 16.128906 Z M 22.015625 16.128906 "/>
<path style=" stroke:none;fill-rule:nonzero;fill:rgb(15.294118%,15.294118%,15.294118%);fill-opacity:1;" d="M 12.097656 13.566406 C 12.136719 13.589844 12.179688 13.609375 12.222656 13.632812 C 12.175781 13.855469 12.09375 14.054688 12.003906 14.265625 C 11.894531 14.519531 11.796875 14.773438 11.710938 15.039062 C 11.617188 14.792969 11.679688 14.621094 11.761719 14.375 C 11.78125 14.304688 11.804688 14.234375 11.828125 14.164062 C 11.902344 13.953125 11.992188 13.761719 12.097656 13.566406 Z M 12.097656 13.566406 "/>
<path style=" stroke:none;fill-rule:nonzero;fill:rgb(94.117647%,94.117647%,94.117647%);fill-opacity:1;" d="M 1.792969 15.871094 C 1.855469 15.871094 1.917969 15.871094 1.984375 15.871094 C 2.046875 16 2.046875 16 2 16.167969 C 1.972656 16.230469 1.949219 16.292969 1.925781 16.359375 C 1.898438 16.425781 1.875 16.488281 1.851562 16.554688 C 1.832031 16.605469 1.8125 16.652344 1.792969 16.703125 C 1.75 16.703125 1.707031 16.703125 1.664062 16.703125 C 1.578125 16.246094 1.578125 16.246094 1.679688 16 C 1.71875 15.957031 1.753906 15.914062 1.792969 15.871094 Z M 1.792969 15.871094 "/>
<path style=" stroke:none;fill-rule:nonzero;fill:rgb(99.607843%,99.607843%,99.607843%);fill-opacity:1;" d="M 15.488281 14.59375 C 15.507812 14.65625 15.53125 14.71875 15.550781 14.785156 C 15.335938 15.195312 14.988281 15.53125 14.558594 15.707031 C 14.507812 15.71875 14.453125 15.730469 14.398438 15.742188 C 14.5625 15.578125 14.730469 15.425781 14.90625 15.277344 C 15.148438 15.070312 15.316406 14.855469 15.488281 14.59375 Z M 15.488281 14.59375 "/>
<path style=" stroke:none;fill-rule:nonzero;fill:rgb(90.196078%,90.196078%,90.196078%);fill-opacity:1;" d="M 10.945312 17.664062 C 10.753906 17.867188 10.558594 18.011719 10.320312 18.160156 C 10.257812 18.199219 10.195312 18.238281 10.128906 18.277344 C 10.082031 18.308594 10.035156 18.335938 9.984375 18.367188 C 9.996094 18.222656 9.996094 18.222656 10.046875 18.046875 C 10.203125 17.917969 10.203125 17.917969 10.390625 17.800781 C 10.453125 17.761719 10.515625 17.722656 10.582031 17.679688 C 10.753906 17.601562 10.753906 17.601562 10.945312 17.664062 Z M 10.945312 17.664062 "/>
<path style=" stroke:none;fill-rule:nonzero;fill:rgb(99.607843%,99.607843%,99.607843%);fill-opacity:1;" d="M 19.265625 13.953125 C 19.613281 14.230469 19.78125 14.613281 19.902344 15.039062 C 19.878906 15.191406 19.878906 15.191406 19.839844 15.296875 C 19.769531 15.144531 19.695312 14.992188 19.625 14.839844 C 19.59375 14.777344 19.59375 14.777344 19.5625 14.710938 C 19.445312 14.460938 19.34375 14.214844 19.265625 13.953125 Z M 19.265625 13.953125 "/>
<path style=" stroke:none;fill-rule:nonzero;fill:rgb(87.843137%,87.843137%,87.843137%);fill-opacity:1;" d="M 20.734375 17.34375 C 20.949219 17.382812 21.085938 17.457031 21.246094 17.601562 C 21.246094 17.640625 21.246094 17.683594 21.246094 17.726562 C 21.285156 17.734375 21.324219 17.742188 21.363281 17.746094 C 21.523438 17.796875 21.589844 17.859375 21.695312 17.984375 C 21.632812 18.003906 21.570312 18.027344 21.503906 18.046875 C 21.363281 17.960938 21.238281 17.875 21.109375 17.773438 C 21.054688 17.730469 21.054688 17.730469 21 17.691406 C 20.910156 17.621094 20.820312 17.546875 20.734375 17.472656 C 20.734375 17.429688 20.734375 17.386719 20.734375 17.34375 Z M 20.734375 17.34375 "/>
<path style=" stroke:none;fill-rule:nonzero;fill:rgb(9.803922%,9.803922%,9.803922%);fill-opacity:1;" d="M 16.640625 15.679688 C 17.035156 15.785156 17.375 15.992188 17.726562 16.191406 C 17.664062 16.222656 17.664062 16.222656 17.601562 16.257812 C 17.433594 16.199219 17.273438 16.136719 17.113281 16.066406 C 17.042969 16.039062 17.042969 16.039062 16.976562 16.011719 C 16.863281 15.964844 16.75 15.917969 16.640625 15.871094 C 16.640625 15.808594 16.640625 15.746094 16.640625 15.679688 Z M 16.640625 15.679688 "/>
<path style=" stroke:none;fill-rule:nonzero;fill:rgb(17.254902%,17.254902%,17.254902%);fill-opacity:1;" d="M 15.425781 15.742188 C 15.425781 15.785156 15.425781 15.828125 15.425781 15.871094 C 15.257812 15.9375 15.089844 16.003906 14.921875 16.066406 C 14.847656 16.097656 14.847656 16.097656 14.773438 16.125 C 14.652344 16.171875 14.527344 16.214844 14.398438 16.257812 C 14.359375 16.234375 14.316406 16.214844 14.273438 16.191406 C 14.402344 16.117188 14.535156 16.042969 14.667969 15.96875 C 14.742188 15.925781 14.816406 15.886719 14.890625 15.84375 C 15.09375 15.75 15.203125 15.722656 15.425781 15.742188 Z M 15.425781 15.742188 "/>
<path style=" stroke:none;fill-rule:nonzero;fill:rgb(15.686275%,15.686275%,15.686275%);fill-opacity:1;" d="M 28.480469 20.03125 C 28.359375 20.09375 28.238281 20.15625 28.117188 20.21875 C 28.046875 20.253906 27.980469 20.289062 27.910156 20.324219 C 27.730469 20.40625 27.589844 20.464844 27.390625 20.480469 C 27.328125 20.4375 27.265625 20.394531 27.199219 20.351562 C 27.390625 20.285156 27.578125 20.222656 27.769531 20.15625 C 27.820312 20.136719 27.875 20.117188 27.929688 20.097656 C 27.984375 20.082031 28.035156 20.0625 28.085938 20.046875 C 28.136719 20.03125 28.183594 20.011719 28.230469 19.996094 C 28.351562 19.96875 28.351562 19.96875 28.480469 20.03125 Z M 28.480469 20.03125 "/>
<path style=" stroke:none;fill-rule:nonzero;fill:rgb(89.019608%,89.019608%,89.019608%);fill-opacity:1;" d="M 21.632812 15.230469 C 21.792969 15.378906 21.792969 15.378906 21.953125 15.550781 C 21.953125 15.617188 21.953125 15.679688 21.953125 15.742188 C 21.964844 15.789062 21.976562 15.832031 21.992188 15.875 C 22 15.917969 22.007812 15.957031 22.015625 16 C 21.972656 16.042969 21.929688 16.085938 21.886719 16.128906 C 21.824219 15.960938 21.761719 15.789062 21.695312 15.617188 C 21.652344 15.617188 21.613281 15.617188 21.566406 15.617188 C 21.589844 15.488281 21.609375 15.363281 21.632812 15.230469 Z M 21.632812 15.230469 "/>
<path style=" stroke:none;fill-rule:nonzero;fill:rgb(91.764706%,91.764706%,91.764706%);fill-opacity:1;" d="M 25.921875 11.519531 C 25.941406 11.578125 25.941406 11.578125 25.960938 11.640625 C 26.082031 11.832031 26.21875 11.847656 26.433594 11.902344 C 26.265625 12.007812 26.195312 12.035156 26 12.007812 C 25.953125 11.996094 25.90625 11.980469 25.855469 11.96875 C 25.816406 11.816406 25.816406 11.816406 25.792969 11.648438 C 25.835938 11.605469 25.875 11.5625 25.921875 11.519531 Z M 25.921875 11.519531 "/>
<path style=" stroke:none;fill-rule:nonzero;fill:rgb(87.45098%,87.45098%,87.45098%);fill-opacity:1;" d="M 6.015625 11.519531 C 6.078125 11.5625 6.144531 11.605469 6.207031 11.648438 C 6.191406 11.800781 6.191406 11.800781 6.144531 11.96875 C 6.011719 12.050781 6.011719 12.050781 5.886719 12.097656 C 5.804688 12.03125 5.71875 11.96875 5.632812 11.902344 C 5.683594 11.875 5.734375 11.847656 5.789062 11.820312 C 5.96875 11.722656 5.96875 11.722656 6.015625 11.519531 Z M 6.015625 11.519531 "/>
<path style=" stroke:none;fill-rule:nonzero;fill:rgb(82.352941%,82.352941%,82.352941%);fill-opacity:1;" d="M 29.632812 14.273438 C 29.917969 14.304688 30.054688 14.402344 30.261719 14.597656 C 30.3125 14.644531 30.359375 14.691406 30.414062 14.738281 C 30.46875 14.792969 30.46875 14.792969 30.527344 14.847656 C 30.507812 14.890625 30.484375 14.933594 30.464844 14.976562 C 30.261719 14.886719 30.128906 14.78125 29.976562 14.625 C 29.9375 14.585938 29.902344 14.546875 29.863281 14.507812 C 29.828125 14.472656 29.792969 14.4375 29.761719 14.398438 C 29.71875 14.359375 29.675781 14.316406 29.632812 14.273438 Z M 29.632812 14.273438 "/>
<path style=" stroke:none;fill-rule:nonzero;fill:rgb(11.372549%,11.372549%,11.372549%);fill-opacity:1;" d="M 11.519531 14.078125 C 11.582031 14.101562 11.648438 14.121094 11.710938 14.144531 C 11.628906 14.480469 11.542969 14.820312 11.457031 15.167969 C 11.433594 15.167969 11.414062 15.167969 11.390625 15.167969 C 11.378906 14.777344 11.390625 14.449219 11.519531 14.078125 Z M 11.519531 14.078125 "/>
<path style=" stroke:none;fill-rule:nonzero;fill:rgb(91.764706%,91.764706%,91.764706%);fill-opacity:1;" d="M 9.921875 16.449219 C 9.84375 16.664062 9.773438 16.808594 9.601562 16.960938 C 9.558594 16.9375 9.515625 16.917969 9.472656 16.894531 C 9.472656 16.832031 9.472656 16.769531 9.472656 16.703125 C 9.515625 16.703125 9.554688 16.703125 9.601562 16.703125 C 9.621094 16.640625 9.640625 16.578125 9.664062 16.511719 C 9.792969 16.449219 9.792969 16.449219 9.921875 16.449219 Z M 9.34375 16.894531 C 9.386719 16.917969 9.429688 16.9375 9.472656 16.960938 C 9.386719 17.023438 9.304688 17.085938 9.214844 17.152344 C 9.257812 17.066406 9.300781 16.984375 9.34375 16.894531 Z M 9.34375 16.894531 "/>
<path style=" stroke:none;fill-rule:nonzero;fill:rgb(93.72549%,93.72549%,93.72549%);fill-opacity:1;" d="M 11.96875 13.632812 C 12.011719 13.652344 12.050781 13.675781 12.097656 13.695312 C 11.992188 13.949219 11.886719 14.203125 11.777344 14.464844 C 11.710938 14.464844 11.648438 14.464844 11.585938 14.464844 C 11.609375 14.359375 11.640625 14.257812 11.667969 14.15625 C 11.683594 14.097656 11.699219 14.042969 11.714844 13.984375 C 11.777344 13.820312 11.835938 13.742188 11.96875 13.632812 Z M 11.96875 13.632812 "/>
<path style=" stroke:none;fill-rule:nonzero;fill:rgb(87.843137%,87.843137%,87.843137%);fill-opacity:1;" d="M 3.328125 12.929688 C 3.519531 12.992188 3.519531 12.992188 3.585938 13.121094 C 3.347656 13.320312 3.199219 13.441406 2.878906 13.441406 C 2.792969 13.460938 2.707031 13.480469 2.625 13.503906 C 2.773438 13.332031 2.898438 13.269531 3.117188 13.203125 C 3.195312 13.179688 3.195312 13.179688 3.273438 13.15625 C 3.332031 13.136719 3.332031 13.136719 3.390625 13.121094 C 3.371094 13.054688 3.351562 12.992188 3.328125 12.929688 Z M 3.328125 12.929688 "/>
<path style=" stroke:none;fill-rule:nonzero;fill:rgb(15.686275%,15.686275%,15.686275%);fill-opacity:1;" d="M 3.390625 12.609375 C 3.519531 12.671875 3.519531 12.671875 3.585938 12.800781 C 3.449219 12.855469 3.3125 12.910156 3.175781 12.964844 C 3.0625 13.007812 3.0625 13.007812 2.945312 13.054688 C 2.753906 13.121094 2.753906 13.121094 2.625 13.054688 C 2.714844 12.992188 2.808594 12.929688 2.898438 12.867188 C 2.953125 12.832031 3.003906 12.796875 3.054688 12.761719 C 3.199219 12.671875 3.199219 12.671875 3.390625 12.609375 Z M 3.390625 12.609375 "/>
<path style=" stroke:none;fill-rule:nonzero;fill:rgb(87.058824%,87.058824%,87.058824%);fill-opacity:1;" d="M 4.113281 12.023438 C 4.148438 12.046875 4.1875 12.070312 4.222656 12.097656 C 4.097656 12.179688 3.96875 12.265625 3.839844 12.351562 C 3.820312 12.414062 3.796875 12.480469 3.777344 12.542969 C 3.691406 12.5 3.605469 12.460938 3.519531 12.414062 C 3.609375 12.246094 3.679688 12.121094 3.835938 12.003906 C 3.96875 11.96875 3.96875 11.96875 4.113281 12.023438 Z M 4.113281 12.023438 "/>
<path style=" stroke:none;fill-rule:nonzero;fill:rgb(10.196078%,10.196078%,10.196078%);fill-opacity:1;" d="M 10.433594 19.007812 C 10.472656 19.027344 10.515625 19.050781 10.558594 19.070312 C 10.425781 19.386719 10.214844 19.5 9.929688 19.660156 C 9.792969 19.710938 9.792969 19.710938 9.601562 19.648438 C 9.648438 19.613281 9.699219 19.578125 9.75 19.539062 C 9.8125 19.492188 9.878906 19.449219 9.945312 19.398438 C 10.007812 19.355469 10.070312 19.308594 10.136719 19.261719 C 10.304688 19.140625 10.304688 19.140625 10.433594 19.007812 Z M 10.433594 19.007812 "/>
<path style=" stroke:none;fill-rule:nonzero;fill:rgb(99.215686%,99.215686%,99.215686%);fill-opacity:1;" d="M 2.816406 18.046875 C 2.949219 18.246094 3.046875 18.445312 3.148438 18.660156 C 3.183594 18.734375 3.21875 18.808594 3.253906 18.882812 C 3.277344 18.945312 3.304688 19.007812 3.328125 19.070312 C 3.308594 19.113281 3.285156 19.15625 3.265625 19.199219 C 2.792969 18.472656 2.792969 18.472656 2.816406 18.046875 Z M 2.816406 18.046875 "/>
<path style=" stroke:none;fill-rule:nonzero;fill:rgb(21.176471%,21.176471%,21.176471%);fill-opacity:1;" d="M 2.6875 15.296875 C 2.710938 15.296875 2.730469 15.296875 2.753906 15.296875 C 2.753906 15.570312 2.753906 15.84375 2.753906 16.128906 C 2.6875 16.160156 2.6875 16.160156 2.625 16.191406 C 2.582031 16.386719 2.582031 16.386719 2.558594 16.574219 C 2.496094 16.574219 2.433594 16.574219 2.367188 16.574219 C 2.40625 16.347656 2.46875 16.148438 2.558594 15.9375 C 2.601562 15.9375 2.644531 15.9375 2.6875 15.9375 C 2.683594 15.894531 2.675781 15.855469 2.671875 15.8125 C 2.660156 15.734375 2.660156 15.734375 2.652344 15.652344 C 2.644531 15.597656 2.636719 15.546875 2.632812 15.492188 C 2.628906 15.449219 2.625 15.40625 2.625 15.359375 C 2.644531 15.339844 2.667969 15.316406 2.6875 15.296875 Z M 2.6875 15.296875 "/>
<path style=" stroke:none;fill-rule:nonzero;fill:rgb(89.803922%,89.803922%,89.803922%);fill-opacity:1;" d="M 10.046875 15.550781 C 10.132812 15.550781 10.21875 15.550781 10.304688 15.550781 C 10.242188 15.761719 10.175781 15.972656 10.113281 16.191406 C 10.027344 16.109375 9.941406 16.023438 9.855469 15.9375 C 9.976562 15.625 9.976562 15.625 10.046875 15.550781 Z M 10.046875 15.550781 "/>
<path style=" stroke:none;fill-rule:nonzero;fill:rgb(100%,100%,100%);fill-opacity:1;" d="M 12.671875 13.953125 C 12.691406 13.996094 12.714844 14.035156 12.734375 14.078125 C 12.660156 14.261719 12.660156 14.261719 12.546875 14.472656 C 12.511719 14.542969 12.476562 14.613281 12.4375 14.683594 C 12.410156 14.738281 12.382812 14.792969 12.351562 14.847656 C 12.308594 14.847656 12.265625 14.847656 12.222656 14.847656 C 12.261719 14.59375 12.335938 14.429688 12.484375 14.21875 C 12.519531 14.167969 12.554688 14.117188 12.589844 14.066406 C 12.628906 14.011719 12.628906 14.011719 12.671875 13.953125 Z M 12.671875 13.953125 "/>
<path style=" stroke:none;fill-rule:nonzero;fill:rgb(79.607843%,79.607843%,79.607843%);fill-opacity:1;" d="M 26.878906 12.414062 C 27.195312 12.480469 27.195312 12.480469 27.519531 12.542969 C 27.519531 12.585938 27.519531 12.628906 27.519531 12.671875 C 27.667969 12.691406 27.816406 12.714844 27.96875 12.734375 C 27.945312 12.777344 27.925781 12.820312 27.902344 12.863281 C 27.488281 12.832031 27.183594 12.71875 26.878906 12.414062 Z M 26.878906 12.414062 "/>
<path style=" stroke:none;fill-rule:nonzero;fill:rgb(10.980392%,10.980392%,10.980392%);fill-opacity:1;" d="M 20.03125 17.089844 C 20.394531 17.179688 20.703125 17.363281 20.992188 17.601562 C 20.992188 17.640625 20.992188 17.683594 20.992188 17.726562 C 20.738281 17.6875 20.574219 17.558594 20.367188 17.40625 C 20.304688 17.363281 20.242188 17.316406 20.175781 17.269531 C 20.128906 17.230469 20.082031 17.191406 20.03125 17.152344 C 20.03125 17.132812 20.03125 17.109375 20.03125 17.089844 Z M 20.03125 17.089844 "/>
<path style=" stroke:none;fill-rule:nonzero;fill:rgb(89.019608%,89.019608%,89.019608%);fill-opacity:1;" d="M 28.800781 13.183594 C 29.050781 13.257812 29.238281 13.335938 29.441406 13.503906 C 29.398438 13.503906 29.355469 13.503906 29.3125 13.503906 C 29.289062 13.546875 29.269531 13.589844 29.246094 13.632812 C 29.078125 13.546875 28.910156 13.464844 28.734375 13.375 C 28.757812 13.3125 28.777344 13.25 28.800781 13.183594 Z M 28.800781 13.183594 "/>
<path style=" stroke:none;fill-rule:nonzero;fill:rgb(90.196078%,90.196078%,90.196078%);fill-opacity:1;" d="M 11.519531 16.832031 C 11.5625 16.851562 11.605469 16.875 11.648438 16.894531 C 11.617188 17.167969 11.460938 17.292969 11.265625 17.472656 C 11.199219 17.515625 11.136719 17.554688 11.070312 17.601562 C 11.03125 17.558594 10.988281 17.515625 10.945312 17.472656 C 11.027344 17.449219 11.113281 17.429688 11.199219 17.40625 C 11.21875 17.335938 11.234375 17.265625 11.253906 17.191406 C 11.328125 16.960938 11.328125 16.960938 11.519531 16.832031 Z M 11.519531 16.832031 "/>
<path style=" stroke:none;fill-rule:nonzero;fill:rgb(13.333333%,13.333333%,13.333333%);fill-opacity:1;" d="M 2.816406 16.894531 C 2.949219 17.097656 2.992188 17.25 3.046875 17.484375 C 3.066406 17.554688 3.082031 17.625 3.097656 17.695312 C 3.109375 17.746094 3.125 17.800781 3.136719 17.855469 C 3.074219 17.855469 3.007812 17.855469 2.945312 17.855469 C 2.851562 17.523438 2.800781 17.242188 2.816406 16.894531 Z M 2.816406 16.894531 "/>
<path style=" stroke:none;fill-rule:nonzero;fill:rgb(80%,80%,80%);fill-opacity:1;" d="M 2.113281 14.273438 C 2.152344 14.273438 2.195312 14.273438 2.238281 14.273438 C 2.152344 14.472656 2.054688 14.59375 1.886719 14.734375 C 1.828125 14.785156 1.828125 14.785156 1.769531 14.835938 C 1.664062 14.910156 1.664062 14.910156 1.535156 14.910156 C 1.535156 14.871094 1.535156 14.828125 1.535156 14.785156 C 1.644531 14.675781 1.644531 14.675781 1.789062 14.554688 C 1.859375 14.496094 1.859375 14.496094 1.929688 14.4375 C 1.96875 14.402344 2.007812 14.371094 2.046875 14.335938 C 2.070312 14.316406 2.089844 14.292969 2.113281 14.273438 Z M 2.113281 14.273438 "/>
<path style=" stroke:none;fill-rule:nonzero;fill:rgb(99.607843%,99.607843%,99.607843%);fill-opacity:1;" d="M 1.601562 16.449219 C 1.714844 16.644531 1.742188 16.78125 1.734375 17.007812 C 1.734375 17.058594 1.734375 17.109375 1.734375 17.164062 C 1.730469 17.203125 1.730469 17.238281 1.726562 17.28125 C 1.664062 17.300781 1.601562 17.320312 1.535156 17.34375 C 1.535156 17.207031 1.53125 17.070312 1.53125 16.933594 C 1.53125 16.855469 1.53125 16.777344 1.53125 16.699219 C 1.535156 16.511719 1.535156 16.511719 1.601562 16.449219 Z M 1.601562 16.449219 "/>
<path style=" stroke:none;fill-rule:nonzero;fill:rgb(92.941176%,92.941176%,92.941176%);fill-opacity:1;" d="M 4.414062 12.222656 C 4.351562 12.253906 4.351562 12.253906 4.289062 12.289062 C 4.289062 12.332031 4.289062 12.371094 4.289062 12.414062 C 4.140625 12.4375 3.992188 12.457031 3.839844 12.480469 C 3.820312 12.417969 3.796875 12.351562 3.777344 12.289062 C 4.003906 12.136719 4.15625 12.164062 4.414062 12.222656 Z M 4.414062 12.222656 "/>
<path style=" stroke:none;fill-rule:nonzero;fill:rgb(12.54902%,12.54902%,12.54902%);fill-opacity:1;" d="M 25.535156 19.390625 C 25.375 19.546875 25.300781 19.582031 25.074219 19.589844 C 25 19.582031 24.925781 19.574219 24.847656 19.5625 C 24.773438 19.554688 24.699219 19.546875 24.621094 19.539062 C 24.5625 19.535156 24.507812 19.527344 24.449219 19.519531 C 24.449219 19.5 24.449219 19.476562 24.449219 19.457031 C 24.570312 19.445312 24.691406 19.433594 24.8125 19.425781 C 24.878906 19.417969 24.945312 19.414062 25.015625 19.40625 C 25.191406 19.394531 25.363281 19.390625 25.535156 19.390625 Z M 25.535156 19.390625 "/>
<path style=" stroke:none;fill-rule:nonzero;fill:rgb(11.764706%,11.764706%,11.764706%);fill-opacity:1;" d="M 20.480469 14.207031 C 20.636719 14.441406 20.621094 14.550781 20.617188 14.828125 C 20.613281 14.902344 20.613281 14.980469 20.613281 15.058594 C 20.609375 15.144531 20.609375 15.144531 20.609375 15.230469 C 20.585938 15.230469 20.566406 15.230469 20.542969 15.230469 C 20.519531 15.121094 20.5 15.011719 20.476562 14.898438 C 20.457031 14.808594 20.457031 14.808594 20.4375 14.714844 C 20.414062 14.527344 20.433594 14.390625 20.480469 14.207031 Z M 20.480469 14.207031 "/>
<path style=" stroke:none;fill-rule:nonzero;fill:rgb(99.215686%,99.215686%,99.215686%);fill-opacity:1;" d="M 24.832031 19.265625 C 24.894531 19.328125 24.957031 19.390625 25.023438 19.457031 C 24.75 19.457031 24.476562 19.457031 24.191406 19.457031 C 24.386719 19.261719 24.566406 19.238281 24.832031 19.265625 Z M 24.832031 19.265625 "/>
<path style=" stroke:none;fill-rule:nonzero;fill:rgb(100%,100%,100%);fill-opacity:1;" d="M 10.753906 17.535156 C 10.675781 17.757812 10.628906 17.785156 10.4375 17.902344 C 10.390625 17.933594 10.34375 17.960938 10.296875 17.992188 C 10.257812 18.011719 10.21875 18.027344 10.175781 18.046875 C 10.132812 18.027344 10.089844 18.003906 10.046875 17.984375 C 10.140625 17.910156 10.234375 17.835938 10.328125 17.761719 C 10.40625 17.699219 10.40625 17.699219 10.484375 17.632812 C 10.625 17.535156 10.625 17.535156 10.753906 17.535156 Z M 10.753906 17.535156 "/>
<path style=" stroke:none;fill-rule:nonzero;fill:rgb(84.313725%,84.313725%,84.313725%);fill-opacity:1;" d="M 30.015625 15.359375 C 30.269531 15.578125 30.390625 15.828125 30.527344 16.128906 C 30.464844 16.128906 30.402344 16.128906 30.335938 16.128906 C 30.28125 16.035156 30.230469 15.945312 30.175781 15.851562 C 30.132812 15.773438 30.132812 15.773438 30.085938 15.695312 C 30.015625 15.550781 30.015625 15.550781 30.015625 15.359375 Z M 30.015625 15.359375 "/>
<path style=" stroke:none;fill-rule:nonzero;fill:rgb(85.490196%,85.490196%,85.490196%);fill-opacity:1;" d="M 1.601562 14.015625 C 1.640625 14.078125 1.683594 14.144531 1.726562 14.207031 C 1.601562 14.355469 1.472656 14.503906 1.34375 14.65625 C 1.265625 14.5 1.28125 14.378906 1.28125 14.207031 C 1.441406 14.105469 1.441406 14.105469 1.601562 14.015625 Z M 1.601562 14.015625 "/>
<path style=" stroke:none;fill-rule:nonzero;fill:rgb(89.019608%,89.019608%,89.019608%);fill-opacity:1;" d="M 29.824219 17.40625 C 29.84375 17.40625 29.867188 17.40625 29.886719 17.40625 C 29.894531 17.675781 29.886719 17.917969 29.824219 18.175781 C 29.71875 18.074219 29.71875 18.074219 29.632812 17.921875 C 29.714844 17.519531 29.714844 17.519531 29.824219 17.40625 Z M 29.824219 17.40625 "/>
<path style=" stroke:none;fill-rule:nonzero;fill:rgb(99.215686%,99.215686%,99.215686%);fill-opacity:1;" d="M 9.535156 16.832031 C 9.535156 17.085938 9.449219 17.15625 9.28125 17.34375 C 9.136719 17.460938 9.136719 17.460938 9.023438 17.535156 C 8.980469 17.515625 8.941406 17.492188 8.894531 17.472656 C 9.105469 17.261719 9.320312 17.050781 9.535156 16.832031 Z M 9.535156 16.832031 "/>
<path style=" stroke:none;fill-rule:nonzero;fill:rgb(89.019608%,89.019608%,89.019608%);fill-opacity:1;" d="M 2.945312 18.238281 C 3.007812 18.238281 3.070312 18.238281 3.136719 18.238281 C 3.199219 18.410156 3.261719 18.578125 3.328125 18.753906 C 3.265625 18.773438 3.203125 18.792969 3.136719 18.816406 C 3.074219 18.625 3.007812 18.4375 2.945312 18.238281 Z M 2.945312 18.238281 "/>
<path style=" stroke:none;fill-rule:nonzero;fill:rgb(6.27451%,6.27451%,6.27451%);fill-opacity:1;" d="M 19.777344 13.695312 C 19.839844 13.695312 19.902344 13.695312 19.96875 13.695312 C 20.160156 14.054688 20.160156 14.054688 20.160156 14.273438 C 20.117188 14.273438 20.074219 14.273438 20.03125 14.273438 C 19.949219 14.082031 19.863281 13.890625 19.777344 13.695312 Z M 19.777344 13.695312 "/>
<path style=" stroke:none;fill-rule:nonzero;fill:rgb(94.901961%,94.901961%,94.901961%);fill-opacity:1;" d="M 4.929688 12.542969 C 4.640625 12.757812 4.441406 12.753906 4.097656 12.734375 C 4.234375 12.597656 4.292969 12.578125 4.476562 12.53125 C 4.519531 12.519531 4.5625 12.507812 4.609375 12.496094 C 4.734375 12.480469 4.734375 12.480469 4.929688 12.542969 Z M 4.929688 12.542969 "/>
<path style=" stroke:none;fill-rule:nonzero;fill:rgb(14.509804%,14.509804%,14.509804%);fill-opacity:1;" d="M 29.375 18.046875 C 29.4375 18.070312 29.503906 18.089844 29.566406 18.113281 C 29.492188 18.375 29.445312 18.488281 29.246094 18.6875 C 29.289062 18.476562 29.332031 18.265625 29.375 18.046875 Z M 29.375 18.046875 "/>
<path style=" stroke:none;fill-rule:nonzero;fill:rgb(89.411765%,89.411765%,89.411765%);fill-opacity:1;" d="M 27.902344 12.289062 C 28.257812 12.265625 28.257812 12.265625 28.40625 12.382812 C 28.433594 12.414062 28.457031 12.449219 28.480469 12.480469 C 28.371094 12.523438 28.371094 12.523438 28.222656 12.542969 C 28.046875 12.457031 28.046875 12.457031 27.902344 12.351562 C 27.902344 12.332031 27.902344 12.308594 27.902344 12.289062 Z M 27.902344 12.289062 "/>
<path style=" stroke:none;fill-rule:nonzero;fill:rgb(86.666667%,86.666667%,86.666667%);fill-opacity:1;" d="M 18.945312 13.566406 C 19.257812 13.734375 19.257812 13.734375 19.328125 13.953125 C 19.285156 13.996094 19.242188 14.035156 19.199219 14.078125 C 18.945312 13.710938 18.945312 13.710938 18.945312 13.566406 Z M 18.945312 13.566406 "/>
<path style=" stroke:none;fill-rule:nonzero;fill:rgb(14.117647%,14.117647%,14.117647%);fill-opacity:1;" d="M 12.480469 20.160156 C 12.542969 20.160156 12.605469 20.160156 12.671875 20.160156 C 12.671875 20.285156 12.671875 20.414062 12.671875 20.542969 C 12.609375 20.566406 12.546875 20.585938 12.480469 20.609375 C 12.480469 20.460938 12.480469 20.3125 12.480469 20.160156 Z M 12.480469 20.160156 "/>
<path style=" stroke:none;fill-rule:nonzero;fill:rgb(99.607843%,99.607843%,99.607843%);fill-opacity:1;" d="M 27.199219 18.878906 C 27.242188 18.902344 27.285156 18.921875 27.328125 18.945312 C 27 19.300781 27 19.300781 26.753906 19.328125 C 26.894531 19.140625 27.003906 19.011719 27.199219 18.878906 Z M 27.199219 18.878906 "/>
<path style=" stroke:none;fill-rule:nonzero;fill:rgb(87.058824%,87.058824%,87.058824%);fill-opacity:1;" d="M 22.976562 17.34375 C 23.179688 17.433594 23.230469 17.472656 23.359375 17.664062 C 23.296875 17.695312 23.296875 17.695312 23.230469 17.726562 C 23.0625 17.636719 23.0625 17.636719 22.910156 17.535156 C 22.933594 17.472656 22.953125 17.410156 22.976562 17.34375 Z M 22.976562 17.34375 "/>
<path style=" stroke:none;fill-rule:nonzero;fill:rgb(18.431373%,18.431373%,18.431373%);fill-opacity:1;" d="M 29.375 16 C 29.574219 16.199219 29.597656 16.25 29.632812 16.511719 C 29.570312 16.554688 29.503906 16.597656 29.441406 16.640625 C 29.417969 16.429688 29.398438 16.21875 29.375 16 Z M 29.375 16 "/>
<path style=" stroke:none;fill-rule:nonzero;fill:rgb(86.666667%,86.666667%,86.666667%);fill-opacity:1;" d="M 11.519531 13.953125 C 11.621094 14.15625 11.523438 14.316406 11.457031 14.527344 C 11.394531 14.507812 11.328125 14.484375 11.265625 14.464844 C 11.296875 14.226562 11.335938 14.105469 11.519531 13.953125 Z M 11.519531 13.953125 "/>
<path style=" stroke:none;fill-rule:nonzero;fill:rgb(87.45098%,87.45098%,87.45098%);fill-opacity:1;" d="M 2.625 14.015625 C 2.625 14.058594 2.625 14.101562 2.625 14.144531 C 2.6875 14.164062 2.75 14.1875 2.816406 14.207031 C 2.773438 14.25 2.730469 14.292969 2.6875 14.335938 C 2.5625 14.292969 2.433594 14.25 2.304688 14.207031 C 2.480469 14.015625 2.480469 14.015625 2.625 14.015625 Z M 2.625 14.015625 "/>
<path style=" stroke:none;fill-rule:nonzero;fill:rgb(7.843137%,7.843137%,7.843137%);fill-opacity:1;" d="M 19.328125 20.480469 C 19.390625 20.480469 19.453125 20.480469 19.519531 20.480469 C 19.425781 20.78125 19.425781 20.78125 19.257812 20.882812 C 19.195312 20.90625 19.195312 20.90625 19.136719 20.929688 C 19.257812 20.625 19.257812 20.625 19.328125 20.480469 Z M 19.328125 20.480469 "/>
<path style=" stroke:none;fill-rule:nonzero;fill:rgb(10.196078%,10.196078%,10.196078%);fill-opacity:1;" d="M 6.464844 19.390625 C 6.542969 19.398438 6.625 19.40625 6.707031 19.414062 C 6.777344 19.421875 6.777344 19.421875 6.84375 19.429688 C 6.976562 19.457031 6.976562 19.457031 7.167969 19.585938 C 6.757812 19.609375 6.757812 19.609375 6.5625 19.488281 C 6.53125 19.457031 6.496094 19.425781 6.464844 19.390625 Z M 6.464844 19.390625 "/>
<path style=" stroke:none;fill-rule:nonzero;fill:rgb(100%,100%,100%);fill-opacity:1;" d="M 4.671875 18.878906 C 4.953125 18.964844 5.078125 19.089844 5.246094 19.328125 C 4.964844 19.242188 4.84375 19.121094 4.671875 18.878906 Z M 4.671875 18.878906 "/>
<path style=" stroke:none;fill-rule:nonzero;fill:rgb(86.666667%,86.666667%,86.666667%);fill-opacity:1;" d="M 12.03125 17.472656 C 12.074219 17.492188 12.117188 17.515625 12.160156 17.535156 C 12.011719 17.640625 11.863281 17.746094 11.710938 17.855469 C 11.667969 17.8125 11.628906 17.773438 11.585938 17.726562 C 11.921875 17.523438 11.921875 17.523438 12.03125 17.472656 Z M 12.03125 17.472656 "/>
<path style=" stroke:none;fill-rule:nonzero;fill:rgb(17.254902%,17.254902%,17.254902%);fill-opacity:1;" d="M 17.152344 15.9375 C 17.414062 16.011719 17.527344 16.058594 17.726562 16.257812 C 17.515625 16.191406 17.304688 16.128906 17.089844 16.0625 C 17.109375 16.023438 17.128906 15.980469 17.152344 15.9375 Z M 17.152344 15.9375 "/>
<path style=" stroke:none;fill-rule:nonzero;fill:rgb(93.333333%,93.333333%,93.333333%);fill-opacity:1;" d="M 1.601562 15.359375 C 1.621094 15.402344 1.640625 15.445312 1.664062 15.488281 C 1.605469 15.625 1.605469 15.625 1.535156 15.742188 C 1.492188 15.742188 1.453125 15.742188 1.40625 15.742188 C 1.527344 15.433594 1.527344 15.433594 1.601562 15.359375 Z M 1.152344 15.742188 C 1.246094 15.808594 1.246094 15.808594 1.34375 15.871094 C 1.28125 15.871094 1.21875 15.871094 1.152344 15.871094 C 1.152344 15.828125 1.152344 15.789062 1.152344 15.742188 Z M 1.152344 15.742188 "/>
<path style=" stroke:none;fill-rule:nonzero;fill:rgb(85.882353%,85.882353%,85.882353%);fill-opacity:1;" d="M 30.078125 14.910156 C 30.238281 15.058594 30.238281 15.058594 30.398438 15.230469 C 30.398438 15.296875 30.398438 15.359375 30.398438 15.425781 C 30.359375 15.425781 30.316406 15.425781 30.273438 15.425781 C 30.144531 15.203125 30.144531 15.203125 30.015625 14.976562 C 30.039062 14.953125 30.058594 14.933594 30.078125 14.910156 Z M 30.078125 14.910156 "/>
<path style=" stroke:none;fill-rule:nonzero;fill:rgb(9.803922%,9.803922%,9.803922%);fill-opacity:1;" d="M 3.007812 14.078125 C 3.050781 14.101562 3.09375 14.121094 3.136719 14.144531 C 3.113281 14.207031 3.09375 14.269531 3.070312 14.335938 C 2.875 14.410156 2.875 14.410156 2.6875 14.464844 C 2.777344 14.261719 2.816406 14.207031 3.007812 14.078125 Z M 3.007812 14.078125 "/>
<path style=" stroke:none;fill-rule:nonzero;fill:rgb(11.372549%,11.372549%,11.372549%);fill-opacity:1;" d="M 28.929688 17.855469 C 28.96875 17.972656 28.96875 17.972656 28.992188 18.113281 C 28.929688 18.207031 28.929688 18.207031 28.863281 18.304688 C 28.820312 18.28125 28.78125 18.261719 28.734375 18.238281 C 28.761719 18.085938 28.761719 18.085938 28.800781 17.921875 C 28.84375 17.898438 28.882812 17.878906 28.929688 17.855469 Z M 28.929688 17.855469 "/>
<path style=" stroke:none;fill-rule:nonzero;fill:rgb(90.588235%,90.588235%,90.588235%);fill-opacity:1;" d="M 20.734375 17.34375 C 20.855469 17.355469 20.855469 17.355469 20.992188 17.40625 C 21.070312 17.570312 21.070312 17.570312 21.121094 17.726562 C 20.988281 17.644531 20.863281 17.5625 20.734375 17.472656 C 20.734375 17.429688 20.734375 17.386719 20.734375 17.34375 Z M 20.734375 17.34375 "/>
<path style=" stroke:none;fill-rule:nonzero;fill:rgb(85.490196%,85.490196%,85.490196%);fill-opacity:1;" d="M 12.480469 16.574219 C 12.3125 16.714844 12.183594 16.792969 11.96875 16.832031 C 12.097656 16.546875 12.171875 16.484375 12.480469 16.574219 Z M 12.480469 16.574219 "/>
<path style=" stroke:none;fill-rule:nonzero;fill:rgb(85.882353%,85.882353%,85.882353%);fill-opacity:1;" d="M 12.992188 13.566406 C 13.011719 13.609375 13.035156 13.652344 13.054688 13.695312 C 12.929688 13.886719 12.929688 13.886719 12.800781 14.078125 C 12.734375 13.886719 12.734375 13.886719 12.800781 13.695312 C 12.863281 13.652344 12.925781 13.613281 12.992188 13.566406 Z M 12.992188 13.566406 "/>
<path style=" stroke:none;fill-rule:nonzero;fill:rgb(92.156863%,92.156863%,92.156863%);fill-opacity:1;" d="M 2.113281 13.632812 C 2.175781 13.675781 2.238281 13.714844 2.304688 13.761719 C 2.199219 13.84375 2.09375 13.929688 1.984375 14.015625 C 1.941406 13.996094 1.898438 13.972656 1.855469 13.953125 C 1.941406 13.847656 2.023438 13.742188 2.113281 13.632812 Z M 2.113281 13.632812 "/>
</g>
</svg>
