<svg version="1.1" viewBox="1.7599979999999997 28.76 97.2 39.4" xmlns:xlink="http://www.w3.org/1999/xlink" xmlns="http://www.w3.org/2000/svg" style="max-height: 500px" width="97.2" height="39.4">
<g id="surface1">
<path d="M 19.398438 36.199219 C 19.460938 36.648438 19.460938 36.648438 19.398438 37.199219 C 18.753906 37.925781 18.238281 38.03125 17.300781 38.132812 C 16.238281 38.273438 15.195312 38.519531 14.148438 38.75 C 13.917969 38.796875 13.691406 38.847656 13.453125 38.894531 C 11.886719 39.238281 10.457031 39.734375 9 40.398438 C 9.226562 40.335938 9.453125 40.269531 9.6875 40.203125 C 15.042969 38.679688 15.042969 38.679688 16 39 C 14.417969 39.953125 12.859375 40.78125 11.144531 41.457031 C 8.800781 42.40625 6.960938 43.59375 5.398438 45.601562 C 5.542969 45.484375 5.6875 45.371094 5.832031 45.253906 C 6.113281 45.027344 6.113281 45.027344 6.398438 44.800781 C 6.570312 44.664062 6.742188 44.527344 6.917969 44.382812 C 8.042969 43.507812 9.171875 42.75 10.425781 42.074219 C 10.554688 42.003906 10.6875 41.933594 10.820312 41.859375 C 11.140625 41.691406 11.46875 41.542969 11.800781 41.398438 C 11.933594 41.464844 12.0625 41.53125 12.199219 41.601562 C 12.109375 41.691406 12.015625 41.777344 11.921875 41.871094 C 11.128906 42.648438 11.128906 42.648438 10.4375 43.511719 C 9.871094 44.144531 9.222656 44.484375 8.492188 44.910156 C 6.453125 46.117188 5.351562 48.007812 4.601562 50.199219 C 4.679688 50.0625 4.761719 49.929688 4.84375 49.789062 C 6.082031 47.761719 7.566406 46.109375 9.398438 44.601562 C 9.601562 45 9.601562 45 9.464844 45.492188 C 8.914062 46.890625 8.269531 47.824219 7.230469 48.898438 C 6.144531 50.164062 5.558594 51.796875 5.585938 53.460938 C 5.589844 53.707031 5.597656 53.949219 5.601562 54.199219 C 5.621094 54.078125 5.640625 53.957031 5.660156 53.832031 C 6.074219 51.507812 6.980469 49.691406 8.398438 47.800781 C 8.464844 47.800781 8.53125 47.800781 8.601562 47.800781 C 8.589844 48.058594 8.582031 48.320312 8.574219 48.585938 C 8.582031 51.011719 9.449219 52.769531 11.089844 54.523438 C 13.519531 56.800781 16.484375 57.714844 19.742188 57.65625 C 20.875 57.605469 21.789062 57.296875 22.800781 56.800781 C 23.007812 56.707031 23.214844 56.609375 23.425781 56.511719 C 26.773438 54.863281 29.0625 51.957031 31.121094 48.925781 C 31.558594 48.289062 31.976562 47.847656 32.601562 47.398438 C 32.859375 47.042969 32.859375 47.042969 33.050781 46.664062 C 33.164062 46.445312 33.28125 46.226562 33.398438 46 C 33.53125 46.199219 33.664062 46.394531 33.800781 46.601562 C 33.855469 46.378906 33.90625 46.15625 33.960938 45.925781 C 34.199219 45.199219 34.199219 45.199219 34.800781 44.800781 C 34.800781 45.328125 34.800781 45.855469 34.800781 46.398438 C 34.820312 46.261719 34.84375 46.125 34.867188 45.984375 C 34.898438 45.804688 34.929688 45.625 34.960938 45.4375 C 35.007812 45.167969 35.007812 45.167969 35.054688 44.894531 C 35.210938 44.363281 35.378906 44.148438 35.800781 43.800781 C 35.933594 43.867188 36.0625 43.933594 36.199219 44 C 36.132812 44.394531 36.066406 44.792969 36 45.199219 C 36.0625 45.03125 36.121094 44.863281 36.183594 44.6875 C 36.265625 44.46875 36.351562 44.25 36.4375 44.023438 C 36.519531 43.808594 36.601562 43.589844 36.683594 43.363281 C 37 42.800781 37 42.800781 37.535156 42.523438 C 37.6875 42.484375 37.84375 42.441406 38 42.398438 C 37.890625 42.65625 37.890625 42.65625 37.78125 42.917969 C 37.6875 43.140625 37.59375 43.359375 37.5 43.585938 C 37.40625 43.808594 37.3125 44.027344 37.21875 44.253906 C 36.988281 44.734375 36.988281 44.734375 37 45 C 37.0625 44.871094 37.121094 44.738281 37.183594 44.605469 C 37.902344 43.105469 38.457031 41.957031 40.074219 41.335938 C 40.917969 41.066406 41.714844 40.863281 42.601562 40.800781 C 42.738281 40.789062 42.878906 40.78125 43.023438 40.769531 C 45.164062 40.683594 47.539062 41.101562 49.398438 42.199219 C 49.953125 42.753906 49.914062 43.242188 50 44 C 50 43.789062 50 43.578125 50 43.363281 C 50.207031 42.566406 50.238281 42.476562 50.875 42.050781 C 53.757812 40.476562 57.125 40.519531 60.199219 41.398438 C 61.800781 42.140625 62.59375 43.816406 63.199219 45.398438 C 62.800781 44.398438 62.398438 43.398438 62 42.398438 C 62.449219 42.488281 62.449219 42.488281 63 42.800781 C 63.691406 43.890625 63.972656 45.144531 64.199219 46.398438 C 64.054688 44.992188 64.054688 44.992188 63.800781 43.601562 C 64.179688 43.722656 64.179688 43.722656 64.601562 44 C 64.808594 44.5625 64.808594 44.5625 64.949219 45.226562 C 65 45.445312 65.046875 45.664062 65.097656 45.890625 C 65.148438 46.140625 65.148438 46.140625 65.199219 46.398438 C 65.199219 45.871094 65.199219 45.34375 65.199219 44.800781 C 65.984375 45.269531 66.167969 45.730469 66.398438 46.601562 C 66.398438 46.46875 66.398438 46.335938 66.398438 46.199219 C 66.53125 46.199219 66.664062 46.199219 66.800781 46.199219 C 66.996094 46.597656 67.195312 46.992188 67.398438 47.398438 C 67.53125 47.398438 67.664062 47.398438 67.800781 47.398438 C 68.078125 47.71875 68.078125 47.71875 68.394531 48.160156 C 68.511719 48.320312 68.628906 48.484375 68.75 48.648438 C 68.933594 48.910156 68.933594 48.910156 69.125 49.175781 C 69.378906 49.527344 69.636719 49.875 69.890625 50.226562 C 70.011719 50.394531 70.136719 50.566406 70.261719 50.738281 C 72.492188 53.785156 75.46875 56.941406 79.398438 57.601562 C 82.914062 57.828125 85.933594 57.074219 88.664062 54.738281 C 90.300781 53.179688 91.296875 51.511719 91.433594 49.214844 C 91.4375 48.742188 91.425781 48.273438 91.398438 47.800781 C 92.101562 48.433594 92.566406 49.144531 93.023438 49.960938 C 93.09375 50.082031 93.164062 50.199219 93.234375 50.320312 C 93.953125 51.578125 94.257812 52.738281 94.199219 54.199219 C 94.332031 54.199219 94.464844 54.199219 94.601562 54.199219 C 94.296875 51.625 93.675781 49.5 91.675781 47.738281 C 90.976562 46.949219 90.652344 46.015625 90.398438 45 C 90.464844 44.867188 90.53125 44.734375 90.601562 44.601562 C 91.140625 45.058594 91.671875 45.527344 92.199219 46 C 92.335938 46.117188 92.46875 46.234375 92.605469 46.359375 C 93.8125 47.484375 94.585938 48.777344 95.398438 50.199219 C 94.441406 47.296875 92.738281 45.578125 90.164062 44.011719 C 89.316406 43.390625 88.671875 42.601562 88 41.800781 C 88.066406 41.667969 88.132812 41.535156 88.199219 41.398438 C 90.652344 42.628906 92.917969 43.960938 94.800781 46 C 93.179688 43.132812 90.101562 41.820312 87.121094 40.8125 C 85.992188 40.351562 84.863281 39.664062 84 38.800781 C 86.234375 39.128906 88.414062 39.648438 90.601562 40.199219 C 87.875 38.929688 84.730469 38.265625 81.761719 37.882812 C 81.199219 37.800781 81.199219 37.800781 80.800781 37.550781 C 80.601562 37.199219 80.601562 37.199219 80.625 36.6875 C 80.800781 36.199219 80.800781 36.199219 81.398438 35.800781 C 85.253906 35.550781 89.570312 37.96875 92.398438 40.398438 C 92.574219 40.542969 92.746094 40.683594 92.925781 40.828125 C 95.296875 42.839844 96.929688 45.351562 97.601562 48.398438 C 97.933594 53.28125 96.210938 57.449219 93.078125 61.183594 C 90.265625 64.226562 85.902344 66.027344 81.816406 66.242188 C 76.707031 66.339844 71.691406 64.304688 67.199219 62 C 67.054688 61.925781 66.914062 61.851562 66.765625 61.777344 C 65.691406 61.210938 64.777344 60.703125 64.355469 59.507812 C 64.25 58.863281 64.195312 58.253906 64.199219 57.601562 C 64.84375 57.878906 65.222656 58.203125 65.6875 58.726562 C 66.714844 59.789062 67.925781 60.46875 69.199219 61.199219 C 69.011719 61.039062 68.820312 60.878906 68.625 60.710938 C 67.359375 59.625 66.109375 58.535156 64.960938 57.324219 C 62.394531 54.746094 59.390625 53.339844 56.058594 52.027344 C 52.949219 50.792969 52.949219 50.792969 52.199219 49.601562 C 52.859375 49.796875 53.519531 49.996094 54.199219 50.199219 C 54.054688 50.125 53.910156 50.050781 53.761719 49.972656 C 50.851562 48.433594 50.851562 48.433594 50.199219 46.800781 C 50.199219 46.667969 50.199219 46.535156 50.199219 46.398438 C 50.066406 46.398438 49.9375 46.398438 49.800781 46.398438 C 49.726562 46.667969 49.726562 46.667969 49.648438 46.9375 C 49.128906 48.316406 48.269531 48.847656 47.027344 49.554688 C 46.617188 49.765625 46.617188 49.765625 46.398438 50 C 47.09375 49.800781 47.09375 49.800781 47.800781 49.601562 C 47.21875 50.417969 46.699219 50.828125 45.800781 51.261719 C 45.679688 51.320312 45.5625 51.378906 45.4375 51.4375 C 44.371094 51.945312 43.273438 52.371094 42.175781 52.800781 C 38.632812 54.191406 36.058594 56.28125 33.429688 58.980469 C 32.671875 59.75 31.886719 60.386719 31 61 C 32.816406 60.128906 34.40625 58.851562 35.800781 57.398438 C 35.734375 57.867188 35.667969 58.332031 35.601562 58.800781 C 35.589844 59.027344 35.582031 59.253906 35.570312 59.488281 C 35.382812 60.265625 35.175781 60.503906 34.519531 60.941406 C 34.394531 61.019531 34.265625 61.097656 34.136719 61.175781 C 34.003906 61.257812 33.871094 61.34375 33.734375 61.429688 C 28.308594 64.742188 21.421875 67.269531 15.070312 65.753906 C 13.789062 65.421875 12.585938 64.992188 11.398438 64.398438 C 11.207031 64.304688 11.011719 64.207031 10.8125 64.109375 C 7.046875 62.085938 4.492188 58.695312 3.15625 54.664062 C 2.101562 51.105469 2.078125 47.917969 3.84375 44.589844 C 6.578125 40.085938 11.519531 37.210938 16.527344 35.917969 C 17.554688 35.738281 18.492188 35.617188 19.398438 36.199219 Z M 7.800781 50.398438 C 6.84375 52.867188 6.9375 55.371094 8 57.800781 C 8.132812 57.867188 8.265625 57.933594 8.398438 58 C 8.371094 57.859375 8.34375 57.71875 8.3125 57.570312 C 8.015625 55.984375 7.953125 54.464844 7.976562 52.851562 C 7.976562 52.613281 7.980469 52.375 7.980469 52.132812 C 7.984375 51.554688 7.992188 50.976562 8 50.398438 C 7.933594 50.398438 7.867188 50.398438 7.800781 50.398438 Z M 92 50.398438 C 92.003906 50.550781 92.003906 50.703125 92.007812 50.859375 C 92.015625 51.5625 92.019531 52.261719 92.023438 52.960938 C 92.027344 53.203125 92.03125 53.441406 92.035156 53.6875 C 92.042969 55.171875 91.929688 56.550781 91.601562 58 C 92.902344 56.296875 92.972656 54.5 92.800781 52.398438 C 92.652344 51.707031 92.460938 51.058594 92.199219 50.398438 C 92.132812 50.398438 92.066406 50.398438 92 50.398438 Z M 8.800781 53 C 9 53.601562 9 53.601562 9 53.601562 Z M 91 53.199219 C 91.199219 53.601562 91.199219 53.601562 91.199219 53.601562 Z M 33.386719 55.800781 C 33.269531 55.886719 33.148438 55.972656 33.023438 56.058594 C 32.503906 56.433594 31.988281 56.808594 31.484375 57.203125 C 29.546875 58.679688 27.292969 59.242188 24.902344 59.507812 C 24.367188 59.558594 24.367188 59.558594 24 60 C 25.1875 60 26.375 60 27.601562 60 C 25.550781 61.023438 22.851562 60.859375 20.601562 60.800781 C 21.359375 61.308594 21.921875 61.425781 22.820312 61.417969 C 23.046875 61.417969 23.046875 61.417969 23.277344 61.417969 C 23.433594 61.414062 23.589844 61.414062 23.75 61.414062 C 23.910156 61.410156 24.066406 61.410156 24.230469 61.410156 C 24.621094 61.40625 25.011719 61.402344 25.398438 61.398438 C 24.347656 62.296875 23.203125 62.265625 21.867188 62.257812 C 20.375 62.128906 18.976562 61.5625 17.601562 61 C 18.761719 62.308594 19.84375 62.8125 21.601562 62.949219 C 22 62.96875 22.398438 62.988281 22.800781 63 C 20.679688 63.976562 20.679688 63.976562 19.601562 63.601562 C 17.585938 62.820312 16.019531 61.246094 14.464844 59.796875 C 14 59.402344 13.53125 59.097656 13 58.800781 C 13.957031 60.957031 16.320312 62.890625 18.449219 63.8125 C 18.632812 63.875 18.8125 63.9375 19 64 C 17.480469 64.285156 16.457031 63.800781 15.222656 62.964844 C 12.039062 60.699219 10.191406 57.328125 9.199219 53.601562 C 9.132812 53.601562 9.066406 53.601562 9 53.601562 C 8.941406 54.71875 9.121094 55.585938 9.5 56.636719 C 9.554688 56.785156 9.605469 56.933594 9.660156 57.085938 C 10.742188 59.941406 12.621094 62.023438 15.199219 63.601562 C 13.550781 63.261719 13.550781 63.261719 12.824219 62.960938 C 12.375 62.738281 12.375 62.738281 11.800781 63 C 15.070312 64.46875 18.425781 65.28125 21.949219 64.210938 C 25.679688 62.78125 28.941406 60.105469 31.988281 57.578125 C 33.160156 56.613281 34.386719 55.722656 35.628906 54.84375 C 35.847656 54.691406 35.847656 54.691406 36.066406 54.535156 C 36.195312 54.445312 36.320312 54.359375 36.453125 54.265625 C 36.800781 54 37.097656 53.714844 37.398438 53.398438 C 36.070312 53.398438 34.46875 55.027344 33.386719 55.800781 Z M 62.601562 53.398438 C 62.664062 53.53125 62.730469 53.664062 62.800781 53.800781 C 62.933594 53.734375 63.0625 53.667969 63.199219 53.601562 C 63.003906 53.535156 62.804688 53.46875 62.601562 53.398438 Z M 63.199219 53.800781 C 63.753906 54.378906 64.320312 54.851562 64.976562 55.3125 C 65.84375 55.933594 66.6875 56.574219 67.523438 57.238281 C 67.765625 57.425781 68.003906 57.613281 68.242188 57.800781 C 68.628906 58.105469 69.015625 58.410156 69.398438 58.71875 C 74.785156 63.042969 74.785156 63.042969 81.300781 64.675781 C 81.453125 64.675781 81.609375 64.675781 81.765625 64.675781 C 83.28125 64.644531 85.679688 64.519531 86.800781 63.398438 C 86.589844 63.441406 86.589844 63.441406 86.375 63.480469 C 84.5625 63.816406 82.847656 64.035156 81 64 C 81.113281 63.953125 81.226562 63.90625 81.347656 63.859375 C 83.597656 62.847656 85.480469 61.128906 87 59.199219 C 86.902344 59.003906 86.902344 59.003906 86.800781 58.800781 C 86.65625 58.9375 86.507812 59.074219 86.359375 59.21875 C 81.476562 63.800781 81.476562 63.800781 79.199219 63.800781 C 78.511719 63.578125 77.855469 63.300781 77.199219 63 C 77.363281 62.996094 77.527344 62.996094 77.699219 62.992188 C 79.25 62.925781 80.507812 62.707031 81.800781 61.800781 C 81.933594 61.601562 82.0625 61.402344 82.199219 61.199219 C 82.089844 61.238281 81.976562 61.277344 81.863281 61.316406 C 79.5625 62.101562 77.371094 62.65625 75 61.800781 C 74.800781 61.734375 74.605469 61.667969 74.398438 61.601562 C 74.601562 61.398438 74.601562 61.398438 75.3125 61.394531 C 75.769531 61.402344 76.222656 61.414062 76.679688 61.425781 C 77.667969 61.441406 78.460938 61.316406 79.398438 61 C 79.398438 60.933594 79.398438 60.867188 79.398438 60.800781 C 79.21875 60.804688 79.042969 60.808594 78.855469 60.8125 C 76.550781 60.847656 74.1875 60.800781 72 60 C 72.097656 59.902344 72.097656 59.902344 72.199219 59.800781 C 72.339844 59.828125 72.476562 59.855469 72.621094 59.886719 C 73.3125 60.023438 73.957031 60.019531 74.664062 60.011719 C 74.914062 60.011719 75.164062 60.007812 75.421875 60.007812 C 75.613281 60.003906 75.804688 60.003906 76 60 C 75.433594 59.433594 74.800781 59.449219 74.039062 59.335938 C 71.296875 58.882812 69.375 57.917969 67.207031 56.21875 C 66.4375 55.621094 65.644531 55.074219 64.824219 54.550781 C 64.707031 54.472656 64.589844 54.398438 64.46875 54.316406 C 63.878906 53.921875 63.878906 53.921875 63.199219 53.800781 Z M 90.800781 53.800781 C 90.714844 54.046875 90.628906 54.296875 90.542969 54.554688 C 89.304688 58.101562 87.644531 60.765625 84.613281 63.082031 C 84.1875 63.394531 84.1875 63.394531 83.800781 63.800781 C 85.789062 63.546875 87.558594 61.671875 88.753906 60.148438 C 89.921875 58.480469 91.171875 55.902344 91 53.800781 C 90.933594 53.800781 90.867188 53.800781 90.800781 53.800781 Z M 90.800781 53.800781" style="stroke:none;fill-rule:nonzero;fill:rgb(94.509804%,94.509804%,94.509804%);fill-opacity:1;"/>
<path d="M 52 30 C 52.726562 30 53.453125 30 54.199219 30 C 54.742188 30.601562 55.027344 31.011719 55.375 31.710938 C 55.550781 32.035156 55.722656 32.355469 55.898438 32.675781 C 55.972656 32.820312 56.042969 32.960938 56.121094 33.109375 C 56.496094 33.769531 56.957031 34.382812 57.398438 35 C 57.464844 33.351562 57.53125 31.699219 57.601562 30 C 58.128906 30 58.65625 30 59.199219 30 C 59.398438 30.199219 59.398438 30.199219 59.421875 30.992188 C 59.421875 31.347656 59.421875 31.703125 59.417969 32.058594 C 59.417969 32.242188 59.417969 32.429688 59.417969 32.621094 C 59.417969 33.21875 59.414062 33.816406 59.414062 34.414062 C 59.410156 34.816406 59.410156 35.21875 59.410156 35.625 C 59.40625 36.617188 59.402344 37.609375 59.398438 38.601562 C 59.074219 38.609375 58.75 38.613281 58.425781 38.621094 C 58.15625 38.625 58.15625 38.625 57.878906 38.632812 C 57.398438 38.601562 57.398438 38.601562 56.96875 38.28125 C 56.878906 38.128906 56.792969 37.972656 56.699219 37.8125 C 56.59375 37.632812 56.484375 37.457031 56.375 37.269531 C 56.25 37.050781 56.128906 36.828125 56 36.601562 C 55.824219 36.304688 55.648438 36.007812 55.46875 35.710938 C 54.972656 34.878906 54.488281 34.039062 54 33.199219 C 53.933594 34.980469 53.867188 36.765625 53.800781 38.601562 C 53.207031 38.601562 52.613281 38.601562 52 38.601562 C 52 35.761719 52 32.925781 52 30 Z M 52 30" style="stroke:none;fill-rule:nonzero;fill:rgb(91.372549%,91.372549%,91.372549%);fill-opacity:1;"/>
<path d="M 45.800781 30.398438 C 46.136719 30.773438 46.136719 30.773438 46.199219 31.199219 C 45.925781 31.75 45.925781 31.75 45.601562 32.199219 C 45.164062 32.105469 44.816406 32.007812 44.425781 31.789062 C 43.855469 31.535156 43.417969 31.546875 42.800781 31.601562 C 42.601562 31.730469 42.402344 31.863281 42.199219 32 C 42.148438 32.515625 42.148438 32.515625 42.199219 33 C 42.386719 33.035156 42.578125 33.066406 42.769531 33.101562 C 45.328125 33.601562 45.328125 33.601562 46.199219 34.398438 C 46.710938 35.246094 46.734375 36.035156 46.601562 37 C 46.230469 37.800781 45.929688 38.121094 45.175781 38.574219 C 43.84375 39.054688 42.425781 38.941406 41.140625 38.382812 C 40.648438 38.117188 40.320312 37.859375 40 37.398438 C 40.015625 36.855469 40.152344 36.652344 40.511719 36.25 C 40.605469 36.167969 40.703125 36.085938 40.800781 36 C 41.265625 36.234375 41.722656 36.46875 42.175781 36.726562 C 42.855469 37.023438 43.265625 37.097656 44 37 C 44.40625 36.777344 44.40625 36.777344 44.601562 36.398438 C 44.632812 35.992188 44.632812 35.992188 44.398438 35.601562 C 43.910156 35.398438 43.457031 35.25 42.949219 35.113281 C 41.832031 34.8125 41.171875 34.515625 40.398438 33.601562 C 40.078125 32.957031 40.109375 32.300781 40.199219 31.601562 C 40.570312 30.78125 40.9375 30.371094 41.75 30.023438 C 43.164062 29.585938 44.492188 29.671875 45.800781 30.398438 Z M 45.800781 30.398438" style="stroke:none;fill-rule:nonzero;fill:rgb(90.196078%,90.196078%,90.196078%);fill-opacity:1;"/>
<path d="M 19.398438 36.199219 C 19.460938 36.648438 19.460938 36.648438 19.398438 37.199219 C 18.753906 37.925781 18.238281 38.03125 17.300781 38.132812 C 16.238281 38.273438 15.195312 38.519531 14.148438 38.75 C 13.917969 38.796875 13.691406 38.847656 13.453125 38.894531 C 11.886719 39.238281 10.457031 39.734375 9 40.398438 C 9.226562 40.335938 9.453125 40.269531 9.6875 40.203125 C 15.042969 38.679688 15.042969 38.679688 16 39 C 14.628906 39.824219 13.277344 40.585938 11.800781 41.199219 C 11.4375 41.355469 11.078125 41.507812 10.714844 41.664062 C 10.355469 41.816406 9.992188 41.972656 9.628906 42.125 C 9.140625 42.339844 8.667969 42.554688 8.199219 42.800781 C 8.199219 42.667969 8.199219 42.535156 8.199219 42.398438 C 8.066406 42.335938 7.9375 42.269531 7.800781 42.199219 C 7.992188 42.109375 8.1875 42.019531 8.386719 41.925781 C 9.015625 41.667969 9.015625 41.667969 9.199219 41.199219 C 7.710938 41.933594 6.300781 42.734375 5.199219 44 C 5.066406 44.402344 5.066406 44.402344 5 44.800781 C 4.636719 45.449219 4.636719 45.449219 4.199219 46 C 3.9375 46 3.671875 46 3.398438 46 C 4.203125 42.871094 7.179688 40.34375 9.839844 38.734375 C 16.949219 34.632812 16.949219 34.632812 19.398438 36.199219 Z M 19.398438 36.199219" style="stroke:none;fill-rule:nonzero;fill:rgb(94.117647%,94.117647%,94.117647%);fill-opacity:1;"/>
<path d="M 83.445312 35.90625 C 86.71875 36.722656 89.835938 38.195312 92.398438 40.398438 C 92.574219 40.542969 92.75 40.6875 92.933594 40.835938 C 94.167969 41.886719 95.101562 43.054688 96 44.398438 C 95.734375 44.597656 95.472656 44.796875 95.199219 45 C 94.800781 44.398438 94.800781 44.398438 94.613281 43.988281 C 94.402344 43.535156 94.402344 43.535156 93.800781 43.199219 C 93.570312 43.164062 93.570312 43.164062 93.335938 43.125 C 92.632812 42.960938 92.167969 42.636719 91.601562 42.199219 C 91.601562 42.066406 91.601562 41.9375 91.601562 41.800781 C 91.410156 41.738281 91.21875 41.675781 91.023438 41.613281 C 90.398438 41.398438 90.398438 41.398438 90 41.199219 C 90 41.332031 90 41.464844 90 41.601562 C 87.738281 41.195312 85.957031 40.179688 84 39 C 84.722656 38.757812 85.035156 38.859375 85.769531 39.035156 C 85.996094 39.089844 86.226562 39.144531 86.460938 39.199219 C 86.703125 39.257812 86.941406 39.316406 87.1875 39.375 C 87.425781 39.429688 87.664062 39.488281 87.910156 39.546875 C 88.808594 39.757812 89.707031 39.976562 90.601562 40.199219 C 87.875 38.929688 84.730469 38.265625 81.761719 37.882812 C 81.199219 37.800781 81.199219 37.800781 80.800781 37.550781 C 80.601562 37.199219 80.601562 37.199219 80.625 36.6875 C 81.078125 35.429688 82.359375 35.730469 83.445312 35.90625 Z M 83.445312 35.90625" style="stroke:none;fill-rule:nonzero;fill:rgb(89.803922%,89.803922%,89.803922%);fill-opacity:1;"/>
<path d="M 48 30 C 48.59375 30 49.1875 30 49.800781 30 C 49.800781 32.839844 49.800781 35.675781 49.800781 38.601562 C 49.207031 38.601562 48.613281 38.601562 48 38.601562 C 48 35.761719 48 32.925781 48 30 Z M 48 30" style="stroke:none;fill-rule:nonzero;fill:rgb(93.72549%,93.72549%,93.72549%);fill-opacity:1;"/>
<path d="M 19.398438 36.199219 C 19.460938 36.648438 19.460938 36.648438 19.398438 37.199219 C 18.753906 37.929688 18.191406 38.082031 17.234375 38.15625 C 16.777344 38.203125 16.355469 38.300781 15.914062 38.414062 C 14.992188 38.628906 14.144531 38.628906 13.199219 38.601562 C 13.132812 38.46875 13.066406 38.335938 13 38.199219 C 12.605469 38.199219 12.207031 38.199219 11.800781 38.199219 C 12 37.601562 12 37.601562 12.546875 37.300781 C 17.722656 35.128906 17.722656 35.128906 19.398438 36.199219 Z M 19.398438 36.199219" style="stroke:none;fill-rule:nonzero;fill:rgb(89.411765%,89.411765%,89.411765%);fill-opacity:1;"/>
<path d="M 8.601562 49.601562 C 9.246094 52.417969 9.246094 52.417969 9.089844 53.050781 C 8.808594 54.773438 9.640625 56.660156 10.421875 58.160156 C 10.601562 58.601562 10.601562 58.601562 10.398438 59.199219 C 10.476562 59.628906 10.476562 59.628906 10.601562 60 C 10.402344 60 10.203125 60 10 60 C 10 59.867188 10 59.734375 10 59.601562 C 9.867188 59.601562 9.734375 59.601562 9.601562 59.601562 C 9.335938 59.070312 9.070312 58.542969 8.800781 58 C 8.667969 58 8.535156 58 8.398438 58 C 7.511719 55.394531 7.582031 52.5 8 49.800781 C 8.398438 49.601562 8.398438 49.601562 8.601562 49.601562 Z M 8.601562 49.601562" style="stroke:none;fill-rule:nonzero;fill:rgb(89.019608%,89.019608%,89.019608%);fill-opacity:1;"/>
<path d="M 9.398438 44.601562 C 9.601562 45 9.601562 45 9.464844 45.492188 C 8.914062 46.890625 8.269531 47.824219 7.230469 48.898438 C 6.324219 49.957031 5.835938 51.234375 5.601562 52.601562 C 5.46875 52.535156 5.335938 52.46875 5.199219 52.398438 C 5.132812 52.136719 5.066406 51.871094 5 51.601562 C 4.933594 52.523438 4.867188 53.449219 4.800781 54.398438 C 4.734375 54.398438 4.667969 54.398438 4.601562 54.398438 C 4.601562 53.210938 4.601562 52.023438 4.601562 50.800781 C 4.46875 50.867188 4.335938 50.933594 4.199219 51 C 5.429688 48.445312 7.222656 46.390625 9.398438 44.601562 Z M 9.398438 44.601562" style="stroke:none;fill-rule:nonzero;fill:rgb(91.764706%,91.764706%,91.764706%);fill-opacity:1;"/>
<path d="M 11.800781 41.398438 C 11.933594 41.464844 12.0625 41.53125 12.199219 41.601562 C 12.109375 41.691406 12.015625 41.777344 11.921875 41.871094 C 11.128906 42.648438 11.128906 42.648438 10.4375 43.511719 C 9.871094 44.144531 9.222656 44.484375 8.492188 44.90625 C 7.3125 45.609375 6.558594 46.464844 5.800781 47.601562 C 5.601562 47.46875 5.402344 47.335938 5.199219 47.199219 C 4.9375 47.398438 4.671875 47.597656 4.398438 47.800781 C 4.367188 46.996094 4.4375 46.59375 4.96875 45.96875 C 6.945312 44.148438 9.316406 42.476562 11.800781 41.398438 Z M 11.800781 41.398438" style="stroke:none;fill-rule:nonzero;fill:rgb(85.882353%,85.882353%,85.882353%);fill-opacity:1;"/>
<path d="M 67.398438 47.398438 C 67.53125 47.398438 67.664062 47.398438 67.800781 47.398438 C 68.078125 47.71875 68.078125 47.71875 68.394531 48.160156 C 68.511719 48.320312 68.628906 48.484375 68.75 48.648438 C 68.875 48.824219 68.996094 48.996094 69.125 49.175781 C 69.378906 49.527344 69.636719 49.875 69.890625 50.226562 C 70.011719 50.394531 70.136719 50.566406 70.261719 50.738281 C 71.335938 52.207031 72.480469 53.546875 73.800781 54.800781 C 73.601562 54.898438 73.601562 54.898438 73.398438 55 C 73.464844 55.199219 73.53125 55.394531 73.601562 55.601562 C 72.8125 55.488281 72.242188 55.277344 71.601562 54.800781 C 71.601562 54.601562 71.601562 54.402344 71.601562 54.199219 C 71.234375 53.695312 71.234375 53.695312 70.761719 53.164062 C 70.191406 52.484375 69.664062 51.824219 69.210938 51.0625 C 69.078125 50.84375 68.941406 50.625 68.800781 50.398438 C 68.667969 50.398438 68.535156 50.398438 68.398438 50.398438 C 68.203125 49.871094 68.003906 49.34375 67.800781 48.800781 C 67.667969 48.800781 67.535156 48.800781 67.398438 48.800781 C 67.398438 48.339844 67.398438 47.875 67.398438 47.398438 Z M 67.398438 47.398438" style="stroke:none;fill-rule:nonzero;fill:rgb(88.235294%,88.235294%,88.235294%);fill-opacity:1;"/>
<path d="M 91.601562 49.601562 C 91.730469 49.664062 91.863281 49.730469 92 49.800781 C 92.230469 51.0625 92.238281 52.320312 92.238281 53.601562 C 92.238281 53.789062 92.242188 53.976562 92.246094 54.171875 C 92.246094 55.320312 92.128906 56.300781 91.800781 57.398438 C 91.535156 57.269531 91.273438 57.136719 91 57 C 90.867188 57.132812 90.734375 57.265625 90.601562 57.398438 C 90.46875 57.335938 90.335938 57.269531 90.199219 57.199219 C 90.242188 57.042969 90.285156 56.886719 90.332031 56.722656 C 90.632812 55.585938 90.875 54.578125 90.800781 53.398438 C 90.800781 53.203125 90.800781 53.003906 90.800781 52.800781 C 90.667969 52.867188 90.535156 52.933594 90.398438 53 C 90.460938 52.859375 90.519531 52.71875 90.582031 52.570312 C 90.871094 51.816406 91.0625 51.046875 91.261719 50.265625 C 91.398438 49.800781 91.398438 49.800781 91.601562 49.601562 Z M 91.601562 49.601562" style="stroke:none;fill-rule:nonzero;fill:rgb(87.058824%,87.058824%,87.058824%);fill-opacity:1;"/>
<path d="M 90.398438 44.601562 C 91.230469 45.050781 91.894531 45.613281 92.5625 46.273438 C 92.667969 46.378906 92.769531 46.480469 92.878906 46.589844 C 93.796875 47.53125 94.453125 48.550781 95.09375 49.695312 C 95.351562 50.21875 95.351562 50.21875 95.800781 50.398438 C 95.734375 50.597656 95.667969 50.796875 95.601562 51 C 95.46875 50.933594 95.335938 50.867188 95.199219 50.800781 C 95.132812 50.933594 95.066406 51.0625 95 51.199219 C 94.933594 51.03125 94.863281 50.863281 94.796875 50.6875 C 94.707031 50.46875 94.617188 50.25 94.523438 50.023438 C 94.4375 49.808594 94.347656 49.589844 94.257812 49.363281 C 94.035156 48.789062 94.035156 48.789062 93.601562 48.398438 C 93.699219 48.589844 93.796875 48.78125 93.898438 48.976562 C 94.199219 49.601562 94.199219 49.601562 94.199219 50 C 94.003906 50.066406 93.804688 50.132812 93.601562 50.199219 C 93.527344 50.085938 93.453125 49.96875 93.378906 49.847656 C 92.894531 49.097656 92.453125 48.414062 91.773438 47.824219 C 90.96875 47.074219 90.6875 46.039062 90.398438 45 C 90.398438 44.867188 90.398438 44.734375 90.398438 44.601562 Z M 90.398438 44.601562" style="stroke:none;fill-rule:nonzero;fill:rgb(89.803922%,89.803922%,89.803922%);fill-opacity:1;"/>
<path d="M 82.199219 60.199219 C 82.300781 60.597656 82.300781 60.597656 82.398438 61 C 80.222656 62.167969 78.082031 62.890625 75.585938 62.226562 C 75 62 75 62 74.398438 61.601562 C 74.464844 61.46875 74.53125 61.335938 74.601562 61.199219 C 74.828125 61.203125 75.058594 61.210938 75.292969 61.214844 C 75.601562 61.21875 75.90625 61.222656 76.210938 61.226562 C 76.363281 61.226562 76.511719 61.230469 76.667969 61.234375 C 77.65625 61.242188 78.46875 61.144531 79.398438 60.800781 C 79.464844 60.667969 79.53125 60.535156 79.601562 60.398438 C 79.730469 60.464844 79.863281 60.53125 80 60.601562 C 79.933594 60.730469 79.867188 60.863281 79.800781 61 C 80.667969 60.875 81.386719 60.199219 82.199219 60.199219 Z M 82.199219 60.199219" style="stroke:none;fill-rule:nonzero;fill:rgb(84.705882%,84.705882%,84.705882%);fill-opacity:1;"/>
<path d="M 61.800781 51.800781 C 62.453125 51.882812 62.726562 51.925781 63.199219 52.398438 C 63.132812 52.53125 63.066406 52.664062 63 52.800781 C 63.140625 52.847656 63.28125 52.898438 63.425781 52.949219 C 64.078125 53.234375 64.628906 53.574219 65.199219 54 C 65.199219 54.132812 65.199219 54.265625 65.199219 54.398438 C 65.386719 54.492188 65.386719 54.492188 65.574219 54.585938 C 65.851562 54.726562 66.125 54.863281 66.398438 55 C 66.398438 55.132812 66.398438 55.265625 66.398438 55.398438 C 66.515625 55.425781 66.632812 55.449219 66.753906 55.472656 C 67.207031 55.601562 67.535156 55.769531 67.933594 56.011719 C 68.066406 56.09375 68.199219 56.175781 68.335938 56.257812 C 68.542969 56.382812 68.542969 56.382812 68.75 56.511719 C 68.890625 56.597656 69.027344 56.683594 69.171875 56.769531 C 69.515625 56.980469 69.859375 57.1875 70.199219 57.398438 C 70.003906 57.664062 69.804688 57.929688 69.601562 58.199219 C 69.414062 58.054688 69.226562 57.910156 69.035156 57.757812 C 67.515625 56.589844 65.96875 55.488281 64.351562 54.460938 C 64.1875 54.359375 64.027344 54.257812 63.859375 54.148438 C 63.707031 54.054688 63.554688 53.957031 63.398438 53.859375 C 63.261719 53.777344 63.128906 53.691406 62.988281 53.605469 C 62.59375 53.398438 62.238281 53.289062 61.800781 53.199219 C 61.867188 52.871094 61.933594 52.539062 62 52.199219 C 61.867188 52.132812 61.734375 52.066406 61.601562 52 C 61.664062 51.933594 61.730469 51.867188 61.800781 51.800781 Z M 61.800781 51.800781" style="stroke:none;fill-rule:nonzero;fill:rgb(87.058824%,87.058824%,87.058824%);fill-opacity:1;"/>
<path d="M 20 60.398438 C 20.132812 60.398438 20.265625 60.398438 20.398438 60.398438 C 20.464844 60.53125 20.53125 60.664062 20.601562 60.800781 C 21.707031 61.214844 22.714844 61.25 23.886719 61.226562 C 24.054688 61.222656 24.21875 61.222656 24.390625 61.21875 C 24.792969 61.214844 25.195312 61.207031 25.601562 61.199219 C 25.398438 61.800781 25.398438 61.800781 25.070312 61.988281 C 22.777344 62.769531 20.835938 62.410156 18.601562 61.601562 C 18.730469 61.535156 18.863281 61.46875 19 61.398438 C 19 61.269531 19 61.136719 19 61 C 19.394531 61 19.792969 61 20.199219 61 C 20.132812 60.800781 20.066406 60.605469 20 60.398438 Z M 20 60.398438" style="stroke:none;fill-rule:nonzero;fill:rgb(85.882353%,85.882353%,85.882353%);fill-opacity:1;"/>
<path d="M 13.476562 38.1875 C 13.800781 38.398438 13.800781 38.398438 14 38.800781 C 13.792969 38.847656 13.585938 38.890625 13.371094 38.941406 C 10.980469 39.492188 10.980469 39.492188 8.800781 40.601562 C 8.734375 40.730469 8.667969 40.863281 8.601562 41 C 8.46875 40.933594 8.335938 40.867188 8.199219 40.800781 C 8.257812 40.144531 8.324219 39.871094 8.816406 39.417969 C 9.339844 39.074219 9.867188 38.730469 10.398438 38.398438 C 10.714844 38.203125 10.714844 38.203125 11.039062 38 C 11.914062 37.6875 12.625 37.851562 13.476562 38.1875 Z M 13.476562 38.1875" style="stroke:none;fill-rule:nonzero;fill:rgb(85.882353%,85.882353%,85.882353%);fill-opacity:1;"/>
<path d="M 88 41.398438 C 88.503906 41.644531 89.007812 41.890625 89.511719 42.136719 C 89.722656 42.238281 89.722656 42.238281 89.9375 42.34375 C 90.898438 42.816406 91.742188 43.355469 92.601562 44 C 92.191406 44.449219 92 44.601562 91.398438 44.800781 C 90.011719 44.167969 88.890625 43.015625 88 41.800781 C 88 41.667969 88 41.535156 88 41.398438 Z M 88 41.398438" style="stroke:none;fill-rule:nonzero;fill:rgb(84.705882%,84.705882%,84.705882%);fill-opacity:1;"/>
<path d="M 8.398438 44.800781 C 8.296875 44.886719 8.191406 44.96875 8.085938 45.058594 C 7.160156 45.835938 6.460938 46.589844 5.800781 47.601562 C 5.601562 47.46875 5.402344 47.335938 5.199219 47.199219 C 4.9375 47.398438 4.671875 47.597656 4.398438 47.800781 C 4.382812 46.988281 4.4375 46.589844 4.972656 45.964844 C 7.058594 44.050781 7.058594 44.050781 8.398438 44.800781 Z M 8.398438 44.800781" style="stroke:none;fill-rule:nonzero;fill:rgb(90.196078%,90.196078%,90.196078%);fill-opacity:1;"/>
<path d="M 16 39 C 14.632812 39.824219 13.28125 40.597656 11.800781 41.199219 C 11.601562 40.800781 11.601562 40.800781 11.601562 40.398438 C 10.671875 40.496094 10.671875 40.496094 9.800781 40.800781 C 9.800781 40.601562 9.800781 40.402344 9.800781 40.199219 C 14.960938 38.652344 14.960938 38.652344 16 39 Z M 16 39" style="stroke:none;fill-rule:nonzero;fill:rgb(85.490196%,85.490196%,85.490196%);fill-opacity:1;"/>
<path d="M 6.398438 47.398438 C 6.464844 47.597656 6.53125 47.796875 6.601562 48 C 6.34375 48.40625 6.078125 48.804688 5.800781 49.199219 C 5.800781 49.332031 5.800781 49.464844 5.800781 49.601562 C 5.996094 49.601562 6.195312 49.601562 6.398438 49.601562 C 6.269531 50.304688 6.097656 50.980469 5.886719 51.664062 C 5.832031 51.839844 5.78125 52.015625 5.722656 52.199219 C 5.664062 52.398438 5.664062 52.398438 5.601562 52.601562 C 5.46875 52.535156 5.335938 52.46875 5.199219 52.398438 C 5.132812 52.136719 5.066406 51.871094 5 51.601562 C 4.933594 52.523438 4.867188 53.449219 4.800781 54.398438 C 4.734375 54.398438 4.667969 54.398438 4.601562 54.398438 C 4.601562 53.210938 4.601562 52.023438 4.601562 50.800781 C 4.46875 50.867188 4.335938 50.933594 4.199219 51 C 4.519531 50.328125 4.898438 49.710938 5.300781 49.085938 C 5.421875 48.898438 5.542969 48.707031 5.667969 48.511719 C 5.910156 48.140625 6.152344 47.769531 6.398438 47.398438 Z M 6.398438 47.398438" style="stroke:none;fill-rule:nonzero;fill:rgb(83.921569%,83.921569%,83.921569%);fill-opacity:1;"/>
<path d="M 84 38.800781 C 85.6875 39.058594 87.339844 39.398438 89 39.800781 C 88.824219 40.75 88.824219 40.75 88.601562 41.199219 C 86.875 40.808594 85.265625 40.066406 84 38.800781 Z M 84 38.800781" style="stroke:none;fill-rule:nonzero;fill:rgb(85.098039%,85.098039%,85.098039%);fill-opacity:1;"/>
<path d="M 7 40.800781 C 7.132812 40.867188 7.265625 40.933594 7.398438 41 C 7.265625 41.117188 7.128906 41.230469 6.988281 41.351562 C 6.859375 41.5 6.730469 41.648438 6.601562 41.800781 C 6.664062 42.222656 6.664062 42.222656 6.800781 42.601562 C 6.6875 42.691406 6.574219 42.785156 6.457031 42.878906 C 6.238281 43.0625 6.238281 43.0625 6.011719 43.25 C 5.792969 43.429688 5.792969 43.429688 5.570312 43.617188 C 5.167969 44.035156 5.101562 44.242188 5 44.800781 C 4.636719 45.449219 4.636719 45.449219 4.199219 46 C 3.9375 46 3.671875 46 3.398438 46 C 3.933594 43.917969 5.519531 42.28125 7 40.800781 Z M 7 40.800781" style="stroke:none;fill-rule:nonzero;fill:rgb(86.27451%,86.27451%,86.27451%);fill-opacity:1;"/>
<path d="M 38.199219 62.601562 C 38.53125 62.601562 38.859375 62.601562 39.199219 62.601562 C 39.1875 62.808594 39.175781 63.019531 39.164062 63.238281 C 39.203125 64.035156 39.320312 64.375 39.800781 65 C 40.355469 65.277344 40.785156 65.238281 41.398438 65.199219 C 41.597656 65.066406 41.796875 64.9375 42 64.800781 C 42.4375 64.875 42.4375 64.875 42.800781 65 C 42.800781 65.132812 42.800781 65.265625 42.800781 65.398438 C 41.378906 65.796875 40.191406 66.011719 38.824219 65.300781 C 38.238281 64.609375 38.074219 63.894531 38 63 C 38.066406 62.867188 38.132812 62.734375 38.199219 62.601562 Z M 38.199219 62.601562" style="stroke:none;fill-rule:nonzero;fill:rgb(83.921569%,83.921569%,83.921569%);fill-opacity:1;"/>
<path d="M 60.800781 62.601562 C 61.132812 62.589844 61.464844 62.59375 61.800781 62.601562 C 61.867188 62.664062 61.933594 62.730469 62 62.800781 C 61.945312 63.917969 61.859375 64.609375 61 65.398438 C 60.007812 65.90625 59.0625 65.839844 58 65.601562 C 57.730469 65.476562 57.460938 65.34375 57.199219 65.199219 C 57.265625 65.066406 57.332031 64.9375 57.398438 64.800781 C 57.574219 64.867188 57.746094 64.933594 57.925781 65 C 58.621094 65.207031 59.082031 65.308594 59.800781 65.199219 C 60.40625 64.824219 60.40625 64.824219 60.800781 64.199219 C 60.882812 63.636719 60.847656 63.171875 60.800781 62.601562 Z M 60.800781 62.601562" style="stroke:none;fill-rule:nonzero;fill:rgb(82.352941%,82.352941%,82.352941%);fill-opacity:1;"/>
<path d="M 60.246094 62.867188 C 60.421875 62.933594 60.421875 62.933594 60.601562 63 C 60.664062 63.707031 60.683594 64.078125 60.273438 64.675781 C 59.671875 65.085938 59.316406 65.078125 58.601562 65 C 58.46875 64.933594 58.335938 64.867188 58.199219 64.800781 C 58.3125 64.105469 58.53125 63.796875 59.0625 63.335938 C 59.179688 63.230469 59.300781 63.125 59.421875 63.015625 C 59.800781 62.800781 59.800781 62.800781 60.246094 62.867188 Z M 60.246094 62.867188" style="stroke:none;fill-rule:nonzero;fill:rgb(85.882353%,85.882353%,85.882353%);fill-opacity:1;"/>
<path d="M 39.601562 62.800781 C 40.597656 63.101562 41.25 63.710938 42 64.398438 C 41.742188 64.703125 41.742188 64.703125 41.398438 65 C 40.714844 64.976562 40.203125 64.925781 39.613281 64.5625 C 39.300781 64.03125 39.347656 63.601562 39.398438 63 C 39.464844 62.933594 39.53125 62.867188 39.601562 62.800781 Z M 39.601562 62.800781" style="stroke:none;fill-rule:nonzero;fill:rgb(85.098039%,85.098039%,85.098039%);fill-opacity:1;"/>
<path d="M 37.800781 51.800781 C 37.996094 51.867188 38.195312 51.933594 38.398438 52 C 38.398438 52.199219 38.398438 52.394531 38.398438 52.601562 C 38.53125 52.664062 38.664062 52.730469 38.800781 52.800781 C 38.691406 52.847656 38.582031 52.890625 38.46875 52.941406 C 37.339844 53.429688 36.265625 53.984375 35.199219 54.601562 C 35 54 35 54 35.125 53.488281 C 35.464844 52.882812 35.746094 52.789062 36.398438 52.601562 C 36.398438 52.730469 36.398438 52.863281 36.398438 53 C 36.632812 52.839844 36.867188 52.675781 37.101562 52.511719 C 37.292969 52.375 37.292969 52.375 37.492188 52.238281 C 37.59375 52.160156 37.695312 52.082031 37.800781 52 C 37.800781 51.933594 37.800781 51.867188 37.800781 51.800781 Z M 37.800781 51.800781" style="stroke:none;fill-rule:nonzero;fill:rgb(89.411765%,89.411765%,89.411765%);fill-opacity:1;"/>
<path d="M 32.199219 55.601562 C 32.199219 55.796875 32.199219 55.996094 32.199219 56.199219 C 30.140625 57.472656 27.917969 58.835938 25.398438 58.601562 C 25.90625 58.261719 26.214844 58.109375 26.773438 57.9375 C 28.671875 57.324219 30.492188 56.636719 32.199219 55.601562 Z M 32.199219 55.601562" style="stroke:none;fill-rule:nonzero;fill:rgb(99.215686%,99.215686%,99.215686%);fill-opacity:1;"/>
<path d="M 34.398438 54.398438 C 34.53125 54.464844 34.664062 54.53125 34.800781 54.601562 C 34.53125 55.40625 34 55.683594 33.324219 56.136719 C 33.207031 56.21875 33.089844 56.304688 32.96875 56.390625 C 32.078125 57 32.078125 57 31.398438 57 C 31.398438 56.800781 31.398438 56.605469 31.398438 56.398438 C 31.800781 56.0625 31.800781 56.0625 32.199219 55.800781 C 32.066406 55.734375 31.9375 55.667969 31.800781 55.601562 C 32.75 54.800781 32.75 54.800781 33.199219 54.800781 C 33.199219 54.933594 33.199219 55.0625 33.199219 55.199219 C 33.53125 55.132812 33.859375 55.066406 34.199219 55 C 34.265625 54.800781 34.332031 54.605469 34.398438 54.398438 Z M 34.398438 54.398438" style="stroke:none;fill-rule:nonzero;fill:rgb(88.235294%,88.235294%,88.235294%);fill-opacity:1;"/>
<path d="M 63 52.398438 C 64.261719 52.984375 65.335938 53.695312 66.449219 54.523438 C 66.761719 54.757812 67.078125 54.988281 67.390625 55.21875 C 67.527344 55.320312 67.664062 55.421875 67.804688 55.527344 C 68.191406 55.792969 68.578125 56 69 56.199219 C 69 56.332031 69 56.464844 69 56.601562 C 68.035156 56.316406 67.257812 55.914062 66.398438 55.398438 C 66.398438 55.269531 66.398438 55.136719 66.398438 55 C 66.277344 54.9375 66.152344 54.875 66.023438 54.8125 C 65.75 54.675781 65.476562 54.539062 65.199219 54.398438 C 65.199219 54.269531 65.199219 54.136719 65.199219 54 C 65.058594 53.949219 64.917969 53.902344 64.773438 53.851562 C 64.121094 53.566406 63.570312 53.226562 63 52.800781 C 63 52.667969 63 52.535156 63 52.398438 Z M 63 52.398438" style="stroke:none;fill-rule:nonzero;fill:rgb(98.823529%,98.823529%,98.823529%);fill-opacity:1;"/>
<path d="M 37.601562 42.398438 C 37.730469 42.464844 37.863281 42.53125 38 42.601562 C 37.929688 42.738281 37.859375 42.875 37.789062 43.019531 C 37.191406 44.253906 36.90625 45.238281 36.800781 46.601562 C 36.667969 46.730469 36.535156 46.863281 36.398438 47 C 35.949219 46.121094 35.976562 45.554688 36.199219 44.601562 C 36.804688 42.929688 36.804688 42.929688 37.601562 42.398438 Z M 37.601562 42.398438" style="stroke:none;fill-rule:nonzero;fill:rgb(76.078431%,76.078431%,76.078431%);fill-opacity:1;"/>
<path d="M 92.398438 44.199219 C 92.53125 44.265625 92.664062 44.332031 92.800781 44.398438 C 92.734375 44.53125 92.667969 44.664062 92.601562 44.800781 C 92.71875 44.851562 92.835938 44.902344 92.957031 44.957031 C 93.429688 45.21875 93.738281 45.496094 94.113281 45.886719 C 94.226562 46.007812 94.34375 46.125 94.464844 46.25 C 94.628906 46.421875 94.628906 46.421875 94.800781 46.601562 C 94.90625 46.695312 95.011719 46.789062 95.121094 46.886719 C 95.46875 47.28125 95.585938 47.636719 95.738281 48.136719 C 95.789062 48.300781 95.839844 48.460938 95.890625 48.628906 C 95.925781 48.75 95.960938 48.875 96 49 C 95.867188 48.933594 95.734375 48.867188 95.601562 48.800781 C 95.601562 48.667969 95.601562 48.535156 95.601562 48.398438 C 95.46875 48.398438 95.335938 48.398438 95.199219 48.398438 C 94.996094 48.070312 94.796875 47.734375 94.601562 47.398438 C 94.304688 47.046875 94 46.703125 93.6875 46.363281 C 93.53125 46.191406 93.375 46.019531 93.210938 45.839844 C 92.691406 45.285156 92.289062 44.921875 91.601562 44.601562 C 91.976562 44.386719 91.976562 44.386719 92.398438 44.199219 Z M 92.398438 44.199219" style="stroke:none;fill-rule:nonzero;fill:rgb(97.647059%,97.647059%,97.647059%);fill-opacity:1;"/>
<path d="M 66.800781 55.800781 C 67.683594 55.917969 68.304688 56.253906 69.0625 56.710938 C 69.277344 56.839844 69.488281 56.96875 69.710938 57.101562 C 69.871094 57.199219 70.035156 57.296875 70.199219 57.398438 C 70.003906 57.664062 69.804688 57.929688 69.601562 58.199219 C 69.171875 57.875 68.742188 57.550781 68.3125 57.226562 C 68.191406 57.132812 68.066406 57.039062 67.941406 56.945312 C 67.023438 56.246094 67.023438 56.246094 66.800781 55.800781 Z M 66.800781 55.800781" style="stroke:none;fill-rule:nonzero;fill:rgb(89.019608%,89.019608%,89.019608%);fill-opacity:1;"/>
<path d="M 62 42.398438 C 62.449219 42.488281 62.449219 42.488281 63 42.800781 C 63.519531 43.65625 63.871094 44.605469 64 45.601562 C 63.800781 45.664062 63.605469 45.730469 63.398438 45.800781 C 63.242188 45.421875 63.082031 45.042969 62.925781 44.664062 C 62.835938 44.453125 62.75 44.238281 62.65625 44.023438 C 62.433594 43.484375 62.214844 42.941406 62 42.398438 Z M 62 42.398438" style="stroke:none;fill-rule:nonzero;fill:rgb(78.823529%,78.823529%,78.823529%);fill-opacity:1;"/>
<path d="M 16 39 C 14.078125 40.199219 14.078125 40.199219 13 40.199219 C 12.398438 40 12.398438 40 11.800781 39.601562 C 12.386719 39.460938 12.972656 39.324219 13.5625 39.1875 C 13.730469 39.148438 13.894531 39.109375 14.066406 39.066406 C 14.226562 39.03125 14.386719 38.992188 14.554688 38.957031 C 14.777344 38.902344 14.777344 38.902344 15 38.851562 C 15.398438 38.800781 15.398438 38.800781 16 39 Z M 16 39" style="stroke:none;fill-rule:nonzero;fill:rgb(70.980392%,70.980392%,70.980392%);fill-opacity:1;"/>
<path d="M 31 50.398438 C 31.199219 51 31.199219 51 30.992188 51.453125 C 29.40625 53.996094 29.40625 53.996094 28.199219 54.800781 C 28.066406 54.734375 27.9375 54.667969 27.800781 54.601562 C 27.914062 54.480469 28.027344 54.363281 28.144531 54.238281 C 29.261719 53.042969 30.167969 51.808594 31 50.398438 Z M 31 50.398438" style="stroke:none;fill-rule:nonzero;fill:rgb(98.823529%,98.823529%,98.823529%);fill-opacity:1;"/>
<path d="M 91 56.601562 C 91.199219 56.730469 91.394531 56.863281 91.601562 57 C 91.601562 57.265625 91.601562 57.527344 91.601562 57.800781 C 91.402344 57.867188 91.203125 57.933594 91 58 C 90.722656 58.410156 90.722656 58.410156 90.488281 58.898438 C 90.039062 59.78125 90.039062 59.78125 89.601562 60 C 89.640625 59.851562 89.683594 59.699219 89.722656 59.546875 C 89.777344 59.351562 89.832031 59.152344 89.886719 58.949219 C 89.941406 58.753906 89.996094 58.558594 90.050781 58.359375 C 90.171875 57.90625 90.289062 57.453125 90.398438 57 C 90.53125 57 90.664062 57 90.800781 57 C 90.867188 56.867188 90.933594 56.734375 91 56.601562 Z M 91 56.601562" style="stroke:none;fill-rule:nonzero;fill:rgb(98.039216%,98.039216%,98.039216%);fill-opacity:1;"/>
<path d="M 51.398438 45.601562 C 51.855469 46.035156 52.246094 46.480469 52.601562 47 C 52.601562 47.132812 52.601562 47.265625 52.601562 47.398438 C 52.773438 47.480469 52.773438 47.480469 52.945312 47.5625 C 53.421875 47.8125 53.824219 48.097656 54.25 48.425781 C 54.390625 48.53125 54.53125 48.640625 54.679688 48.75 C 54.785156 48.832031 54.890625 48.914062 55 49 C 54.867188 49.066406 54.734375 49.132812 54.601562 49.199219 C 51.882812 47.550781 51.882812 47.550781 51.425781 46.011719 C 51.417969 45.875 51.410156 45.742188 51.398438 45.601562 Z M 51.398438 45.601562" style="stroke:none;fill-rule:nonzero;fill:rgb(99.215686%,99.215686%,99.215686%);fill-opacity:1;"/>
<path d="M 68.800781 50.398438 C 69.300781 50.867188 69.675781 51.371094 70.0625 51.9375 C 70.6875 52.84375 71.332031 53.726562 72 54.601562 C 70.519531 53.976562 69.476562 52.40625 68.800781 51 C 68.800781 50.800781 68.800781 50.605469 68.800781 50.398438 Z M 68.800781 50.398438" style="stroke:none;fill-rule:nonzero;fill:rgb(99.215686%,99.215686%,99.215686%);fill-opacity:1;"/>
<path d="M 60.199219 43.800781 C 60.800781 44 60.800781 44 61.113281 44.496094 C 62.144531 46.582031 62.144531 46.582031 62.199219 47.800781 C 61.609375 47.503906 61.554688 47.082031 61.3125 46.476562 C 61.226562 46.257812 61.136719 46.042969 61.046875 45.820312 C 60.964844 45.617188 60.882812 45.410156 60.800781 45.199219 C 60.679688 44.917969 60.558594 44.632812 60.4375 44.351562 C 60.359375 44.167969 60.28125 43.988281 60.199219 43.800781 Z M 60.199219 43.800781" style="stroke:none;fill-rule:nonzero;fill:rgb(98.823529%,98.823529%,98.823529%);fill-opacity:1;"/>
<path d="M 91.800781 44.800781 C 92.59375 44.910156 92.953125 45.285156 93.5 45.851562 C 93.65625 46.011719 93.8125 46.171875 93.972656 46.339844 C 94.410156 46.808594 94.820312 47.285156 95.199219 47.800781 C 95.132812 47.933594 95.066406 48.0625 95 48.199219 C 94.867188 48.199219 94.734375 48.199219 94.601562 48.199219 C 94.339844 47.863281 94.089844 47.515625 93.851562 47.164062 C 93.230469 46.285156 92.652344 45.640625 91.800781 45 C 91.800781 44.933594 91.800781 44.867188 91.800781 44.800781 Z M 91.800781 44.800781" style="stroke:none;fill-rule:nonzero;fill:rgb(83.137255%,83.137255%,83.137255%);fill-opacity:1;"/>
<path d="M 90.398438 43.398438 C 90.53125 43.398438 90.664062 43.398438 90.800781 43.398438 C 90.867188 43.53125 90.933594 43.664062 91 43.800781 C 91.265625 43.667969 91.527344 43.535156 91.800781 43.398438 C 92.0625 43.664062 92.328125 43.929688 92.601562 44.199219 C 92.0625 44.539062 92.0625 44.539062 91.398438 44.800781 C 90.824219 44.585938 90.824219 44.585938 90.398438 44.199219 C 90.398438 43.9375 90.398438 43.671875 90.398438 43.398438 Z M 90.398438 43.398438" style="stroke:none;fill-rule:nonzero;fill:rgb(87.058824%,87.058824%,87.058824%);fill-opacity:1;"/>
<path d="M 10.199219 41 C 10.601562 41.199219 10.601562 41.199219 10.800781 41.601562 C 9.511719 42.195312 9.511719 42.195312 8.199219 42.800781 C 8.199219 42.667969 8.199219 42.535156 8.199219 42.398438 C 8.066406 42.335938 7.9375 42.269531 7.800781 42.199219 C 8.332031 41.933594 8.867188 41.667969 9.398438 41.398438 C 9.542969 41.320312 9.683594 41.242188 9.828125 41.160156 C 9.949219 41.109375 10.074219 41.054688 10.199219 41 Z M 10.199219 41" style="stroke:none;fill-rule:nonzero;fill:rgb(85.098039%,85.098039%,85.098039%);fill-opacity:1;"/>
<path d="M 72 59.601562 C 72.925781 59.730469 73.847656 59.863281 74.800781 60 C 74.867188 60.265625 74.933594 60.527344 75 60.800781 C 74.613281 60.742188 74.226562 60.683594 73.835938 60.625 C 73.621094 60.59375 73.40625 60.558594 73.183594 60.527344 C 72.601562 60.398438 72.601562 60.398438 72 60 C 72 59.867188 72 59.734375 72 59.601562 Z M 72 59.601562" style="stroke:none;fill-rule:nonzero;fill:rgb(82.745098%,82.745098%,82.745098%);fill-opacity:1;"/>
<path d="M 62.199219 54.601562 C 62.925781 54.863281 63.527344 55.1875 64.164062 55.625 C 64.320312 55.734375 64.480469 55.839844 64.640625 55.953125 C 64.757812 56.035156 64.878906 56.117188 65 56.199219 C 64.605469 56.398438 64.605469 56.398438 64.199219 56.601562 C 63.867188 56.34375 63.53125 56.085938 63.199219 55.824219 C 62.921875 55.609375 62.921875 55.609375 62.636719 55.390625 C 62.492188 55.261719 62.347656 55.132812 62.199219 55 C 62.199219 54.867188 62.199219 54.734375 62.199219 54.601562 Z M 62.199219 54.601562" style="stroke:none;fill-rule:nonzero;fill:rgb(85.882353%,85.882353%,85.882353%);fill-opacity:1;"/>
<path d="M 93.601562 48 C 94.363281 48.253906 94.429688 48.511719 94.8125 49.199219 C 95.179688 49.929688 95.179688 49.929688 95.800781 50.398438 C 95.734375 50.597656 95.667969 50.796875 95.601562 51 C 95.46875 50.933594 95.335938 50.867188 95.199219 50.800781 C 95.132812 50.933594 95.066406 51.0625 95 51.199219 C 94.933594 51.035156 94.863281 50.871094 94.796875 50.703125 C 94.707031 50.488281 94.617188 50.273438 94.523438 50.050781 C 94.4375 49.835938 94.347656 49.625 94.257812 49.402344 C 94.054688 48.925781 93.839844 48.460938 93.601562 48 Z M 93.601562 48" style="stroke:none;fill-rule:nonzero;fill:rgb(81.176471%,81.176471%,81.176471%);fill-opacity:1;"/>
<path d="M 18.800781 36 C 18.996094 36.066406 19.195312 36.132812 19.398438 36.199219 C 19.460938 36.648438 19.460938 36.648438 19.398438 37.199219 C 18.898438 37.664062 18.898438 37.664062 18.398438 38 C 18.269531 37.933594 18.136719 37.867188 18 37.800781 C 18.074219 37.3125 18.074219 37.3125 18.199219 36.800781 C 18.332031 36.734375 18.464844 36.667969 18.601562 36.601562 C 18.664062 36.402344 18.730469 36.203125 18.800781 36 Z M 18.800781 36" style="stroke:none;fill-rule:nonzero;fill:rgb(78.039216%,78.039216%,78.039216%);fill-opacity:1;"/>
<path d="M 28 59.800781 C 27.480469 60.464844 26.976562 60.523438 26.164062 60.636719 C 25.945312 60.667969 25.726562 60.699219 25.503906 60.734375 C 25.335938 60.753906 25.171875 60.777344 25 60.800781 C 25.132812 60.667969 25.265625 60.535156 25.398438 60.398438 C 25.335938 60.269531 25.269531 60.136719 25.199219 60 C 26.144531 59.871094 27.042969 59.777344 28 59.800781 Z M 28 59.800781" style="stroke:none;fill-rule:nonzero;fill:rgb(82.745098%,82.745098%,82.745098%);fill-opacity:1;"/>
<path d="M 92.601562 44.398438 C 93.363281 44.511719 93.699219 44.835938 94.226562 45.386719 C 94.363281 45.53125 94.5 45.671875 94.640625 45.816406 C 94.757812 45.945312 94.878906 46.070312 95 46.199219 C 95.132812 46.332031 95.265625 46.464844 95.398438 46.601562 C 95.203125 46.664062 95.003906 46.730469 94.800781 46.800781 C 94.675781 46.671875 94.550781 46.542969 94.421875 46.414062 C 94.257812 46.246094 94.09375 46.082031 93.925781 45.914062 C 93.761719 45.746094 93.601562 45.582031 93.433594 45.414062 C 93.035156 44.992188 93.035156 44.992188 92.601562 44.800781 C 92.601562 44.667969 92.601562 44.535156 92.601562 44.398438 Z M 92.601562 44.398438" style="stroke:none;fill-rule:nonzero;fill:rgb(83.529412%,83.529412%,83.529412%);fill-opacity:1;"/>
<path d="M 64.800781 54 C 64.933594 54 65.0625 54 65.199219 54 C 65.199219 54.132812 65.199219 54.265625 65.199219 54.398438 C 65.324219 54.460938 65.449219 54.523438 65.574219 54.585938 C 65.851562 54.726562 66.125 54.863281 66.398438 55 C 66.398438 55.132812 66.398438 55.265625 66.398438 55.398438 C 66.664062 55.464844 66.929688 55.53125 67.199219 55.601562 C 67.003906 55.730469 66.804688 55.863281 66.601562 56 C 66.296875 55.820312 66 55.636719 65.699219 55.449219 C 65.53125 55.347656 65.367188 55.246094 65.195312 55.140625 C 65.0625 55.027344 64.933594 54.914062 64.800781 54.800781 C 64.800781 54.535156 64.800781 54.273438 64.800781 54 Z M 64.800781 54" style="stroke:none;fill-rule:nonzero;fill:rgb(82.745098%,82.745098%,82.745098%);fill-opacity:1;"/>
<path d="M 37.800781 51.800781 C 37.996094 51.867188 38.195312 51.933594 38.398438 52 C 38.398438 52.199219 38.398438 52.394531 38.398438 52.601562 C 38.53125 52.664062 38.664062 52.730469 38.800781 52.800781 C 38.207031 53.0625 37.613281 53.328125 37 53.601562 C 37 52.800781 37.34375 52.441406 37.800781 51.800781 Z M 37.800781 51.800781" style="stroke:none;fill-rule:nonzero;fill:rgb(82.352941%,82.352941%,82.352941%);fill-opacity:1;"/>
<path d="M 24.5 59.949219 C 25.199219 60 25.199219 60 25.601562 60.398438 C 24.980469 60.8125 24.859375 60.847656 24.164062 60.824219 C 23.785156 60.8125 23.785156 60.8125 23.398438 60.800781 C 23.398438 60.019531 23.796875 60 24.5 59.949219 Z M 24.5 59.949219" style="stroke:none;fill-rule:nonzero;fill:rgb(97.254902%,97.254902%,97.254902%);fill-opacity:1;"/>
<path d="M 5 47.601562 C 5.132812 47.601562 5.265625 47.601562 5.398438 47.601562 C 5.21875 48.753906 4.699219 49.089844 3.800781 49.800781 C 3.675781 49.425781 3.675781 49.425781 3.601562 49 C 3.730469 48.867188 3.863281 48.734375 4 48.601562 C 4.066406 48.664062 4.132812 48.730469 4.199219 48.800781 C 4.265625 48.667969 4.332031 48.535156 4.398438 48.398438 C 4.53125 48.398438 4.664062 48.398438 4.800781 48.398438 C 4.867188 48.136719 4.933594 47.871094 5 47.601562 Z M 5 47.601562" style="stroke:none;fill-rule:nonzero;fill:rgb(86.27451%,86.27451%,86.27451%);fill-opacity:1;"/>
<path d="M 90 57.398438 C 90.238281 57.710938 90.238281 57.710938 90.398438 58.199219 C 90.175781 58.9375 90.175781 58.9375 89.800781 59.601562 C 89.363281 59.789062 89.363281 59.789062 89 59.800781 C 89.261719 58.953125 89.589844 58.183594 90 57.398438 Z M 90 57.398438" style="stroke:none;fill-rule:nonzero;fill:rgb(78.431373%,78.431373%,78.431373%);fill-opacity:1;"/>
<path d="M 31.398438 48.601562 C 31.597656 48.664062 31.796875 48.730469 32 48.800781 C 31.851562 49.949219 31.851562 49.949219 31.398438 50.398438 C 31.269531 50.203125 31.136719 50.003906 31 49.800781 C 30.800781 49.933594 30.605469 50.0625 30.398438 50.199219 C 30.675781 49.609375 30.996094 49.113281 31.398438 48.601562 Z M 31.398438 48.601562" style="stroke:none;fill-rule:nonzero;fill:rgb(83.137255%,83.137255%,83.137255%);fill-opacity:1;"/>
<path d="M 90.601562 55.601562 C 90.664062 55.730469 90.730469 55.863281 90.800781 56 C 90.996094 55.933594 91.195312 55.867188 91.398438 55.800781 C 91.398438 56.261719 91.398438 56.722656 91.398438 57.199219 C 91.269531 57.132812 91.136719 57.066406 91 57 C 90.867188 57.132812 90.734375 57.265625 90.601562 57.398438 C 90.46875 57.335938 90.335938 57.269531 90.199219 57.199219 C 90.332031 56.671875 90.464844 56.144531 90.601562 55.601562 Z M 90.601562 55.601562" style="stroke:none;fill-rule:nonzero;fill:rgb(75.686275%,75.686275%,75.686275%);fill-opacity:1;"/>
<path d="M 37.601562 42.398438 C 37.730469 42.464844 37.863281 42.53125 38 42.601562 C 37.503906 43.492188 37.503906 43.492188 37 44.398438 C 36.867188 44.398438 36.734375 44.398438 36.601562 44.398438 C 36.6875 43.449219 36.867188 43.015625 37.601562 42.398438 Z M 37.601562 42.398438" style="stroke:none;fill-rule:nonzero;fill:rgb(81.568627%,81.568627%,81.568627%);fill-opacity:1;"/>
<path d="M 80.601562 36.398438 C 80.996094 36.53125 81.390625 36.664062 81.800781 36.800781 C 81.867188 37.195312 81.933594 37.59375 82 38 C 81.417969 37.785156 81.042969 37.644531 80.601562 37.199219 C 80.601562 36.9375 80.601562 36.671875 80.601562 36.398438 Z M 80.601562 36.398438" style="stroke:none;fill-rule:nonzero;fill:rgb(79.215686%,79.215686%,79.215686%);fill-opacity:1;"/>
<path d="M 57.398438 64.800781 C 57.566406 64.863281 57.730469 64.921875 57.898438 64.988281 C 58.679688 65.222656 59.390625 65.316406 60.199219 65.398438 C 59.800781 65.800781 59.800781 65.800781 59.394531 65.808594 C 59.238281 65.789062 59.085938 65.769531 58.925781 65.75 C 58.769531 65.734375 58.617188 65.714844 58.457031 65.695312 C 57.984375 65.597656 57.621094 65.433594 57.199219 65.199219 C 57.265625 65.066406 57.332031 64.9375 57.398438 64.800781 Z M 57.398438 64.800781" style="stroke:none;fill-rule:nonzero;fill:rgb(69.019608%,69.019608%,69.019608%);fill-opacity:1;"/>
<path d="M 39.398438 44 C 39.464844 44.132812 39.53125 44.265625 39.601562 44.398438 C 39.402344 44.875 39.402344 44.875 39.113281 45.425781 C 39.019531 45.605469 38.921875 45.789062 38.824219 45.976562 C 38.75 46.117188 38.675781 46.257812 38.601562 46.398438 C 38.46875 46.398438 38.335938 46.398438 38.199219 46.398438 C 38.3125 45.449219 38.71875 44.683594 39.398438 44 Z M 39.398438 44" style="stroke:none;fill-rule:nonzero;fill:rgb(99.215686%,99.215686%,99.215686%);fill-opacity:1;"/>
<path d="M 25.398438 61.199219 C 25.398438 61.398438 25.398438 61.597656 25.398438 61.800781 C 25.003906 61.933594 24.609375 62.0625 24.199219 62.199219 C 24.199219 62.003906 24.199219 61.804688 24.199219 61.601562 C 23.738281 61.601562 23.277344 61.601562 22.800781 61.601562 C 22.800781 61.535156 22.800781 61.46875 22.800781 61.398438 C 24.085938 61.300781 24.085938 61.300781 25.398438 61.199219 Z M 25.398438 61.199219" style="stroke:none;fill-rule:nonzero;fill:rgb(72.941176%,72.941176%,72.941176%);fill-opacity:1;"/>
<path d="M 47.199219 47.199219 C 47.332031 47.332031 47.464844 47.464844 47.601562 47.601562 C 46.78125 48.371094 46.117188 48.925781 45 49.199219 C 45.691406 48.480469 46.4375 47.839844 47.199219 47.199219 Z M 47.199219 47.199219" style="stroke:none;fill-rule:nonzero;fill:rgb(99.215686%,99.215686%,99.215686%);fill-opacity:1;"/>
<path d="M 6.398438 44.800781 C 6.53125 44.933594 6.664062 45.0625 6.800781 45.199219 C 6.273438 45.726562 5.742188 46.257812 5.199219 46.800781 C 5.066406 46.734375 4.9375 46.667969 4.800781 46.601562 C 4.800781 46.46875 4.800781 46.335938 4.800781 46.199219 C 5.148438 45.855469 5.148438 45.855469 5.601562 45.476562 C 5.75 45.347656 5.898438 45.222656 6.050781 45.09375 C 6.164062 44.996094 6.28125 44.898438 6.398438 44.800781 Z M 6.398438 44.800781" style="stroke:none;fill-rule:nonzero;fill:rgb(80.392157%,80.392157%,80.392157%);fill-opacity:1;"/>
<path d="M 9.199219 41.199219 C 8.996094 41.757812 8.878906 41.960938 8.335938 42.226562 C 8.160156 42.28125 7.984375 42.339844 7.800781 42.398438 C 7.613281 42.472656 7.429688 42.546875 7.238281 42.625 C 7.09375 42.683594 6.949219 42.742188 6.800781 42.800781 C 7.394531 41.957031 8.097656 41.199219 9.199219 41.199219 Z M 9.199219 41.199219" style="stroke:none;fill-rule:nonzero;fill:rgb(98.823529%,98.823529%,98.823529%);fill-opacity:1;"/>
<path d="M 84 38.800781 C 85.1875 38.996094 85.1875 38.996094 86.398438 39.199219 C 86.335938 39.53125 86.269531 39.859375 86.199219 40.199219 C 85.472656 39.804688 84.746094 39.40625 84 39 C 84 38.933594 84 38.867188 84 38.800781 Z M 84 38.800781" style="stroke:none;fill-rule:nonzero;fill:rgb(69.411765%,69.411765%,69.411765%);fill-opacity:1;"/>
<path d="M 75 64.398438 C 75.296875 64.523438 75.59375 64.648438 75.886719 64.773438 C 76.132812 64.878906 76.132812 64.878906 76.386719 64.984375 C 76.800781 65.199219 76.800781 65.199219 77 65.601562 C 76.671875 65.542969 76.339844 65.484375 76.011719 65.425781 C 75.828125 65.390625 75.644531 65.359375 75.457031 65.328125 C 75.230469 65.265625 75.230469 65.265625 75 65.199219 C 74.933594 65.066406 74.867188 64.9375 74.800781 64.800781 C 74.867188 64.667969 74.933594 64.535156 75 64.398438 Z M 75 64.398438" style="stroke:none;fill-rule:nonzero;fill:rgb(84.313725%,84.313725%,84.313725%);fill-opacity:1;"/>
<path d="M 89.199219 40 C 89.910156 40.121094 90.535156 40.316406 91.199219 40.601562 C 91.132812 40.730469 91.066406 40.863281 91 41 C 90.109375 40.800781 90.109375 40.800781 89.199219 40.601562 C 89.199219 40.402344 89.199219 40.203125 89.199219 40 Z M 89.199219 40" style="stroke:none;fill-rule:nonzero;fill:rgb(83.529412%,83.529412%,83.529412%);fill-opacity:1;"/>
<path d="M 13.800781 38.199219 C 13.867188 38.398438 13.933594 38.597656 14 38.800781 C 13.472656 38.867188 12.945312 38.933594 12.398438 39 C 12.335938 38.734375 12.269531 38.472656 12.199219 38.199219 C 12.773438 37.914062 13.1875 38.078125 13.800781 38.199219 Z M 13.800781 38.199219" style="stroke:none;fill-rule:nonzero;fill:rgb(78.039216%,78.039216%,78.039216%);fill-opacity:1;"/>
<path d="M 42.800781 65 C 42.800781 65.132812 42.800781 65.265625 42.800781 65.398438 C 42.515625 65.472656 42.234375 65.542969 41.949219 65.613281 C 41.792969 65.652344 41.632812 65.691406 41.472656 65.730469 C 40.980469 65.804688 40.667969 65.753906 40.199219 65.601562 C 40.480469 65.460938 40.765625 65.324219 41.050781 65.1875 C 41.207031 65.109375 41.367188 65.035156 41.527344 64.957031 C 42.050781 64.78125 42.289062 64.8125 42.800781 65 Z M 42.800781 65" style="stroke:none;fill-rule:nonzero;fill:rgb(60%,60%,60%);fill-opacity:1;"/>
<path d="M 6.398438 47.398438 C 6.601562 48 6.601562 48 6.355469 48.496094 C 6.242188 48.675781 6.128906 48.851562 6.011719 49.039062 C 5.898438 49.21875 5.785156 49.398438 5.667969 49.582031 C 5.582031 49.722656 5.492188 49.859375 5.398438 50 C 5.269531 49.933594 5.136719 49.867188 5 49.800781 C 5.3125 48.867188 5.816406 48.183594 6.398438 47.398438 Z M 6.398438 47.398438" style="stroke:none;fill-rule:nonzero;fill:rgb(81.568627%,81.568627%,81.568627%);fill-opacity:1;"/>
<path d="M 90 41.199219 C 91.148438 41.550781 91.148438 41.550781 91.601562 42 C 91.402344 42.132812 91.203125 42.265625 91 42.398438 C 90.605469 42.203125 90.207031 42.003906 89.800781 41.800781 C 89.867188 41.601562 89.933594 41.402344 90 41.199219 Z M 90 41.199219" style="stroke:none;fill-rule:nonzero;fill:rgb(87.843137%,87.843137%,87.843137%);fill-opacity:1;"/>
<path d="M 74.800781 60 C 75.394531 60 75.988281 60 76.601562 60 C 76.203125 60.199219 76.203125 60.199219 75.800781 60.398438 C 75.867188 60.53125 75.933594 60.664062 76 60.800781 C 75.539062 60.734375 75.074219 60.667969 74.601562 60.601562 C 74.664062 60.402344 74.730469 60.203125 74.800781 60 Z M 74.800781 60" style="stroke:none;fill-rule:nonzero;fill:rgb(98.431373%,98.431373%,98.431373%);fill-opacity:1;"/>
<path d="M 14 39.398438 C 13.800781 39.5 13.800781 39.5 13.601562 39.601562 C 13.601562 39.730469 13.601562 39.863281 13.601562 40 C 13.042969 40.207031 12.828125 40.210938 12.25 40.011719 C 12.101562 39.941406 11.953125 39.871094 11.800781 39.800781 C 12.527344 39.335938 13.152344 39.367188 14 39.398438 Z M 14 39.398438" style="stroke:none;fill-rule:nonzero;fill:rgb(78.039216%,78.039216%,78.039216%);fill-opacity:1;"/>
<path d="M 77.398438 60.199219 C 77.203125 60.332031 77.003906 60.464844 76.800781 60.601562 C 76.996094 60.730469 77.195312 60.863281 77.398438 61 C 76.074219 60.851562 76.074219 60.851562 75.398438 60.398438 C 76.65625 59.914062 76.65625 59.914062 77.398438 60.199219 Z M 77.398438 60.199219" style="stroke:none;fill-rule:nonzero;fill:rgb(73.72549%,73.72549%,73.72549%);fill-opacity:1;"/>
<path d="M 48.800781 44 C 48.867188 44 48.933594 44 49 44 C 49.050781 45.523438 49.050781 45.523438 48.601562 46.199219 C 48.46875 46.132812 48.335938 46.066406 48.199219 46 C 48.320312 45.289062 48.515625 44.664062 48.800781 44 Z M 48.800781 44" style="stroke:none;fill-rule:nonzero;fill:rgb(84.705882%,84.705882%,84.705882%);fill-opacity:1;"/>
<path d="M 8 43.800781 C 8.066406 43.933594 8.132812 44.0625 8.199219 44.199219 C 8.601562 44.425781 8.601562 44.425781 9 44.601562 C 8.398438 44.800781 8.398438 44.800781 8.023438 44.699219 C 7.496094 44.574219 7.121094 44.667969 6.601562 44.800781 C 7.550781 43.800781 7.550781 43.800781 8 43.800781 Z M 8 43.800781" style="stroke:none;fill-rule:nonzero;fill:rgb(78.823529%,78.823529%,78.823529%);fill-opacity:1;"/>
<path d="M 59.199219 42.398438 C 59.964844 42.691406 60.222656 43.085938 60.601562 43.800781 C 60.402344 43.867188 60.203125 43.933594 60 44 C 59.199219 42.851562 59.199219 42.851562 59.199219 42.398438 Z M 59.199219 42.398438" style="stroke:none;fill-rule:nonzero;fill:rgb(87.058824%,87.058824%,87.058824%);fill-opacity:1;"/>
<path d="M 9.800781 40.398438 C 9.726562 40.886719 9.726562 40.886719 9.601562 41.398438 C 9.402344 41.5 9.402344 41.5 9.199219 41.601562 C 9.199219 41.46875 9.199219 41.335938 9.199219 41.199219 C 8.9375 41.132812 8.671875 41.066406 8.398438 41 C 9.125 40.398438 9.125 40.398438 9.800781 40.398438 Z M 9.800781 40.398438" style="stroke:none;fill-rule:nonzero;fill:rgb(90.196078%,90.196078%,90.196078%);fill-opacity:1;"/>
<path d="M 77 62.800781 C 77.660156 62.800781 78.320312 62.800781 79 62.800781 C 78.703125 63.195312 78.703125 63.195312 78.398438 63.601562 C 77.996094 63.480469 77.597656 63.34375 77.199219 63.199219 C 77.132812 63.066406 77.066406 62.9375 77 62.800781 Z M 77 62.800781" style="stroke:none;fill-rule:nonzero;fill:rgb(65.882353%,65.882353%,65.882353%);fill-opacity:1;"/>
<path d="M 32.199219 56 C 32.398438 56.066406 32.597656 56.132812 32.800781 56.199219 C 32.46875 56.53125 32.140625 56.859375 31.800781 57.199219 C 31.601562 57.003906 31.402344 56.804688 31.199219 56.601562 C 31.664062 56.289062 31.664062 56.289062 32.199219 56 Z M 32.199219 56" style="stroke:none;fill-rule:nonzero;fill:rgb(85.882353%,85.882353%,85.882353%);fill-opacity:1;"/>
<path d="M 35.800781 43.800781 C 35.933594 43.867188 36.0625 43.933594 36.199219 44 C 36.066406 44.527344 35.9375 45.054688 35.800781 45.601562 C 35.601562 45.46875 35.402344 45.335938 35.199219 45.199219 C 35.351562 44.25 35.351562 44.25 35.800781 43.800781 Z M 35.800781 43.800781" style="stroke:none;fill-rule:nonzero;fill:rgb(78.431373%,78.431373%,78.431373%);fill-opacity:1;"/>
<path d="M 14.398438 58.800781 C 15.402344 59.085938 15.789062 59.597656 16.398438 60.398438 C 15.398438 60.113281 15.011719 59.601562 14.398438 58.800781 Z M 14.398438 58.800781" style="stroke:none;fill-rule:nonzero;fill:rgb(99.215686%,99.215686%,99.215686%);fill-opacity:1;"/>
<path d="M 24.800781 64.199219 C 24.933594 64.265625 25.0625 64.332031 25.199219 64.398438 C 25.066406 64.53125 24.9375 64.664062 24.800781 64.800781 C 24.867188 64.933594 24.933594 65.0625 25 65.199219 C 24.523438 65.324219 24.523438 65.324219 24 65.398438 C 23.867188 65.269531 23.734375 65.136719 23.601562 65 C 23.996094 64.734375 24.390625 64.472656 24.800781 64.199219 Z M 24.800781 64.199219" style="stroke:none;fill-rule:nonzero;fill:rgb(83.921569%,83.921569%,83.921569%);fill-opacity:1;"/>
<path d="M 74.800781 60 C 74.867188 60.265625 74.933594 60.527344 75 60.800781 C 74.40625 60.734375 73.8125 60.667969 73.199219 60.601562 C 73.8125 60.074219 73.945312 60 74.800781 60 Z M 74.800781 60" style="stroke:none;fill-rule:nonzero;fill:rgb(76.862745%,76.862745%,76.862745%);fill-opacity:1;"/>
<path d="M 17.199219 59.398438 C 17.785156 59.527344 18.273438 59.71875 18.800781 60 C 18.601562 60.132812 18.402344 60.265625 18.199219 60.398438 C 17.8125 60.238281 17.8125 60.238281 17.398438 60 C 17.335938 59.800781 17.269531 59.605469 17.199219 59.398438 Z M 17.199219 59.398438" style="stroke:none;fill-rule:nonzero;fill:rgb(86.666667%,86.666667%,86.666667%);fill-opacity:1;"/>
<path d="M 7 57 C 7.425781 57.636719 7.5 58.054688 7.601562 58.800781 C 7.269531 58.46875 6.941406 58.140625 6.601562 57.800781 C 6.730469 57.535156 6.863281 57.273438 7 57 Z M 7 57" style="stroke:none;fill-rule:nonzero;fill:rgb(85.098039%,85.098039%,85.098039%);fill-opacity:1;"/>
<path d="M 93.199219 54.398438 C 93.265625 54.398438 93.332031 54.398438 93.398438 54.398438 C 93.398438 54.863281 93.398438 55.324219 93.398438 55.800781 C 93.136719 55.867188 92.871094 55.933594 92.601562 56 C 92.710938 55.324219 92.8125 54.984375 93.199219 54.398438 Z M 93.199219 54.398438" style="stroke:none;fill-rule:nonzero;fill:rgb(85.882353%,85.882353%,85.882353%);fill-opacity:1;"/>
<path d="M 47.800781 46.199219 C 48.0625 46.199219 48.328125 46.199219 48.601562 46.199219 C 48.46875 46.53125 48.335938 46.859375 48.199219 47.199219 C 48.066406 47.132812 47.9375 47.066406 47.800781 47 C 47.667969 47.132812 47.535156 47.265625 47.398438 47.398438 C 47.398438 46.800781 47.398438 46.800781 47.800781 46.199219 Z M 47.800781 46.199219" style="stroke:none;fill-rule:nonzero;fill:rgb(89.411765%,89.411765%,89.411765%);fill-opacity:1;"/>
<path d="M 14.199219 63 C 14.78125 63.214844 15.15625 63.355469 15.601562 63.800781 C 15.070312 63.734375 14.542969 63.667969 14 63.601562 C 14.066406 63.402344 14.132812 63.203125 14.199219 63 Z M 14.199219 63" style="stroke:none;fill-rule:nonzero;fill:rgb(78.823529%,78.823529%,78.823529%);fill-opacity:1;"/>
<path d="M 85 59 C 85.132812 59.066406 85.265625 59.132812 85.398438 59.199219 C 84.707031 59.792969 84.707031 59.792969 84 60.398438 C 83.867188 60.335938 83.734375 60.269531 83.601562 60.199219 C 84.0625 59.804688 84.523438 59.40625 85 59 Z M 85 59" style="stroke:none;fill-rule:nonzero;fill:rgb(99.215686%,99.215686%,99.215686%);fill-opacity:1;"/>
<path d="M 28.199219 57.398438 C 27.515625 58.03125 26.910156 58.113281 26 58.199219 C 26.265625 58.132812 26.527344 58.066406 26.800781 58 C 26.800781 57.867188 26.800781 57.734375 26.800781 57.601562 C 27.292969 57.355469 27.65625 57.386719 28.199219 57.398438 Z M 28.199219 57.398438" style="stroke:none;fill-rule:nonzero;fill:rgb(81.960784%,81.960784%,81.960784%);fill-opacity:1;"/>
<path d="M 8.601562 55.800781 C 9.085938 56.527344 9.03125 56.941406 9 57.800781 C 8.800781 57.867188 8.605469 57.933594 8.398438 58 C 8.464844 57.273438 8.53125 56.546875 8.601562 55.800781 Z M 8.601562 55.800781" style="stroke:none;fill-rule:nonzero;fill:rgb(81.960784%,81.960784%,81.960784%);fill-opacity:1;"/>
<path d="M 34.398438 54.199219 C 34.335938 54.464844 34.269531 54.726562 34.199219 55 C 33.871094 55.066406 33.539062 55.132812 33.199219 55.199219 C 33.199219 55.066406 33.199219 54.9375 33.199219 54.800781 C 33.890625 54.199219 33.890625 54.199219 34.398438 54.199219 Z M 34.398438 54.199219" style="stroke:none;fill-rule:nonzero;fill:rgb(97.647059%,97.647059%,97.647059%);fill-opacity:1;"/>
<path d="M 66.800781 55.800781 C 67.75 55.949219 67.75 55.949219 68.199219 56.398438 C 68.066406 56.53125 67.9375 56.664062 67.800781 56.800781 C 67.46875 56.46875 67.140625 56.140625 66.800781 55.800781 Z M 66.800781 55.800781" style="stroke:none;fill-rule:nonzero;fill:rgb(86.666667%,86.666667%,86.666667%);fill-opacity:1;"/>
<path d="M 14.199219 36.601562 C 14.53125 36.601562 14.859375 36.601562 15.199219 36.601562 C 15.199219 36.730469 15.199219 36.863281 15.199219 37 C 14.601562 37.398438 14.601562 37.398438 14 37.398438 C 14.066406 37.136719 14.132812 36.871094 14.199219 36.601562 Z M 14.199219 36.601562" style="stroke:none;fill-rule:nonzero;fill:rgb(92.156863%,92.156863%,92.156863%);fill-opacity:1;"/>
<path d="M 15.601562 63.800781 C 16 64 16 64 16 64 Z M 15.601562 63.800781" style="stroke:none;fill-rule:nonzero;fill:rgb(36.470588%,36.470588%,36.470588%);fill-opacity:1;"/>
<path d="M 83.601562 38.601562 C 84 38.800781 84 38.800781 84 38.800781 Z M 83.601562 38.601562" style="stroke:none;fill-rule:nonzero;fill:rgb(9.803922%,9.803922%,9.803922%);fill-opacity:1;"/>
<path d="M 16 38.601562 C 16.398438 38.800781 16.398438 38.800781 16.398438 38.800781 Z M 16 38.601562" style="stroke:none;fill-rule:nonzero;fill:rgb(11.372549%,11.372549%,11.372549%);fill-opacity:1;"/>
</g>
</svg>